SplineFontDB: 3.0
FontName: Gall
FullName: Galle
FamilyName: Galle
Weight: Regular
Copyright: Copyright (c) 2016 Janaka CB Attanayake (janakacb@gmail.com)  Copyright (c) 2017 mooniak (http://mooniak.com) \n
Version: 0.1
ItalicAngle: 0
UnderlinePosition: 0
UnderlineWidth: 0
Ascent: 800
Descent: 200
InvalidEm: 1
UFOAscent: 553
UFODescent: -184
LayerCount: 2
Layer: 0 0 "Back" 1
Layer: 1 0 "Fore" 0
PreferredKerning: 4
StyleMap: 0x0040
FSType: 0
OS2Version: 0
OS2_WeightWidthSlopeOnly: 0
OS2_UseTypoMetrics: 0
CreationTime: 1489569271
ModificationTime: 1489570823
PfmFamily: 17
TTFWeight: 400
TTFWidth: 5
LineGap: 0
VLineGap: 0
OS2TypoAscent: 0
OS2TypoAOffset: 1
OS2TypoDescent: 0
OS2TypoDOffset: 1
OS2TypoLinegap: 0
OS2WinAscent: 0
OS2WinAOffset: 1
OS2WinDescent: 0
OS2WinDOffset: 1
HheadAscent: 0
HheadAOffset: 1
HheadDescent: 0
HheadDOffset: 1
OS2Vendor: '    '
Lookup: 4 0 0 "sin_akhands" { "sin_akhands subtable"  } ['akhn' ('sinh' <'dflt' > ) ]
Lookup: 4 0 0 "sin_reph" { "sin_reph subtable"  } ['rphf' ('sinh' <'dflt' > ) ]
Lookup: 4 0 0 "sin_yansaya" { "sin_yansaya subtable"  } ['vatu' ('sinh' <'dflt' > ) ]
Lookup: 4 0 0 "sin_rakar" { "sin_rakar subtable"  } ['vatu' ('sinh' <'dflt' > ) ]
Lookup: 1 0 0 "sin_split_matra" { "sin_split_matra subtable"  } ['pstf' ('sinh' <'dflt' > ) ]
Lookup: 4 0 0 "sin_abvs" { "sin_abvs subtable"  } ['abvs' ('sinh' <'dflt' > ) ]
Lookup: 4 0 0 "sin_virama_1" { "sin_virama_1 subtable"  } ['abvs' ('sinh' <'dflt' > ) ]
Lookup: 4 0 0 "sin_virama_2" { "sin_virama_2 subtable"  } ['abvs' ('sinh' <'dflt' > ) ]
Lookup: 4 0 0 "sin_virama_3" { "sin_virama_3 subtable"  } ['abvs' ('sinh' <'dflt' > ) ]
Lookup: 4 0 0 "sin_blws" { "sin_blws subtable"  } ['blws' ('sinh' <'dflt' > ) ]
Lookup: 4 0 0 "sin_raer" { "sin_raer subtable"  } ['psts' ('sinh' <'dflt' > ) ]
Lookup: 4 0 0 "ss_01" { "ss_01 subtable"  } ['ss01' ('sinh' <'dflt' > ) ]
MarkAttachClasses: 1
DEI: 91125

StartChar: .notdef
Encoding: 0 -1 0
GlifName: _notdef
Width: 663
VWidth: 0
Flags: W
HStem: 0 150 1183 150
VStem: 150 150 1200 150
LayerCount: 2
Fore
SplineSet
597 0 m 257
 597 590 l 257
 66 590 l 257
 66 0 l 257
 597 0 l 257
133 524 m 257
 531 524 l 257
 531 66 l 257
 133 66 l 257
 133 524 l 257
EndSplineSet
PickledDataWithLists: "(dp1
S'com.schriftgestaltung.Glyphs.lastChange'
p2
S'2017-02-17 11:28:50 +0000'
p3
sS'com.fontlab.hintData'
p4
(dp5
S'vhints'
p6
(lp7
(dp8
S'position'
p9
I150
sS'width'
p10
I150
sa(dp11
g9
I1200
sg10
I150
sasS'hhints'
p12
(lp13
(dp14
g9
I0
sg10
I150
sa(dp15
g9
I1183
sg10
I150
sass."
EndChar

StartChar: anusvara
Encoding: 3 3458 3
GlifName: anusvara
Width: 333
VWidth: 0
Flags: W
LayerCount: 2
Fore
SplineSet
320 215 m 256
 320 291 258 352 182 352 c 256
 107 352 45 291 45 215 c 256
 45 139 107 77 182 77 c 256
 258 77 320 139 320 215 c 256
  PathStart: -2
89 215 m 256
 89 266 131 307 182 307 c 256
 234 307 276 266 276 215 c 256
 276 163 234 121 182 121 c 256
 131 121 89 163 89 215 c 256
  PathStart: -2
EndSplineSet
PickledDataWithLists: "(dp1
S'com.schriftgestaltung.Glyphs.lastChange'
p2
S'2017-02-17 11:28:50 +0000'
p3
s."
EndChar

StartChar: sinA
Encoding: 4 3461 4
GlifName: sinA_
Width: 565
VWidth: 0
Flags: W
LayerCount: 2
Fore
SplineSet
437 -335 m 256
 462 -307 481 -245 481 -128 c 258
 481 233 l 258
 481 275 492 299 515 324 c 257
 521 327 523 333 523 338 c 256
 523 351 521 352 503 360 c 256
 459 379 455 393 450 418 c 256
 448 424 448 428 448 432 c 256
 448 445 451 452 459 452 c 256
 462 452 464 451 468 448 c 256
 481 441 498 425 519 425 c 256
 536 425 539 435 539 453 c 256
 539 461 538 464 518 473 c 256
 496 484 450 501 442 501 c 256
 435 501 403 485 403 452 c 256
 403 448 403 441 405 437 c 257
 339 499 285 501 267 501 c 256
 105 501 27 370 27 244 c 256
 27 94 136 -12 299 -12 c 256
 372 -12 421 10 437 21 c 257
 437 -128 l 258
 437 -220 433 -264 410 -295 c 256
 406 -301 397 -312 397 -324 c 256
 397 -337 405 -345 417 -345 c 256
 423 -345 428 -343 437 -335 c 256
  PathStart: -2
71 241 m 256
 71 349 140 457 257 457 c 256
 327 457 380 419 424 372 c 256
 442 352 453 341 471 333 c 257
 442 302 437 261 437 192 c 258
 437 72 l 257
 411 52 357 32 293 32 c 256
 163 32 71 117 71 241 c 256
  PathStart: -2
EndSplineSet
PickledDataWithLists: "(dp1
S'com.schriftgestaltung.Glyphs.lastChange'
p2
S'2017-02-17 11:28:50 +0000'
p3
s."
EndChar

StartChar: sinAa
Encoding: 5 3462 5
GlifName: sinA_a
Width: 827
VWidth: 0
Flags: W
HStem: 18 98 1023 100
VStem: 1278 101 1706 100
LayerCount: 2
Fore
SplineSet
437 -335 m 256
 462 -305 481 -246 481 -128 c 258
 481 233 l 258
 481 275 492 299 515 324 c 257
 521 326 523 331 523 337 c 256
 523 348 515 360 503 360 c 256
 481 360 454 394 450 418 c 256
 449 423 448 428 448 434 c 256
 448 445 451 452 459 452 c 256
 461 452 465 451 468 448 c 256
 481 441 497 425 520 425 c 256
 533 425 539 435 539 446 c 256
 539 459 531 473 518 473 c 256
 492 473 477 501 448 501 c 256
 425 501 403 479 403 452 c 256
 403 447 403 442 405 437 c 257
 389 451 338 501 265 501 c 256
 105 501 27 370 27 246 c 256
 27 94 140 -12 290 -12 c 256
 380 -12 419 10 437 21 c 257
 437 -128 l 258
 437 -202 434 -267 410 -295 c 256
 400 -306 397 -316 397 -324 c 256
 397 -337 406 -345 416 -345 c 256
 423 -345 430 -342 437 -335 c 256
  PathStart: -2
71 246 m 256
 71 330 123 457 265 457 c 256
 318 457 379 421 424 372 c 256
 441 354 453 341 471 333 c 257
 442 302 437 261 437 192 c 258
 437 72 l 257
 410 52 359 32 290 32 c 256
 162 32 71 116 71 246 c 256
  PathStart: -2
685 10 m 256
 757 35 799 96 799 218 c 258
 799 289 l 258
 799 410 771 497 678 497 c 256
 597 497 566 451 566 368 c 256
 566 359 566 350 566 341 c 256
 567 327 579 320 591 320 c 256
 601 320 611 326 611 339 c 256
 611 347 610 355 610 362 c 256
 610 426 633 453 678 453 c 256
 725 453 755 424 755 289 c 258
 755 218 l 258
 755 133 729 74 671 52 c 256
 658 46 653 38 653 29 c 256
 653 18 663 8 676 8 c 256
 678 8 682 8 685 10 c 256
  PathStart: -2
EndSplineSet
PickledDataWithLists: "(dp1
S'com.schriftgestaltung.Glyphs.lastChange'
p2
S'2017-02-17 11:28:50 +0000'
p3
sS'com.fontlab.hintData'
p4
(dp5
S'vhints'
p6
(lp7
(dp8
S'position'
p9
I1278
sS'width'
p10
I101
sa(dp11
g9
I1706
sg10
I100
sasS'hhints'
p12
(lp13
(dp14
g9
I18
sg10
I98
sa(dp15
g9
I1023
sg10
I100
sass."
EndChar

StartChar: sinAae
Encoding: 6 3464 6
GlifName: sinA_ae
Width: 901
VWidth: 0
Flags: W
HStem: -26 100 0 100 551 77 961 109 1033 100
VStem: 60 100 910 102 988 100 1237 100 1464 91 1880 91
LayerCount: 2
Fore
SplineSet
437 -335 m 256
 462 -305 481 -246 481 -128 c 258
 481 233 l 258
 481 275 492 299 515 324 c 257
 518 326 521 328 523 330 c 257
 549 349 570 355 597 361 c 257
 559 333 552 288 535 233 c 256
 534 230 533 228 533 225 c 256
 533 211 545 198 552 202 c 256
 566 209 611 244 634 244 c 256
 642 244 647 240 647 228 c 256
 647 180 547 184 547 100 c 256
 547 29 625 0 686 0 c 256
 779 0 853 83 872 162 c 256
 874 169 875 175 875 182 c 256
 875 187 874 192 869 196 c 256
 864 198 859 201 855 201 c 256
 845 201 837 192 832 177 c 256
 808 103 751 44 686 44 c 256
 652 44 591 53 591 100 c 256
 591 165 688 158 688 227 c 256
 688 260 656 278 627 278 c 256
 610 278 594 272 583 260 c 257
 598 322 618 338 644 365 c 256
 648 369 650 374 650 379 c 256
 650 397 625 417 605 417 c 256
 600 417 596 417 592 413 c 256
 568 394 553 392 512 369 c 256
 510 368 507 366 504 366 c 256
 483 366 453 400 450 418 c 256
 448 424 448 429 448 434 c 256
 448 445 451 452 458 452 c 256
 461 452 465 451 468 448 c 256
 481 441 497 425 520 425 c 256
 533 425 538 435 538 446 c 256
 538 459 531 473 518 473 c 256
 492 473 476 501 448 501 c 256
 425 501 403 479 403 452 c 256
 403 447 403 442 405 437 c 257
 389 451 338 501 265 501 c 256
 105 501 27 370 27 246 c 256
 27 94 140 -12 290 -12 c 256
 380 -12 419 10 437 21 c 257
 437 -128 l 258
 437 -202 434 -267 410 -295 c 256
 400 -306 397 -316 397 -324 c 256
 397 -337 406 -345 416 -345 c 256
 422 -345 430 -342 437 -335 c 256
  PathStart: -2
71 246 m 256
 71 330 122 457 265 457 c 256
 317 457 379 421 424 372 c 256
 440 354 453 341 471 333 c 257
 442 302 437 261 437 192 c 258
 437 72 l 257
 410 52 359 32 290 32 c 256
 162 32 71 116 71 246 c 256
  PathStart: -2
EndSplineSet
PickledDataWithLists: "(dp1
S'com.schriftgestaltung.Glyphs.lastChange'
p2
S'2017-02-17 11:28:50 +0000'
p3
sS'com.fontlab.hintData'
p4
(dp5
S'vhints'
p6
(lp7
(dp8
S'position'
p9
I60
sS'width'
p10
I100
sa(dp11
g9
I910
sg10
I102
sa(dp12
g9
I988
sg10
I100
sa(dp13
g9
I1237
sg10
I100
sa(dp14
g9
I1464
sg10
I91
sa(dp15
g9
I1880
sg10
I91
sasS'hhints'
p16
(lp17
(dp18
g9
I-26
sg10
I100
sa(dp19
g9
I0
sg10
I100
sa(dp20
g9
I551
sg10
I77
sa(dp21
g9
I961
sg10
I109
sa(dp22
g9
I1033
sg10
I100
sass."
EndChar

StartChar: sinAe
Encoding: 7 3463 7
GlifName: sinA_e
Width: 901
VWidth: 0
Flags: W
LayerCount: 2
Fore
SplineSet
437 -335 m 256
 462 -305 481 -246 481 -128 c 258
 481 233 l 258
 481 275 492 299 515 324 c 257
 524 330 529 334 529 342 c 256
 529 353 524 370 515 370 c 256
 514 370 513 370 512 369 c 257
 510 368 507 366 504 366 c 256
 483 366 453 400 450 418 c 256
 448 424 448 429 448 434 c 256
 448 445 451 452 458 452 c 256
 461 452 465 451 468 448 c 256
 481 441 497 425 520 425 c 256
 533 425 538 435 538 446 c 256
 538 459 531 473 518 473 c 256
 492 473 476 501 448 501 c 256
 425 501 403 479 403 452 c 256
 403 447 403 442 405 437 c 257
 389 451 338 501 265 501 c 256
 105 501 27 370 27 246 c 256
 27 94 140 -12 290 -12 c 256
 380 -12 419 10 437 21 c 257
 437 -128 l 258
 437 -202 434 -267 410 -295 c 256
 400 -306 397 -316 397 -324 c 256
 397 -337 406 -345 416 -345 c 256
 422 -345 430 -342 437 -335 c 256
  PathStart: -2
71 246 m 256
 71 330 122 457 265 457 c 256
 317 457 379 421 424 372 c 256
 440 354 453 341 471 333 c 257
 442 302 437 261 437 192 c 258
 437 72 l 257
 410 52 359 32 290 32 c 256
 162 32 71 116 71 246 c 256
  PathStart: -2
872 162 m 256
 874 169 875 175 875 182 c 256
 875 187 874 192 869 196 c 256
 864 198 859 201 855 201 c 256
 845 201 837 192 832 177 c 256
 808 103 751 44 686 44 c 256
 652 44 600 55 600 113 c 256
 600 159 656 209 656 264 c 256
 656 338 613 382 554 382 c 256
 531 382 510 369 493 355 c 257
 487 327 l 257
 515 324 l 257
 524 333 543 340 552 340 c 256
 602 340 616 302 616 265 c 256
 616 218 556 171 556 113 c 256
 556 32 625 0 686 0 c 256
 779 0 853 83 872 162 c 256
  PathStart: -2
EndSplineSet
PickledDataWithLists: "(dp1
S'com.schriftgestaltung.Glyphs.lastChange'
p2
S'2017-02-17 11:28:50 +0000'
p3
s."
EndChar

StartChar: sinAi
Encoding: 8 3475 8
GlifName: sinA_i
Width: 1299
VWidth: 0
Flags: W
HStem: -26 104 440 107 762 108 818 108 845 91 977 61 977 88 992 100 1542 106
VStem: 60 102 482 100 781 181 1264 100 1642 100 1897 100 2011 91 2774 101
LayerCount: 2
Fore
SplineSet
1272 254 m 256
 1272 441 1137 605 1050 703 c 256
 1030 727 1012 746 998 762 c 257
 985 738 971 717 959 698 c 256
 930 651 890 594 890 545 c 256
 890 470 945 432 1005 432 c 256
 1051 432 1117 472 1147 515 c 257
 1178 470 1227 383 1227 254 c 256
 1227 127 1154 35 994 35 c 256
 855 35 771 105 771 216 c 256
 771 286 814 341 877 346 c 257
 882 346 l 258
 900 346 917 341 933 337 c 257
 936 337 939 336 941 336 c 256
 952 336 959 342 962 353 c 256
 963 355 963 357 963 359 c 256
 963 370 954 379 937 385 c 256
 901 398 883 411 883 432 c 256
 883 446 897 456 914 456 c 256
 917 456 919 456 922 456 c 256
 943 451 959 432 1005 432 c 256
 1017 432 1023 439 1023 445 c 256
 1023 453 1017 459 1006 459 c 256
 974 459 959 497 908 497 c 256
 864 497 839 470 839 439 c 256
 839 425 844 410 855 397 c 257
 830 408 796 414 762 414 c 256
 744 414 726 413 710 410 c 256
 694 406 686 396 686 386 c 256
 686 373 696 362 712 362 c 256
 714 362 717 362 720 363 c 256
 739 367 757 374 789 374 c 256
 799 374 810 373 823 372 c 257
 791 367 726 322 726 216 c 256
 726 74 830 -12 994 -12 c 256
 1185 -12 1272 94 1272 254 c 256
  PathStart: -2
603 247 m 256
 603 404 506 483 390 483 c 256
 305 483 213 425 213 324 c 256
 213 250 264 195 341 195 c 256
 390 195 425 222 425 262 c 256
 425 291 407 310 382 310 c 256
 358 310 346 292 346 274 c 256
 346 264 350 255 358 248 c 257
 352 245 343 242 329 242 c 256
 287 242 257 280 257 324 c 256
 257 394 324 439 390 439 c 256
 483 439 559 375 559 247 c 256
 559 114 463 32 332 32 c 256
 160 32 72 191 72 327 c 256
 72 552 240 682 429 682 c 256
 470 682 512 676 552 664 c 256
 556 663 560 662 563 662 c 256
 577 662 587 673 587 684 c 256
 587 693 581 702 568 706 c 256
 521 722 472 729 425 729 c 256
 214 729 27 580 27 327 c 256
 27 159 130 -12 332 -12 c 256
 494 -12 603 94 603 247 c 256
  PathStart: -2
930 545 m 256
 930 589 981 654 1007 689 c 257
 1037 656 1088 599 1116 552 c 257
 1105 512 1045 471 1005 471 c 256
 966 471 930 494 930 545 c 256
  PathStart: -2
EndSplineSet
PickledDataWithLists: "(dp1
S'com.schriftgestaltung.Glyphs.lastChange'
p2
S'2017-02-17 11:28:50 +0000'
p3
sS'com.fontlab.hintData'
p4
(dp5
S'vhints'
p6
(lp7
(dp8
S'position'
p9
I60
sS'width'
p10
I102
sa(dp11
g9
I482
sg10
I100
sa(dp12
g9
I781
sg10
I181
sa(dp13
g9
I1264
sg10
I100
sa(dp14
g9
I1642
sg10
I100
sa(dp15
g9
I1897
sg10
I100
sa(dp16
g9
I2011
sg10
I91
sa(dp17
g9
I2774
sg10
I101
sasS'hhints'
p18
(lp19
(dp20
g9
I-26
sg10
I104
sa(dp21
g9
I440
sg10
I107
sa(dp22
g9
I762
sg10
I108
sa(dp23
g9
I818
sg10
I108
sa(dp24
g9
I845
sg10
I91
sa(dp25
g9
I977
sg10
I61
sa(dp26
g9
I977
sg10
I88
sa(dp27
g9
I992
sg10
I100
sa(dp28
g9
I1542
sg10
I106
sass."
EndChar

StartChar: sinAu
Encoding: 10 3478 10
GlifName: sinA_u
Width: 717
VWidth: 0
Flags: W
HStem: 0 100 434 97 474 91 606 91 824 86 1000 97 1557 102
VStem: 61 100 393 100 783 88 1459 102 1669 92 1721 100 2002 98 2147 100
LayerCount: 2
Fore
SplineSet
347 100 m 257
 364 41 430 0 496 0 c 256
 626 0 691 108 691 276 c 256
 691 552 456 734 208 734 c 256
 153 734 99 725 45 706 c 256
 32 702 27 693 27 684 c 256
 27 672 35 662 49 662 c 256
 52 662 56 662 60 664 c 256
 110 681 161 689 211 689 c 256
 437 689 645 525 645 276 c 256
 645 125 593 44 496 44 c 256
 444 44 397 77 383 122 c 256
 368 167 371 193 358 229 c 257
 354 232 347 235 340 235 c 256
 331 235 324 231 324 218 c 256
 324 215 324 212 325 208 c 257
 326 200 327 192 327 184 c 256
 327 102 282 44 212 44 c 256
 125 44 72 116 72 243 c 256
 72 369 145 438 219 438 c 256
 276 438 338 414 357 327 c 257
 386 300 l 257
 386 428 294 480 220 480 c 256
 129 480 27 401 27 243 c 256
 27 84 102 0 212 0 c 256
 277 0 330 42 347 100 c 257
  PathStart: -2
386 300 m 256
 386 321 375 347 357 351 c 257
 338 386 304 403 271 403 c 256
 222 403 174 361 174 300 c 256
 174 240 223 192 282 192 c 256
 339 192 386 240 386 300 c 256
  PathStart: -2
218 300 m 256
 218 335 247 364 282 364 c 256
 318 364 347 335 347 300 c 256
 347 265 318 236 282 236 c 256
 247 236 218 265 218 300 c 256
  PathStart: -2
994 160 m 256
 994 229 965 308 901 308 c 256
 843 308 846 250 816 250 c 256
 797 250 779 291 779 348 c 256
 779 414 799 442 837 442 c 256
 863 442 886 423 886 392 c 256
 886 388 886 384 886 380 c 256
 886 369 895 364 905 364 c 256
 917 364 928 369 929 382 c 256
 930 386 930 391 930 395 c 256
 930 451 884 485 837 485 c 256
 787 485 738 446 738 347 c 256
 738 271 767 209 816 209 c 256
 866 209 875 268 901 268 c 256
 941 268 950 203 950 160 c 256
 950 94 929 44 871 44 c 256
 839 44 806 63 806 107 c 256
 806 123 794 131 783 131 c 256
 772 131 762 123 762 107 c 256
 762 50 796 0 871 0 c 256
 957 0 994 70 994 160 c 256
  PathStart: -2
EndSplineSet
PickledDataWithLists: "(dp1
S'com.schriftgestaltung.Glyphs.lastChange'
p2
S'2017-02-17 11:28:50 +0000'
p3
sS'com.fontlab.hintData'
p4
(dp5
S'vhints'
p6
(lp7
(dp8
S'position'
p9
I61
sS'width'
p10
I100
sa(dp11
g9
I393
sg10
I100
sa(dp12
g9
I783
sg10
I88
sa(dp13
g9
I1459
sg10
I102
sa(dp14
g9
I1669
sg10
I92
sa(dp15
g9
I1721
sg10
I100
sa(dp16
g9
I2002
sg10
I98
sa(dp17
g9
I2147
sg10
I100
sasS'hhints'
p18
(lp19
(dp20
g9
I0
sg10
I100
sa(dp21
g9
I434
sg10
I97
sa(dp22
g9
I474
sg10
I91
sa(dp23
g9
I606
sg10
I91
sa(dp24
g9
I824
sg10
I86
sa(dp25
g9
I1000
sg10
I97
sa(dp26
g9
I1557
sg10
I102
sass."
EndChar

StartChar: sinB.virama
Encoding: 11 -1 11
GlifName: sinB_.virama
Width: 717
VWidth: 0
Flags: W
HStem: 0 104 398 109 945 100 1567 102
VStem: 89 90 534 93 724 118 874 100 1459 102
LayerCount: 2
Fore
SplineSet
277 111 m 256
 277 178 232 224 180 224 c 256
 134 224 94 189 83 169 c 257
 80 181 79 196 79 212 c 256
 79 297 120 418 251 418 c 256
 322 418 386 373 386 303 c 256
 386 215 320 211 320 125 c 256
 320 67 364 0 472 0 c 256
 588 0 691 75 691 276 c 256
 691 548 487 738 231 738 c 256
 171 738 109 729 45 706 c 256
 32 702 27 692 27 683 c 256
 27 672 35 661 49 661 c 256
 52 661 56 662 60 663 c 256
 120 684 178 693 233 693 c 256
 467 693 645 521 645 276 c 256
 645 130 568 44 472 44 c 256
 386 44 372 97 372 125 c 256
 372 194 431 199 431 303 c 256
 431 395 347 462 251 462 c 256
 129 462 39 359 39 209 c 256
 39 142 48 0 180 0 c 256
 249 0 277 52 277 111 c 256
  PathStart: -2
106 111 m 256
 106 147 136 176 171 176 c 256
 207 176 236 147 236 111 c 256
 236 75 207 46 171 46 c 256
 136 46 106 75 106 111 c 256
  PathStart: -2
EndSplineSet
PickledDataWithLists: "(dp1
S'com.schriftgestaltung.Glyphs.lastChange'
p2
S'2017-02-17 11:28:50 +0000'
p3
sS'com.fontlab.hintData'
p4
(dp5
S'vhints'
p6
(lp7
(dp8
S'position'
p9
I89
sS'width'
p10
I90
sa(dp11
g9
I534
sg10
I93
sa(dp12
g9
I724
sg10
I118
sa(dp13
g9
I874
sg10
I100
sa(dp14
g9
I1459
sg10
I102
sasS'hhints'
p15
(lp16
(dp17
g9
I0
sg10
I104
sa(dp18
g9
I398
sg10
I109
sa(dp19
g9
I945
sg10
I100
sa(dp20
g9
I1567
sg10
I102
sass."
Ligature2: "sin_virama_1 subtable" sinBa sinVirama
EndChar

StartChar: sinBI
Encoding: 12 -1 12
GlifName: sinB_I_
Width: 680
VWidth: 0
Flags: W
HStem: 0 104 398 109 945 100 1237 94 1800 100
VStem: 60 90 108 100 505 93 695 118 845 100 1168 96 1377 101
LayerCount: 2
Fore
SplineSet
265 111 m 256
 265 178 219 224 167 224 c 256
 122 224 81 189 70 169 c 257
 68 181 66 196 66 212 c 256
 66 297 108 418 237 418 c 256
 310 418 374 373 374 303 c 256
 374 215 307 211 307 125 c 256
 307 67 352 0 459 0 c 256
 563 0 654 55 654 202 c 256
 654 449 406 504 276 540 c 256
 201 561 92 566 92 674 c 256
 92 765 198 796 301 796 c 256
 442 796 517 751 517 678 c 256
 517 619 474 589 430 589 c 256
 388 589 324 597 287 656 c 256
 282 664 274 667 267 667 c 256
 257 667 247 661 247 650 c 256
 247 645 248 641 251 636 c 256
 288 568 364 547 430 547 c 256
 492 547 559 594 559 678 c 256
 559 779 453 841 301 841 c 256
 167 841 48 790 48 674 c 256
 48 537 160 528 263 499 c 256
 360 473 609 415 609 202 c 256
 609 88 543 44 459 44 c 256
 374 44 360 97 360 125 c 256
 360 194 418 199 418 303 c 256
 418 395 334 462 237 462 c 256
 117 462 27 359 27 209 c 256
 27 142 35 0 167 0 c 256
 236 0 265 52 265 111 c 256
  PathStart: -2
94 111 m 256
 94 147 122 176 159 176 c 256
 194 176 223 147 223 111 c 256
 223 75 194 46 159 46 c 256
 122 46 94 75 94 111 c 256
  PathStart: -2
EndSplineSet
PickledDataWithLists: "(dp1
S'com.schriftgestaltung.Glyphs.lastChange'
p2
S'2017-02-17 11:28:50 +0000'
p3
sS'com.fontlab.hintData'
p4
(dp5
S'vhints'
p6
(lp7
(dp8
S'position'
p9
I60
sS'width'
p10
I90
sa(dp11
g9
I108
sg10
I100
sa(dp12
g9
I505
sg10
I93
sa(dp13
g9
I695
sg10
I118
sa(dp14
g9
I845
sg10
I100
sa(dp15
g9
I1168
sg10
I96
sa(dp16
g9
I1377
sg10
I101
sasS'hhints'
p17
(lp18
(dp19
g9
I0
sg10
I104
sa(dp20
g9
I398
sg10
I109
sa(dp21
g9
I945
sg10
I100
sa(dp22
g9
I1237
sg10
I94
sa(dp23
g9
I1800
sg10
I100
sass."
Ligature2: "sin_abvs subtable" sinBa sinMatraI
EndChar

StartChar: sinBIi
Encoding: 13 -1 13
GlifName: sinB_I_i
Width: 680
VWidth: 0
Flags: W
HStem: 0 104 398 109 945 100 1257 84 1633 94 1800 100
VStem: 60 90 108 100 505 93 695 118 815 94 845 100 1163 100 1377 101
LayerCount: 2
Fore
SplineSet
265 111 m 256
 265 178 219 224 167 224 c 256
 122 224 81 189 70 169 c 257
 68 181 66 196 66 212 c 256
 66 297 108 418 237 418 c 256
 310 418 374 373 374 303 c 256
 374 215 307 211 307 125 c 256
 307 67 352 0 459 0 c 256
 563 0 654 55 654 202 c 256
 654 449 406 505 276 540 c 256
 201 561 92 566 92 674 c 256
 92 766 198 796 301 796 c 256
 442 796 515 751 515 678 c 256
 515 619 458 594 399 594 c 256
 383 594 362 596 344 600 c 257
 376 605 402 636 402 676 c 256
 402 723 359 764 312 764 c 256
 264 764 222 725 222 675 c 256
 222 653 229 631 246 613 c 256
 284 573 351 556 400 556 c 256
 479 556 559 591 559 678 c 256
 559 779 453 841 301 841 c 256
 167 841 48 790 48 674 c 256
 48 537 160 528 263 499 c 256
 360 473 609 415 609 202 c 256
 609 88 543 44 459 44 c 256
 374 44 360 97 360 125 c 256
 360 194 418 199 418 303 c 256
 418 395 334 462 237 462 c 256
 117 462 27 359 27 209 c 256
 27 142 35 0 167 0 c 256
 236 0 265 52 265 111 c 256
  PathStart: -2
94 111 m 256
 94 147 122 176 159 176 c 256
 194 176 223 147 223 111 c 256
 223 75 194 46 159 46 c 256
 122 46 94 75 94 111 c 256
  PathStart: -2
263 675 m 256
 263 702 285 723 312 723 c 256
 339 723 361 703 361 676 c 256
 361 647 339 621 311 621 c 256
 285 621 263 645 263 675 c 256
  PathStart: -2
EndSplineSet
PickledDataWithLists: "(dp1
S'com.schriftgestaltung.Glyphs.lastChange'
p2
S'2017-02-17 11:28:50 +0000'
p3
sS'com.fontlab.hintData'
p4
(dp5
S'vhints'
p6
(lp7
(dp8
S'position'
p9
I60
sS'width'
p10
I90
sa(dp11
g9
I108
sg10
I100
sa(dp12
g9
I505
sg10
I93
sa(dp13
g9
I695
sg10
I118
sa(dp14
g9
I815
sg10
I94
sa(dp15
g9
I845
sg10
I100
sa(dp16
g9
I1163
sg10
I100
sa(dp17
g9
I1377
sg10
I101
sasS'hhints'
p18
(lp19
(dp20
g9
I0
sg10
I104
sa(dp21
g9
I398
sg10
I109
sa(dp22
g9
I945
sg10
I100
sa(dp23
g9
I1257
sg10
I84
sa(dp24
g9
I1633
sg10
I94
sa(dp25
g9
I1800
sg10
I100
sass."
Ligature2: "sin_abvs subtable" sinBa sinMatraIi
EndChar

StartChar: sinBa
Encoding: 20 3510 20
GlifName: sinB_a
Width: 717
VWidth: 0
Flags: W
HStem: 0 104 398 109 945 100 1567 102
VStem: 89 90 534 93 724 118 874 100 1459 102
LayerCount: 2
Fore
SplineSet
277 111 m 256
 277 178 232 224 180 224 c 256
 134 224 94 189 83 169 c 257
 80 181 79 196 79 212 c 256
 79 297 120 418 251 418 c 256
 322 418 386 373 386 303 c 256
 386 215 320 211 320 125 c 256
 320 67 364 0 472 0 c 256
 588 0 691 75 691 276 c 256
 691 548 487 738 231 738 c 256
 171 738 109 729 45 706 c 256
 32 702 27 692 27 683 c 256
 27 672 35 661 49 661 c 256
 52 661 56 662 60 663 c 256
 120 684 178 693 233 693 c 256
 467 693 645 521 645 276 c 256
 645 130 568 44 472 44 c 256
 386 44 372 97 372 125 c 256
 372 194 431 199 431 303 c 256
 431 395 347 462 251 462 c 256
 129 462 39 359 39 209 c 256
 39 142 48 0 180 0 c 256
 249 0 277 52 277 111 c 256
  PathStart: -2
106 111 m 256
 106 147 136 176 171 176 c 256
 207 176 236 147 236 111 c 256
 236 75 207 46 171 46 c 256
 136 46 106 75 106 111 c 256
  PathStart: -2
EndSplineSet
PickledDataWithLists: "(dp1
S'com.schriftgestaltung.Glyphs.lastChange'
p2
S'2017-02-17 11:28:50 +0000'
p3
sS'com.fontlab.hintData'
p4
(dp5
S'vhints'
p6
(lp7
(dp8
S'position'
p9
I89
sS'width'
p10
I90
sa(dp11
g9
I534
sg10
I93
sa(dp12
g9
I724
sg10
I118
sa(dp13
g9
I874
sg10
I100
sa(dp14
g9
I1459
sg10
I102
sasS'hhints'
p15
(lp16
(dp17
g9
I0
sg10
I104
sa(dp18
g9
I398
sg10
I109
sa(dp19
g9
I945
sg10
I100
sa(dp20
g9
I1567
sg10
I102
sass."
EndChar

StartChar: sinBha
Encoding: 30 3511 30
GlifName: sinB_ha
Width: 795
VWidth: 0
Flags: W
HStem: 0 100 501 92 760 106 777 61 816 108 843 91 942 94 1000 100 1030 93
VStem: 173 100 407 97 972 100 1634 103
LayerCount: 2
Fore
SplineSet
768 243 m 256
 768 421 661 487 552 487 c 256
 425 487 355 408 331 251 c 256
 330 246 330 240 330 236 c 256
 330 226 333 220 344 220 c 256
 347 220 350 220 352 220 c 256
 360 221 368 222 375 222 c 256
 413 222 430 200 430 150 c 256
 430 102 382 44 288 44 c 256
 197 44 121 105 121 216 c 256
 121 288 158 344 215 344 c 256
 253 344 246 341 273 336 c 256
 275 335 278 335 280 335 c 256
 291 335 299 341 302 352 c 256
 302 355 302 356 302 358 c 256
 302 369 295 377 278 383 c 256
 225 403 223 408 223 431 c 256
 223 445 237 456 254 456 c 256
 257 456 260 455 262 455 c 256
 293 448 305 417 346 417 c 256
 358 417 364 427 364 437 c 256
 364 448 358 459 346 459 c 256
 315 459 299 497 251 497 c 256
 205 497 180 467 180 437 c 256
 180 422 185 408 195 396 c 257
 170 408 135 413 101 413 c 256
 83 413 66 412 49 408 c 256
 34 406 27 395 27 384 c 256
 27 372 36 361 52 361 c 256
 54 361 57 361 59 362 c 256
 79 366 97 373 129 373 c 256
 139 373 150 372 162 371 c 257
 133 371 77 323 77 216 c 256
 77 72 178 0 288 0 c 256
 355 0 401 20 431 48 c 257
 470 12 517 0 558 0 c 256
 674 0 768 99 768 243 c 256
  PathStart: -2
456 81 m 257
 468 103 474 127 474 150 c 256
 474 214 445 262 389 262 c 256
 384 262 379 262 374 262 c 257
 389 361 450 442 552 442 c 256
 643 442 723 385 723 243 c 256
 723 111 644 44 558 44 c 256
 524 44 490 55 456 81 c 257
  PathStart: -2
EndSplineSet
PickledDataWithLists: "(dp1
S'com.schriftgestaltung.Glyphs.lastChange'
p2
S'2017-02-17 11:28:50 +0000'
p3
sS'com.fontlab.hintData'
p4
(dp5
S'vhints'
p6
(lp7
(dp8
S'position'
p9
I173
sS'width'
p10
I100
sa(dp11
g9
I407
sg10
I97
sa(dp12
g9
I972
sg10
I100
sa(dp13
g9
I1634
sg10
I103
sasS'hhints'
p14
(lp15
(dp16
g9
I0
sg10
I100
sa(dp17
g9
I501
sg10
I92
sa(dp18
g9
I760
sg10
I106
sa(dp19
g9
I777
sg10
I61
sa(dp20
g9
I816
sg10
I108
sa(dp21
g9
I843
sg10
I91
sa(dp22
g9
I942
sg10
I94
sa(dp23
g9
I1000
sg10
I100
sa(dp24
g9
I1030
sg10
I93
sass."
EndChar

StartChar: sinC.virama
Encoding: 31 -1 31
GlifName: sinC_.virama
Width: 643
VWidth: 0
Flags: W
HStem: -26 104 762 108 818 108 845 91 944 94 1032 91 1452 108 1779 92 1802 98
VStem: 150 100 264 103 405 100 983 102 1289 102
LayerCount: 2
Fore
SplineSet
616 295 m 256
 616 423 557 526 469 594 c 257
 477 619 481 643 481 664 c 256
 481 793 352 841 246 841 c 256
 228 841 210 839 194 837 c 256
 147 829 123 827 104 827 c 256
 92 827 83 828 70 828 c 256
 50 828 41 818 41 807 c 256
 41 797 51 787 67 787 c 256
 99 787 117 764 117 737 c 256
 117 703 104 687 66 667 c 257
 52 662 46 653 46 644 c 256
 46 633 56 622 70 622 c 256
 74 622 77 623 80 625 c 256
 120 636 161 642 202 642 c 256
 371 642 570 505 570 295 c 256
 570 174 494 35 333 35 c 256
 195 35 111 105 111 216 c 256
 111 286 154 341 217 346 c 257
 222 346 l 258
 240 346 256 341 273 337 c 257
 276 337 278 336 280 336 c 256
 291 336 299 342 302 353 c 256
 302 355 303 357 303 359 c 256
 303 370 294 379 277 385 c 256
 241 398 223 411 223 432 c 256
 223 446 237 456 254 456 c 256
 257 456 260 456 262 456 c 256
 293 449 305 417 346 417 c 256
 358 417 364 428 364 437 c 256
 364 448 358 459 346 459 c 256
 314 459 299 497 248 497 c 256
 204 497 179 470 179 439 c 256
 179 425 184 410 195 397 c 257
 170 408 136 414 102 414 c 256
 84 414 66 413 50 410 c 256
 34 406 27 396 27 386 c 256
 27 373 36 362 52 362 c 256
 55 362 57 362 60 363 c 256
 79 367 97 374 129 374 c 256
 139 374 150 373 163 372 c 257
 131 367 66 322 66 216 c 256
 66 74 170 -12 333 -12 c 256
 525 -12 616 142 616 295 c 256
  PathStart: -2
201 690 m 256
 185 690 168 689 152 687 c 257
 159 698 162 712 162 726 c 256
 162 746 154 768 138 787 c 257
 173 790 204 797 234 797 c 256
 351 797 435 747 435 652 c 256
 435 642 434 631 432 621 c 257
 364 665 284 690 201 690 c 256
  PathStart: -2
EndSplineSet
PickledDataWithLists: "(dp1
S'com.schriftgestaltung.Glyphs.lastChange'
p2
S'2017-02-17 11:28:50 +0000'
p3
sS'com.fontlab.hintData'
p4
(dp5
S'vhints'
p6
(lp7
(dp8
S'position'
p9
I150
sS'width'
p10
I100
sa(dp11
g9
I264
sg10
I103
sa(dp12
g9
I405
sg10
I100
sa(dp13
g9
I983
sg10
I102
sa(dp14
g9
I1289
sg10
I102
sasS'hhints'
p15
(lp16
(dp17
g9
I-26
sg10
I104
sa(dp18
g9
I762
sg10
I108
sa(dp19
g9
I818
sg10
I108
sa(dp20
g9
I845
sg10
I91
sa(dp21
g9
I944
sg10
I94
sa(dp22
g9
I1032
sg10
I91
sa(dp23
g9
I1452
sg10
I108
sa(dp24
g9
I1779
sg10
I92
sa(dp25
g9
I1802
sg10
I98
sass."
Ligature2: "sin_virama_1 subtable" sinCa sinVirama
EndChar

StartChar: sinCI
Encoding: 32 -1 32
GlifName: sinC_I_
Width: 621
VWidth: 0
Flags: W
HStem: -26 104 735 89 772 108 799 91 898 94 986 91 1237 94 1800 100
VStem: 150 100 199 100 405 100 623 89 1172 96 1239 106
LayerCount: 2
Fore
SplineSet
595 248 m 256
 595 437 467 501 333 540 c 256
 258 563 132 566 132 678 c 256
 132 766 222 796 308 796 c 256
 445 796 518 751 518 678 c 256
 518 619 476 589 432 589 c 256
 397 589 346 597 315 656 c 256
 311 664 304 667 296 667 c 256
 286 667 276 661 276 649 c 256
 276 645 277 641 279 636 c 256
 315 570 375 547 432 547 c 256
 494 547 561 594 561 678 c 256
 561 779 457 841 308 841 c 256
 206 841 88 792 88 678 c 256
 88 538 209 529 321 499 c 256
 446 466 548 406 548 248 c 256
 548 125 459 35 333 35 c 256
 195 35 111 105 111 216 c 256
 111 275 154 321 217 325 c 256
 222 325 l 258
 239 325 256 320 273 317 c 257
 276 316 278 316 280 316 c 256
 291 316 299 321 302 333 c 256
 302 335 303 337 303 338 c 256
 303 350 294 358 277 364 c 256
 241 378 223 390 223 411 c 256
 223 426 237 437 254 437 c 256
 257 437 260 436 262 435 c 256
 293 428 305 397 346 397 c 256
 358 397 364 407 364 417 c 256
 364 428 358 439 346 439 c 256
 314 439 299 476 248 476 c 256
 204 476 179 449 179 418 c 256
 179 404 184 390 195 377 c 257
 170 389 136 394 102 394 c 256
 84 394 66 392 50 389 c 256
 34 386 27 375 27 365 c 256
 27 353 36 341 52 341 c 256
 55 341 57 342 60 342 c 256
 79 347 97 353 129 353 c 256
 139 353 150 353 163 351 c 257
 131 347 66 308 66 216 c 256
 66 74 170 -12 333 -12 c 256
 490 -12 595 98 595 248 c 256
  PathStart: -2
EndSplineSet
PickledDataWithLists: "(dp1
S'com.schriftgestaltung.Glyphs.lastChange'
p2
S'2017-02-17 11:28:50 +0000'
p3
sS'com.fontlab.hintData'
p4
(dp5
S'vhints'
p6
(lp7
(dp8
S'position'
p9
I150
sS'width'
p10
I100
sa(dp11
g9
I199
sg10
I100
sa(dp12
g9
I405
sg10
I100
sa(dp13
g9
I623
sg10
I89
sa(dp14
g9
I1172
sg10
I96
sa(dp15
g9
I1239
sg10
I106
sasS'hhints'
p16
(lp17
(dp18
g9
I-26
sg10
I104
sa(dp19
g9
I735
sg10
I89
sa(dp20
g9
I772
sg10
I108
sa(dp21
g9
I799
sg10
I91
sa(dp22
g9
I898
sg10
I94
sa(dp23
g9
I986
sg10
I91
sa(dp24
g9
I1237
sg10
I94
sa(dp25
g9
I1800
sg10
I100
sass."
Ligature2: "sin_abvs subtable" sinCa sinMatraI
EndChar

StartChar: sinCIi
Encoding: 33 -1 33
GlifName: sinC_I_i
Width: 621
VWidth: 0
Flags: W
HStem: -26 104 735 89 772 108 799 91 898 94 986 91 1266 75 1633 94 1800 100
VStem: 150 100 199 100 405 100 546 94 860 94 1168 100 1239 106
LayerCount: 2
Fore
SplineSet
595 248 m 256
 595 437 467 501 333 540 c 256
 258 563 132 566 132 678 c 256
 132 766 222 796 308 796 c 256
 444 796 517 751 517 678 c 256
 517 619 466 594 408 594 c 256
 392 594 375 595 358 599 c 257
 392 602 422 633 422 676 c 256
 422 723 379 764 331 764 c 256
 284 764 242 725 242 675 c 256
 242 652 251 629 268 611 c 256
 306 574 375 560 406 560 c 256
 494 560 561 594 561 678 c 256
 561 779 457 841 308 841 c 256
 206 841 88 792 88 678 c 256
 88 538 209 529 321 499 c 256
 446 466 548 406 548 248 c 256
 548 125 459 35 333 35 c 256
 195 35 111 105 111 216 c 256
 111 275 154 321 217 325 c 256
 222 325 l 258
 239 325 256 320 273 317 c 257
 276 316 278 316 280 316 c 256
 291 316 299 321 302 333 c 256
 302 335 303 337 303 338 c 256
 303 350 294 358 277 364 c 256
 241 378 223 390 223 411 c 256
 223 426 237 437 254 437 c 256
 257 437 260 436 262 435 c 256
 293 428 305 397 346 397 c 256
 358 397 364 407 364 417 c 256
 364 428 358 439 346 439 c 256
 314 439 299 476 248 476 c 256
 204 476 179 449 179 418 c 256
 179 404 184 390 195 377 c 257
 170 389 136 394 102 394 c 256
 84 394 66 392 50 389 c 256
 34 386 27 375 27 365 c 256
 27 353 36 341 52 341 c 256
 55 341 57 342 60 342 c 256
 79 347 97 353 129 353 c 256
 139 353 150 353 163 351 c 257
 131 347 66 308 66 216 c 256
 66 74 170 -12 333 -12 c 256
 490 -12 595 98 595 248 c 256
  PathStart: -2
283 675 m 256
 283 702 305 723 331 723 c 256
 359 723 380 703 380 676 c 256
 380 647 359 621 331 621 c 256
 305 621 283 645 283 675 c 256
  PathStart: -2
EndSplineSet
PickledDataWithLists: "(dp1
S'com.schriftgestaltung.Glyphs.lastChange'
p2
S'2017-02-17 11:28:50 +0000'
p3
sS'com.fontlab.hintData'
p4
(dp5
S'vhints'
p6
(lp7
(dp8
S'position'
p9
I150
sS'width'
p10
I100
sa(dp11
g9
I199
sg10
I100
sa(dp12
g9
I405
sg10
I100
sa(dp13
g9
I546
sg10
I94
sa(dp14
g9
I860
sg10
I94
sa(dp15
g9
I1168
sg10
I100
sa(dp16
g9
I1239
sg10
I106
sasS'hhints'
p17
(lp18
(dp19
g9
I-26
sg10
I104
sa(dp20
g9
I735
sg10
I89
sa(dp21
g9
I772
sg10
I108
sa(dp22
g9
I799
sg10
I91
sa(dp23
g9
I898
sg10
I94
sa(dp24
g9
I986
sg10
I91
sa(dp25
g9
I1266
sg10
I75
sa(dp26
g9
I1633
sg10
I94
sa(dp27
g9
I1800
sg10
I100
sass."
Ligature2: "sin_abvs subtable" sinCa sinMatraIi
EndChar

StartChar: sinCa
Encoding: 40 3488 40
GlifName: sinC_a
Width: 560
VWidth: 0
Flags: W
HStem: -26 104 762 108 818 108 845 91 944 94 1032 91 1539 108
VStem: 22 100 277 100 1161 102
LayerCount: 2
Fore
SplineSet
559 310 m 256
 559 565 358 729 145 729 c 256
 99 729 54 721 9 706 c 256
 -4 700 -10 692 -10 683 c 256
 -10 672 -1 661 14 661 c 256
 17 661 21 662 24 663 c 256
 63 675 105 681 145 681 c 256
 335 681 514 552 514 310 c 256
 514 183 437 35 277 35 c 256
 139 35 54 105 54 216 c 256
 54 286 97 341 160 346 c 257
 165 346 l 258
 183 346 200 341 216 337 c 257
 219 337 222 336 224 336 c 256
 235 336 243 342 246 353 c 256
 246 355 246 357 246 359 c 256
 246 370 237 379 220 385 c 256
 184 398 167 411 167 432 c 256
 167 446 181 456 198 456 c 256
 200 456 203 456 206 456 c 256
 236 449 248 417 289 417 c 256
 302 417 307 428 307 437 c 256
 307 448 301 459 289 459 c 256
 257 459 243 497 191 497 c 256
 147 497 122 470 122 439 c 256
 122 425 128 410 139 397 c 257
 113 408 79 414 45 414 c 256
 27 414 10 413 -7 410 c 256
 -23 406 -30 396 -30 386 c 256
 -30 373 -21 362 -5 362 c 256
 -2 362 1 362 3 363 c 256
 22 367 41 374 72 374 c 256
 83 374 94 373 106 372 c 257
 74 367 10 322 10 216 c 256
 10 74 114 -12 277 -12 c 256
 468 -12 559 150 559 310 c 256
  PathStart: -2
EndSplineSet
PickledDataWithLists: "(dp1
S'com.schriftgestaltung.Glyphs.lastChange'
p2
S'2017-02-17 11:28:50 +0000'
p3
sS'com.fontlab.hintData'
p4
(dp5
S'vhints'
p6
(lp7
(dp8
S'position'
p9
I22
sS'width'
p10
I100
sa(dp11
g9
I277
sg10
I100
sa(dp12
g9
I1161
sg10
I102
sasS'hhints'
p13
(lp14
(dp15
g9
I-26
sg10
I104
sa(dp16
g9
I762
sg10
I108
sa(dp17
g9
I818
sg10
I108
sa(dp18
g9
I845
sg10
I91
sa(dp19
g9
I944
sg10
I94
sa(dp20
g9
I1032
sg10
I91
sa(dp21
g9
I1539
sg10
I108
sass."
EndChar

StartChar: sinCha
Encoding: 46 3489 46
GlifName: sinC_ha
Width: 633
VWidth: 0
Flags: W
HStem: -26 100 432 85 779 88 942 94 1030 93 1561 114
VStem: 60 100 299 92 651 104 707 88 1030 99 1086 81 1268 100
LayerCount: 2
Fore
SplineSet
605 216 m 256
 605 293 567 369 498 381 c 256
 490 383 484 383 477 383 c 256
 469 383 461 382 451 381 c 257
 484 395 499 416 499 434 c 256
 499 529 335 513 335 603 c 256
 335 659 400 691 497 691 c 256
 517 691 524 703 524 717 c 256
 524 730 515 741 496 741 c 256
 372 741 288 694 288 605 c 256
 288 488 456 497 456 434 c 256
 456 416 431 399 400 389 c 256
 355 375 313 350 313 288 c 256
 313 229 360 191 419 191 c 256
 476 191 516 230 516 283 c 256
 516 304 509 328 487 343 c 257
 535 335 561 285 561 216 c 256
 561 98 454 32 316 32 c 256
 178 32 71 98 71 216 c 256
 71 286 103 340 167 344 c 257
 172 344 l 258
 189 344 206 340 223 336 c 257
 225 335 228 335 230 335 c 256
 241 335 249 341 251 352 c 256
 252 354 253 356 253 358 c 256
 253 369 244 378 227 384 c 256
 191 397 173 410 173 431 c 256
 173 445 187 456 204 456 c 256
 206 456 209 455 212 455 c 256
 243 448 254 417 296 417 c 256
 308 417 313 427 313 437 c 256
 313 448 307 459 296 459 c 256
 265 459 249 497 201 497 c 256
 159 497 132 463 132 431 c 256
 132 413 140 397 158 383 c 257
 156 383 l 258
 73 383 27 301 27 216 c 256
 27 74 152 -12 316 -12 c 256
 479 -12 605 74 605 216 c 256
  PathStart: -2
352 289 m 256
 352 326 380 344 416 344 c 256
 451 344 481 316 481 283 c 256
 481 248 452 229 419 229 c 256
 382 229 352 254 352 289 c 256
  PathStart: -2
EndSplineSet
PickledDataWithLists: "(dp1
S'com.schriftgestaltung.Glyphs.lastChange'
p2
S'2017-02-17 11:28:50 +0000'
p3
sS'com.fontlab.hintData'
p4
(dp5
S'vhints'
p6
(lp7
(dp8
S'position'
p9
I60
sS'width'
p10
I100
sa(dp11
g9
I299
sg10
I92
sa(dp12
g9
I651
sg10
I104
sa(dp13
g9
I707
sg10
I88
sa(dp14
g9
I1030
sg10
I99
sa(dp15
g9
I1086
sg10
I81
sa(dp16
g9
I1268
sg10
I100
sasS'hhints'
p17
(lp18
(dp19
g9
I-26
sg10
I100
sa(dp20
g9
I432
sg10
I85
sa(dp21
g9
I779
sg10
I88
sa(dp22
g9
I942
sg10
I94
sa(dp23
g9
I1030
sg10
I93
sa(dp24
g9
I1561
sg10
I114
sass."
EndChar

StartChar: sinDa
Encoding: 77 3503 77
GlifName: sinD_a
Width: 545
VWidth: 0
Flags: W
HStem: -26 100 756 98 961 109 1033 100
VStem: 60 100 832 95 905 94
LayerCount: 2
Fore
SplineSet
517 -306 m 256
 517 -295 512 -285 501 -282 c 256
 459 -271 442 -234 442 -171 c 256
 442 -111 459 -26 486 83 c 256
 487 89 488 94 488 100 c 256
 488 119 477 130 469 130 c 256
 466 130 463 128 462 126 c 256
 432 91 375 32 272 32 c 256
 143 32 71 116 71 246 c 256
 71 330 116 457 238 457 c 256
 349 457 392 335 481 335 c 256
 494 335 501 345 501 356 c 256
 501 366 494 378 483 378 c 256
 463 378 430 393 415 418 c 256
 411 424 410 430 410 435 c 256
 410 445 415 452 423 452 c 256
 426 452 430 451 434 448 c 256
 447 441 463 425 485 425 c 256
 498 425 504 435 504 446 c 256
 504 459 496 473 484 473 c 256
 457 473 442 501 413 501 c 256
 391 501 368 479 368 452 c 256
 368 447 369 442 370 437 c 257
 355 451 303 501 238 501 c 256
 94 501 27 370 27 246 c 256
 27 94 109 -12 272 -12 c 256
 348 -12 416 28 437 47 c 257
 411 -53 400 -128 400 -182 c 256
 400 -285 439 -320 493 -332 c 256
 494 -333 496 -333 497 -333 c 256
 510 -333 517 -319 517 -306 c 256
  PathStart: -2
EndSplineSet
PickledDataWithLists: "(dp1
S'com.schriftgestaltung.Glyphs.lastChange'
p2
S'2017-02-17 11:28:50 +0000'
p3
sS'com.fontlab.hintData'
p4
(dp5
S'vhints'
p6
(lp7
(dp8
S'position'
p9
I60
sS'width'
p10
I100
sa(dp11
g9
I832
sg10
I95
sa(dp12
g9
I905
sg10
I94
sasS'hhints'
p13
(lp14
(dp15
g9
I-26
sg10
I100
sa(dp16
g9
I756
sg10
I98
sa(dp17
g9
I961
sg10
I109
sa(dp18
g9
I1033
sg10
I100
sass."
EndChar

StartChar: sinDd.virama
Encoding: 78 -1 78
GlifName: sinD_d.virama
Width: 725
VWidth: 0
Flags: W
HStem: 0 100 746 106 777 61 816 108 843 91 942 94 1030 93 1476 102 1793 108
VStem: 76 100 233 103 408 97 750 100 1474 102
LayerCount: 2
Fore
SplineSet
354 100 m 257
 370 41 437 0 502 0 c 256
 633 0 698 108 698 276 c 256
 698 443 602 577 461 644 c 257
 403 816 277 841 182 841 c 256
 131 841 88 832 66 832 c 256
 40 832 29 819 29 807 c 256
 29 796 38 786 54 786 c 256
 85 786 103 762 103 735 c 256
 103 702 90 685 52 665 c 257
 39 661 33 652 33 643 c 256
 33 632 42 621 56 621 c 256
 59 621 63 622 67 623 c 256
 127 643 185 653 240 653 c 256
 473 653 652 498 652 276 c 256
 652 125 599 44 502 44 c 256
 421 44 376 110 376 204 c 256
 376 215 372 225 354 225 c 256
 336 225 332 215 332 204 c 256
 332 110 286 44 206 44 c 256
 138 44 78 99 78 196 c 256
 78 279 132 344 215 344 c 256
 253 344 263 335 289 330 c 256
 292 330 294 329 297 329 c 256
 308 329 316 335 319 346 c 256
 319 348 319 350 319 352 c 256
 319 363 311 371 295 377 c 256
 242 397 223 408 223 431 c 256
 223 445 237 456 254 456 c 256
 257 456 260 455 262 455 c 256
 293 448 305 417 346 417 c 256
 358 417 364 427 364 437 c 256
 364 448 358 459 346 459 c 256
 316 459 299 497 251 497 c 256
 205 497 181 467 181 437 c 256
 181 422 185 408 195 396 c 257
 170 408 136 413 102 413 c 256
 84 413 66 412 50 408 c 256
 34 406 27 395 27 384 c 256
 27 372 36 361 52 361 c 256
 55 361 57 361 60 362 c 256
 79 366 97 373 129 373 c 256
 139 373 150 372 163 371 c 257
 118 371 34 317 34 196 c 256
 34 68 114 0 206 0 c 256
 277 0 335 42 354 100 c 257
  PathStart: -2
237 698 m 256
 206 698 173 695 140 689 c 257
 146 700 149 712 149 724 c 256
 149 745 141 767 124 786 c 257
 147 790 170 793 192 793 c 256
 305 793 377 725 408 667 c 257
 355 687 298 698 237 698 c 256
  PathStart: -2
EndSplineSet
PickledDataWithLists: "(dp1
S'com.schriftgestaltung.Glyphs.lastChange'
p2
S'2017-02-17 11:28:50 +0000'
p3
sS'com.fontlab.hintData'
p4
(dp5
S'vhints'
p6
(lp7
(dp8
S'position'
p9
I76
sS'width'
p10
I100
sa(dp11
g9
I233
sg10
I103
sa(dp12
g9
I408
sg10
I97
sa(dp13
g9
I750
sg10
I100
sa(dp14
g9
I1474
sg10
I102
sasS'hhints'
p15
(lp16
(dp17
g9
I0
sg10
I100
sa(dp18
g9
I746
sg10
I106
sa(dp19
g9
I777
sg10
I61
sa(dp20
g9
I816
sg10
I108
sa(dp21
g9
I843
sg10
I91
sa(dp22
g9
I942
sg10
I94
sa(dp23
g9
I1030
sg10
I93
sa(dp24
g9
I1476
sg10
I102
sa(dp25
g9
I1793
sg10
I108
sass."
Ligature2: "sin_virama_1 subtable" sinDda sinVirama
EndChar

StartChar: sinDdI
Encoding: 79 -1 79
GlifName: sinD_dI_
Width: 709
VWidth: 0
Flags: W
HStem: 0 100 735 89 772 108 799 91 898 94 986 91 1237 94 1800 100
VStem: 70 100 118 100 405 100 744 100 1178 96 1435 106
LayerCount: 2
Fore
SplineSet
351 100 m 257
 366 41 434 0 499 0 c 256
 622 0 682 79 682 202 c 256
 682 449 417 504 280 540 c 256
 205 560 97 566 97 674 c 256
 97 765 203 796 305 796 c 256
 446 796 521 751 521 678 c 256
 521 619 479 589 434 589 c 256
 392 589 329 597 291 656 c 256
 287 664 279 667 271 667 c 256
 262 667 251 661 251 650 c 256
 251 645 253 641 255 636 c 256
 292 568 368 547 434 547 c 256
 496 547 563 594 563 678 c 256
 563 779 458 841 305 841 c 256
 171 841 52 790 52 674 c 256
 52 537 164 528 268 499 c 256
 393 464 635 406 635 202 c 256
 635 99 587 44 499 44 c 256
 419 44 373 110 373 204 c 256
 373 215 369 225 351 225 c 256
 333 225 329 215 329 204 c 256
 329 110 284 44 203 44 c 256
 135 44 75 95 75 186 c 256
 75 284 154 321 217 325 c 256
 222 325 l 258
 239 325 256 320 273 317 c 257
 276 316 278 316 280 316 c 256
 291 316 299 321 302 333 c 256
 302 335 302 337 302 338 c 256
 302 350 294 358 277 364 c 256
 241 378 223 390 223 411 c 256
 223 426 237 437 254 437 c 256
 257 437 260 436 262 435 c 256
 293 428 305 397 346 397 c 256
 358 397 364 407 364 417 c 256
 364 428 358 439 346 439 c 256
 314 439 299 476 248 476 c 256
 204 476 179 449 179 418 c 256
 179 404 184 390 195 377 c 257
 170 389 136 394 102 394 c 256
 83 394 66 392 50 389 c 256
 34 386 27 375 27 365 c 256
 27 353 36 341 52 341 c 256
 55 341 57 342 60 342 c 256
 79 347 97 353 129 353 c 256
 139 353 150 353 163 351 c 257
 122 344 31 305 31 186 c 256
 31 65 112 0 203 0 c 256
 275 0 333 42 351 100 c 257
  PathStart: -2
EndSplineSet
PickledDataWithLists: "(dp1
S'com.schriftgestaltung.Glyphs.lastChange'
p2
S'2017-02-17 11:28:50 +0000'
p3
sS'com.fontlab.hintData'
p4
(dp5
S'vhints'
p6
(lp7
(dp8
S'position'
p9
I70
sS'width'
p10
I100
sa(dp11
g9
I118
sg10
I100
sa(dp12
g9
I405
sg10
I100
sa(dp13
g9
I744
sg10
I100
sa(dp14
g9
I1178
sg10
I96
sa(dp15
g9
I1435
sg10
I106
sasS'hhints'
p16
(lp17
(dp18
g9
I0
sg10
I100
sa(dp19
g9
I735
sg10
I89
sa(dp20
g9
I772
sg10
I108
sa(dp21
g9
I799
sg10
I91
sa(dp22
g9
I898
sg10
I94
sa(dp23
g9
I986
sg10
I91
sa(dp24
g9
I1237
sg10
I94
sa(dp25
g9
I1800
sg10
I100
sass."
Ligature2: "sin_abvs subtable" sinDda sinMatraI
EndChar

StartChar: sinDdIi
Encoding: 80 -1 80
GlifName: sinD_dI_i
Width: 709
VWidth: 0
Flags: W
HStem: 0 100 735 89 772 108 799 91 898 94 986 91 1257 84 1633 94 1800 100
VStem: 70 100 118 100 405 100 511 94 744 100 825 94 1173 100 1435 106
LayerCount: 2
Fore
SplineSet
351 100 m 257
 366 41 434 0 499 0 c 256
 622 0 682 79 682 202 c 256
 682 449 417 504 280 540 c 256
 205 560 97 566 97 674 c 256
 97 766 203 796 305 796 c 256
 446 796 519 751 519 678 c 256
 519 619 462 594 403 594 c 256
 387 594 366 596 349 600 c 257
 380 605 406 636 406 676 c 256
 406 723 364 764 316 764 c 256
 268 764 226 725 226 675 c 256
 226 653 234 631 251 613 c 256
 288 573 355 556 404 556 c 256
 484 556 563 591 563 678 c 256
 563 779 458 841 305 841 c 256
 171 841 52 790 52 674 c 256
 52 537 164 528 268 499 c 256
 393 464 635 406 635 202 c 256
 635 99 587 44 499 44 c 256
 419 44 373 110 373 204 c 256
 373 215 369 225 351 225 c 256
 333 225 329 215 329 204 c 256
 329 110 284 44 203 44 c 256
 135 44 75 95 75 186 c 256
 75 284 154 321 217 325 c 256
 222 325 l 258
 239 325 256 320 273 317 c 257
 276 316 278 316 280 316 c 256
 291 316 299 321 302 333 c 256
 302 335 302 337 302 338 c 256
 302 350 294 358 277 364 c 256
 241 378 223 390 223 411 c 256
 223 426 237 437 254 437 c 256
 257 437 260 436 262 435 c 256
 293 428 305 397 346 397 c 256
 358 397 364 407 364 417 c 256
 364 428 358 439 346 439 c 256
 314 439 299 476 248 476 c 256
 204 476 179 449 179 418 c 256
 179 404 184 390 195 377 c 257
 170 389 136 394 102 394 c 256
 83 394 66 392 50 389 c 256
 34 386 27 375 27 365 c 256
 27 353 36 341 52 341 c 256
 55 341 57 342 60 342 c 256
 79 347 97 353 129 353 c 256
 139 353 150 353 163 351 c 257
 122 344 31 305 31 186 c 256
 31 65 112 0 203 0 c 256
 275 0 333 42 351 100 c 257
  PathStart: -2
268 675 m 256
 268 702 289 723 316 723 c 256
 344 723 365 703 365 676 c 256
 365 647 344 621 316 621 c 256
 289 621 268 645 268 675 c 256
  PathStart: -2
EndSplineSet
PickledDataWithLists: "(dp1
S'com.schriftgestaltung.Glyphs.lastChange'
p2
S'2017-02-17 11:28:50 +0000'
p3
sS'com.fontlab.hintData'
p4
(dp5
S'vhints'
p6
(lp7
(dp8
S'position'
p9
I70
sS'width'
p10
I100
sa(dp11
g9
I118
sg10
I100
sa(dp12
g9
I405
sg10
I100
sa(dp13
g9
I511
sg10
I94
sa(dp14
g9
I744
sg10
I100
sa(dp15
g9
I825
sg10
I94
sa(dp16
g9
I1173
sg10
I100
sa(dp17
g9
I1435
sg10
I106
sasS'hhints'
p18
(lp19
(dp20
g9
I0
sg10
I100
sa(dp21
g9
I735
sg10
I89
sa(dp22
g9
I772
sg10
I108
sa(dp23
g9
I799
sg10
I91
sa(dp24
g9
I898
sg10
I94
sa(dp25
g9
I986
sg10
I91
sa(dp26
g9
I1257
sg10
I84
sa(dp27
g9
I1633
sg10
I94
sa(dp28
g9
I1800
sg10
I100
sass."
Ligature2: "sin_abvs subtable" sinDda sinMatraIi
EndChar

StartChar: sinDda
Encoding: 87 3497 87
GlifName: sinD_da
Width: 725
VWidth: 0
Flags: W
LayerCount: 2
Fore
SplineSet
354 100 m 257
 370 41 437 0 502 0 c 256
 633 0 698 108 698 276 c 256
 698 552 462 734 215 734 c 256
 160 734 105 725 52 706 c 256
 39 702 33 693 33 684 c 256
 33 672 42 662 56 662 c 256
 59 662 63 662 67 664 c 256
 117 681 167 689 218 689 c 256
 443 689 652 525 652 276 c 256
 652 125 599 44 502 44 c 256
 422 44 376 110 376 204 c 256
 376 215 372 225 354 225 c 256
 336 225 332 215 332 204 c 256
 332 110 286 44 206 44 c 256
 138 44 78 99 78 196 c 256
 78 279 132 344 215 344 c 256
 253 344 263 335 289 330 c 256
 292 330 294 329 297 329 c 256
 308 329 316 335 319 346 c 256
 319 348 319 350 319 352 c 256
 319 363 311 371 295 377 c 256
 242 397 223 408 223 431 c 256
 223 445 237 456 254 456 c 256
 257 456 260 455 262 455 c 256
 293 448 305 417 346 417 c 256
 358 417 364 427 364 437 c 256
 364 448 358 459 346 459 c 256
 316 459 299 497 251 497 c 256
 205 497 181 467 181 437 c 256
 181 422 185 408 195 396 c 257
 170 408 136 413 102 413 c 256
 84 413 66 412 50 408 c 256
 34 406 27 395 27 384 c 256
 27 372 36 361 52 361 c 256
 55 361 57 361 60 362 c 256
 79 366 97 373 129 373 c 256
 139 373 150 372 163 371 c 257
 118 371 34 317 34 196 c 256
 34 68 114 0 206 0 c 256
 277 0 335 42 354 100 c 257
  PathStart: -2
EndSplineSet
PickledDataWithLists: "(dp1
S'com.schriftgestaltung.Glyphs.lastChange'
p2
S'2017-02-17 11:28:50 +0000'
p3
s."
EndChar

StartChar: sinDdha
Encoding: 94 3498 94
GlifName: sinD_dha
Width: 725
VWidth: 0
Flags: W
HStem: 0 100 746 106 777 61 816 108 843 91 921 94 1030 93
VStem: 76 100 408 97 754 91 1474 102
LayerCount: 2
Fore
SplineSet
354 100 m 257
 370 41 437 0 502 0 c 256
 633 0 698 99 698 254 c 256
 698 441 563 605 476 703 c 256
 455 727 437 746 424 762 c 257
 410 738 397 717 384 698 c 256
 357 653 333 619 333 574 c 256
 333 496 394 455 459 455 c 256
 501 455 545 475 571 515 c 257
 603 470 652 383 652 254 c 256
 652 117 599 44 502 44 c 256
 422 44 376 110 376 204 c 256
 376 215 372 225 354 225 c 256
 336 225 332 215 332 204 c 256
 332 110 286 44 206 44 c 256
 138 44 78 99 78 196 c 256
 78 279 132 344 215 344 c 256
 253 344 263 335 289 330 c 256
 292 330 294 329 297 329 c 256
 308 329 316 335 319 346 c 256
 319 348 319 350 319 352 c 256
 319 363 311 371 295 377 c 256
 242 397 223 408 223 431 c 256
 223 445 237 456 254 456 c 256
 257 456 260 455 262 455 c 256
 291 448 302 408 339 408 c 256
 351 408 357 417 357 428 c 256
 357 439 351 449 339 449 c 256
 310 449 296 497 251 497 c 256
 205 497 181 467 181 437 c 256
 181 422 185 408 195 396 c 257
 170 408 136 413 102 413 c 256
 84 413 66 412 50 408 c 256
 34 406 27 395 27 384 c 256
 27 372 36 361 52 361 c 256
 55 361 57 361 60 362 c 256
 79 366 97 373 129 373 c 256
 139 373 150 372 163 371 c 257
 118 371 34 317 34 196 c 256
 34 68 114 0 206 0 c 256
 277 0 335 42 354 100 c 257
  PathStart: -2
374 574 m 256
 374 614 406 656 433 689 c 257
 462 656 513 599 541 552 c 257
 531 515 494 494 459 494 c 256
 415 494 374 519 374 574 c 256
  PathStart: -2
EndSplineSet
PickledDataWithLists: "(dp1
S'com.schriftgestaltung.Glyphs.lastChange'
p2
S'2017-02-17 11:28:50 +0000'
p3
sS'com.fontlab.hintData'
p4
(dp5
S'vhints'
p6
(lp7
(dp8
S'position'
p9
I76
sS'width'
p10
I100
sa(dp11
g9
I408
sg10
I97
sa(dp12
g9
I754
sg10
I91
sa(dp13
g9
I1474
sg10
I102
sasS'hhints'
p14
(lp15
(dp16
g9
I0
sg10
I100
sa(dp17
g9
I746
sg10
I106
sa(dp18
g9
I777
sg10
I61
sa(dp19
g9
I816
sg10
I108
sa(dp20
g9
I843
sg10
I91
sa(dp21
g9
I921
sg10
I94
sa(dp22
g9
I1030
sg10
I93
sass."
EndChar

StartChar: sinDh.virama
Encoding: 95 -1 95
GlifName: sinD_h.virama
Width: 722
VWidth: 0
Flags: W
HStem: 0 100 833 100 1476 102 1793 108
VStem: 71 100 228 103 745 100 1469 102
LayerCount: 2
Fore
SplineSet
352 100 m 257
 368 41 434 0 500 0 c 256
 630 0 695 108 695 276 c 256
 695 443 600 577 459 644 c 257
 401 816 275 841 180 841 c 256
 129 841 86 832 63 832 c 256
 38 832 27 819 27 807 c 256
 27 796 36 786 52 786 c 256
 83 786 101 762 101 735 c 256
 101 702 88 685 49 665 c 257
 37 661 31 652 31 643 c 256
 31 632 40 621 54 621 c 256
 57 621 60 622 65 623 c 256
 125 643 183 653 237 653 c 256
 471 653 650 498 650 276 c 256
 650 125 597 44 500 44 c 256
 420 44 374 110 374 204 c 256
 374 215 369 225 352 225 c 256
 334 225 330 215 330 204 c 256
 330 110 284 44 204 44 c 256
 136 44 76 105 76 214 c 256
 76 310 129 369 200 369 c 256
 249 369 265 353 278 353 c 256
 287 353 293 366 293 374 c 256
 293 395 257 413 200 413 c 256
 103 413 32 344 32 214 c 256
 32 74 112 0 204 0 c 256
 275 0 333 42 352 100 c 257
  PathStart: -2
235 698 m 256
 204 698 171 695 138 689 c 257
 144 700 147 712 147 724 c 256
 147 745 139 767 122 786 c 257
 145 790 168 793 189 793 c 256
 302 793 375 725 406 667 c 257
 353 687 296 698 235 698 c 256
  PathStart: -2
EndSplineSet
PickledDataWithLists: "(dp1
S'com.schriftgestaltung.Glyphs.lastChange'
p2
S'2017-02-17 11:28:50 +0000'
p3
sS'com.fontlab.hintData'
p4
(dp5
S'vhints'
p6
(lp7
(dp8
S'position'
p9
I71
sS'width'
p10
I100
sa(dp11
g9
I228
sg10
I103
sa(dp12
g9
I745
sg10
I100
sa(dp13
g9
I1469
sg10
I102
sasS'hhints'
p14
(lp15
(dp16
g9
I0
sg10
I100
sa(dp17
g9
I833
sg10
I100
sa(dp18
g9
I1476
sg10
I102
sa(dp19
g9
I1793
sg10
I108
sass."
Ligature2: "sin_virama_1 subtable" sinDha sinVirama
EndChar

StartChar: sinDhI
Encoding: 96 -1 96
GlifName: sinD_hI_
Width: 704
VWidth: 0
Flags: W
HStem: 0 100 833 100 1237 94 1800 100
VStem: 60 100 108 100 734 100 1168 96 1425 106
LayerCount: 2
Fore
SplineSet
347 100 m 257
 362 41 429 0 495 0 c 256
 617 0 678 79 678 202 c 256
 678 449 413 504 276 540 c 256
 201 560 92 566 92 674 c 256
 92 765 198 796 301 796 c 256
 442 796 517 751 517 678 c 256
 517 619 474 589 430 589 c 256
 388 589 324 597 287 656 c 256
 282 664 274 667 267 667 c 256
 257 667 247 661 247 650 c 256
 247 645 248 641 251 636 c 256
 288 568 364 547 430 547 c 256
 492 547 559 594 559 678 c 256
 559 779 453 841 301 841 c 256
 167 841 48 790 48 674 c 256
 48 537 160 528 263 499 c 256
 389 464 630 406 630 202 c 256
 630 99 583 44 495 44 c 256
 414 44 369 110 369 204 c 256
 369 215 364 225 347 225 c 256
 329 225 324 215 324 204 c 256
 324 110 279 44 198 44 c 256
 131 44 71 105 71 214 c 256
 71 310 124 369 195 369 c 256
 244 369 260 353 273 353 c 256
 282 353 288 366 288 374 c 256
 288 395 253 413 195 413 c 256
 99 413 27 344 27 214 c 256
 27 74 108 0 198 0 c 256
 271 0 329 42 347 100 c 257
  PathStart: -2
EndSplineSet
PickledDataWithLists: "(dp1
S'com.schriftgestaltung.Glyphs.lastChange'
p2
S'2017-02-17 11:28:50 +0000'
p3
sS'com.fontlab.hintData'
p4
(dp5
S'vhints'
p6
(lp7
(dp8
S'position'
p9
I60
sS'width'
p10
I100
sa(dp11
g9
I108
sg10
I100
sa(dp12
g9
I734
sg10
I100
sa(dp13
g9
I1168
sg10
I96
sa(dp14
g9
I1425
sg10
I106
sasS'hhints'
p15
(lp16
(dp17
g9
I0
sg10
I100
sa(dp18
g9
I833
sg10
I100
sa(dp19
g9
I1237
sg10
I94
sa(dp20
g9
I1800
sg10
I100
sass."
Ligature2: "sin_abvs subtable" sinDha sinMatraI
EndChar

StartChar: sinDhIi
Encoding: 97 -1 97
GlifName: sinD_hI_i
Width: 704
VWidth: 0
Flags: W
HStem: 0 100 833 100 1257 84 1633 94 1800 100
VStem: 60 100 108 100 501 94 734 100 815 94 1163 100 1425 106
LayerCount: 2
Fore
SplineSet
347 100 m 257
 362 41 429 0 495 0 c 256
 617 0 678 79 678 202 c 256
 678 449 413 504 276 540 c 256
 201 560 92 566 92 674 c 256
 92 766 198 796 301 796 c 256
 442 796 515 751 515 678 c 256
 515 619 458 594 399 594 c 256
 383 594 362 596 344 600 c 257
 376 605 402 636 402 676 c 256
 402 723 359 764 312 764 c 256
 264 764 222 725 222 675 c 256
 222 653 229 631 246 613 c 256
 284 573 351 556 400 556 c 256
 479 556 559 591 559 678 c 256
 559 779 453 841 301 841 c 256
 167 841 48 790 48 674 c 256
 48 537 160 528 263 499 c 256
 389 464 630 406 630 202 c 256
 630 99 583 44 495 44 c 256
 414 44 369 110 369 204 c 256
 369 215 364 225 347 225 c 256
 329 225 324 215 324 204 c 256
 324 110 279 44 198 44 c 256
 131 44 71 105 71 214 c 256
 71 310 124 369 195 369 c 256
 244 369 260 353 273 353 c 256
 282 353 288 366 288 374 c 256
 288 395 253 413 195 413 c 256
 99 413 27 344 27 214 c 256
 27 74 108 0 198 0 c 256
 271 0 329 42 347 100 c 257
  PathStart: -2
263 675 m 256
 263 702 285 723 312 723 c 256
 339 723 361 703 361 676 c 256
 361 647 339 621 311 621 c 256
 285 621 263 645 263 675 c 256
  PathStart: -2
EndSplineSet
PickledDataWithLists: "(dp1
S'com.schriftgestaltung.Glyphs.lastChange'
p2
S'2017-02-17 11:28:50 +0000'
p3
sS'com.fontlab.hintData'
p4
(dp5
S'vhints'
p6
(lp7
(dp8
S'position'
p9
I60
sS'width'
p10
I100
sa(dp11
g9
I108
sg10
I100
sa(dp12
g9
I501
sg10
I94
sa(dp13
g9
I734
sg10
I100
sa(dp14
g9
I815
sg10
I94
sa(dp15
g9
I1163
sg10
I100
sa(dp16
g9
I1425
sg10
I106
sasS'hhints'
p17
(lp18
(dp19
g9
I0
sg10
I100
sa(dp20
g9
I833
sg10
I100
sa(dp21
g9
I1257
sg10
I84
sa(dp22
g9
I1633
sg10
I94
sa(dp23
g9
I1800
sg10
I100
sass."
Ligature2: "sin_abvs subtable" sinDha sinMatraIi
EndChar

StartChar: sinDha
Encoding: 104 3504 104
GlifName: sinD_ha
Width: 699
VWidth: 0
Flags: W
HStem: 0 100 833 100 1557 102
VStem: 61 100 735 100 1459 102
LayerCount: 2
Fore
SplineSet
347 100 m 257
 364 41 430 0 496 0 c 256
 626 0 691 108 691 276 c 256
 691 552 456 734 208 734 c 256
 153 734 99 725 45 706 c 256
 32 702 27 693 27 684 c 256
 27 672 35 662 49 662 c 256
 52 662 56 662 60 664 c 256
 110 681 161 689 211 689 c 256
 437 689 645 525 645 276 c 256
 645 125 593 44 496 44 c 256
 415 44 369 110 369 204 c 256
 369 215 365 225 347 225 c 256
 330 225 325 215 325 204 c 256
 325 110 279 44 199 44 c 256
 131 44 72 105 72 214 c 256
 72 310 125 369 195 369 c 256
 245 369 260 353 274 353 c 256
 282 353 288 366 288 374 c 256
 288 395 253 413 195 413 c 256
 99 413 27 344 27 214 c 256
 27 74 108 0 199 0 c 256
 271 0 329 42 347 100 c 257
  PathStart: -2
EndSplineSet
PickledDataWithLists: "(dp1
S'com.schriftgestaltung.Glyphs.lastChange'
p2
S'2017-02-17 11:28:50 +0000'
p3
sS'com.fontlab.hintData'
p4
(dp5
S'vhints'
p6
(lp7
(dp8
S'position'
p9
I61
sS'width'
p10
I100
sa(dp11
g9
I735
sg10
I100
sa(dp12
g9
I1459
sg10
I102
sasS'hhints'
p13
(lp14
(dp15
g9
I0
sg10
I100
sa(dp16
g9
I833
sg10
I100
sa(dp17
g9
I1557
sg10
I102
sass."
EndChar

StartChar: sinE
Encoding: 110 3473 110
GlifName: sinE_
Width: 639
VWidth: 0
Flags: W
HStem: -26 104 762 108 818 108 845 91 977 61 977 88
VStem: 150 100 405 100 519 91 1282 101
LayerCount: 2
Fore
SplineSet
612 254 m 256
 612 441 477 605 390 703 c 256
 370 727 351 746 338 762 c 257
 324 738 311 717 299 698 c 256
 269 651 229 594 229 545 c 256
 229 470 285 432 344 432 c 256
 391 432 457 472 486 515 c 257
 518 470 567 383 567 254 c 256
 567 127 494 35 333 35 c 256
 195 35 111 105 111 216 c 256
 111 286 154 341 217 346 c 257
 222 346 l 258
 240 346 256 341 273 337 c 257
 276 337 278 336 280 336 c 256
 291 336 299 342 302 353 c 256
 302 355 303 357 303 359 c 256
 303 370 294 379 277 385 c 256
 241 398 223 411 223 432 c 256
 223 446 237 456 254 456 c 256
 257 456 260 456 262 456 c 256
 283 451 298 432 344 432 c 256
 357 432 363 439 363 445 c 256
 363 453 357 459 346 459 c 256
 314 459 299 497 248 497 c 256
 204 497 179 470 179 439 c 256
 179 425 184 410 195 397 c 257
 170 408 136 414 102 414 c 256
 84 414 66 413 50 410 c 256
 34 406 27 396 27 386 c 256
 27 373 36 362 52 362 c 256
 55 362 57 362 60 363 c 256
 79 367 97 374 129 374 c 256
 139 374 150 373 163 372 c 257
 131 367 66 322 66 216 c 256
 66 74 170 -12 333 -12 c 256
 525 -12 612 94 612 254 c 256
  PathStart: -2
270 545 m 256
 270 589 321 654 347 689 c 257
 377 656 428 599 456 552 c 257
 444 512 384 471 345 471 c 256
 306 471 270 494 270 545 c 256
  PathStart: -2
EndSplineSet
PickledDataWithLists: "(dp1
S'com.schriftgestaltung.Glyphs.lastChange'
p2
S'2017-02-17 11:28:50 +0000'
p3
sS'com.fontlab.hintData'
p4
(dp5
S'vhints'
p6
(lp7
(dp8
S'position'
p9
I150
sS'width'
p10
I100
sa(dp11
g9
I405
sg10
I100
sa(dp12
g9
I519
sg10
I91
sa(dp13
g9
I1282
sg10
I101
sasS'hhints'
p14
(lp15
(dp16
g9
I-26
sg10
I104
sa(dp17
g9
I762
sg10
I108
sa(dp18
g9
I818
sg10
I108
sa(dp19
g9
I845
sg10
I91
sa(dp20
g9
I977
sg10
I61
sa(dp21
g9
I977
sg10
I88
sass."
EndChar

StartChar: sinEe
Encoding: 111 3474 111
GlifName: sinE_e
Width: 639
VWidth: 0
Flags: W
HStem: -26 104 762 108 818 108 845 91 977 61 977 88 1538 80
VStem: 150 100 404 100 519 91 1089 100 1282 101
LayerCount: 2
Fore
SplineSet
612 254 m 256
 612 441 477 605 390 703 c 256
 369 727 351 746 338 762 c 257
 324 738 311 717 299 698 c 256
 269 651 229 594 229 545 c 256
 229 470 285 432 344 432 c 256
 391 432 457 472 486 515 c 257
 518 470 567 383 567 254 c 256
 567 127 494 35 333 35 c 256
 195 35 111 105 111 216 c 256
 111 286 154 341 217 346 c 257
 222 346 l 258
 239 346 256 341 273 337 c 257
 276 337 278 336 280 336 c 256
 291 336 299 342 302 353 c 256
 302 355 302 357 302 359 c 256
 302 370 293 379 277 385 c 256
 241 398 223 411 223 432 c 256
 223 446 237 456 254 456 c 256
 257 456 260 456 262 456 c 256
 283 451 298 432 344 432 c 256
 357 432 363 439 363 445 c 256
 363 453 357 459 346 459 c 256
 314 459 299 497 248 497 c 256
 204 497 178 470 178 439 c 256
 178 425 184 410 195 397 c 257
 170 408 136 414 102 414 c 256
 83 414 66 413 50 410 c 256
 34 406 27 396 27 386 c 256
 27 373 36 362 52 362 c 256
 54 362 57 362 60 363 c 256
 79 367 97 374 129 374 c 256
 139 374 150 373 163 372 c 257
 131 367 66 322 66 216 c 256
 66 74 170 -12 333 -12 c 256
 524 -12 612 94 612 254 c 256
  PathStart: -2
270 545 m 256
 270 589 321 654 347 689 c 257
 377 656 428 599 456 552 c 257
 444 512 384 471 345 471 c 256
 306 471 270 494 270 545 c 256
  PathStart: -2
526 796 m 257
 535 782 568 763 568 740 c 256
 568 733 563 715 542 715 c 256
 535 715 526 717 515 722 c 256
 510 724 507 725 504 725 c 256
 495 725 490 720 490 714 c 256
 490 706 498 695 517 688 c 256
 530 683 543 681 554 681 c 256
 590 681 612 706 612 729 c 256
 612 790 526 802 526 855 c 256
 526 875 515 884 504 884 c 256
 493 884 481 875 481 859 c 258
 481 540 l 257
 526 470 l 257
 526 796 l 257
EndSplineSet
PickledDataWithLists: "(dp1
S'com.schriftgestaltung.Glyphs.lastChange'
p2
S'2017-02-17 11:28:50 +0000'
p3
sS'com.fontlab.hintData'
p4
(dp5
S'vhints'
p6
(lp7
(dp8
S'position'
p9
I150
sS'width'
p10
I100
sa(dp11
g9
I404
sg10
I100
sa(dp12
g9
I519
sg10
I91
sa(dp13
g9
I1089
sg10
I100
sa(dp14
g9
I1282
sg10
I101
sasS'hhints'
p15
(lp16
(dp17
g9
I-26
sg10
I104
sa(dp18
g9
I762
sg10
I108
sa(dp19
g9
I818
sg10
I108
sa(dp20
g9
I845
sg10
I91
sa(dp21
g9
I977
sg10
I61
sa(dp22
g9
I977
sg10
I88
sa(dp23
g9
I1538
sg10
I80
sass."
EndChar

StartChar: sinFa
Encoding: 121 3526 121
GlifName: sinF_a
Width: 765
VWidth: 0
Flags: W
HStem: 0 100 1000 100
VStem: 60 100 814 100 1564 100
LayerCount: 2
Fore
SplineSet
272 21 m 256
 272 32 262 44 246 44 c 256
 145 44 71 133 71 248 c 256
 71 372 139 442 216 442 c 256
 308 442 360 359 360 240 c 256
 360 229 364 218 382 218 c 256
 400 218 404 229 404 240 c 256
 404 359 456 442 546 442 c 256
 624 442 692 372 692 248 c 256
 692 133 617 44 517 44 c 256
 501 44 490 32 490 21 c 256
 490 10 499 0 517 0 c 256
 642 0 736 108 736 248 c 256
 736 404 647 487 546 487 c 256
 468 487 403 436 382 366 c 257
 364 437 290 487 216 487 c 256
 116 487 27 404 27 248 c 256
 27 108 120 0 246 0 c 256
 264 0 272 10 272 21 c 256
  PathStart: -2
EndSplineSet
PickledDataWithLists: "(dp1
S'com.schriftgestaltung.Glyphs.lastChange'
p2
S'2017-02-17 11:28:50 +0000'
p3
sS'com.fontlab.hintData'
p4
(dp5
S'vhints'
p6
(lp7
(dp8
S'position'
p9
I60
sS'width'
p10
I100
sa(dp11
g9
I814
sg10
I100
sa(dp12
g9
I1564
sg10
I100
sasS'hhints'
p13
(lp14
(dp15
g9
I0
sg10
I100
sa(dp16
g9
I1000
sg10
I100
sass."
EndChar

StartChar: sinGa
Encoding: 132 3484 132
GlifName: sinG_a
Width: 750
VWidth: 0
Flags: W
HStem: 0 100 501 92 1000 100
VStem: 60 103 870 100 1479 99 1532 103
LayerCount: 2
Fore
SplineSet
723 243 m 256
 723 421 616 487 507 487 c 256
 380 487 310 408 286 251 c 256
 285 246 285 241 285 236 c 256
 285 226 288 220 299 220 c 256
 309 220 321 222 329 222 c 256
 368 222 385 198 385 159 c 256
 385 107 337 44 243 44 c 256
 152 44 72 102 72 243 c 256
 72 375 150 442 236 442 c 256
 273 442 313 428 346 395 c 256
 349 392 352 391 355 391 c 256
 366 391 377 403 377 413 c 256
 377 422 374 429 367 435 c 256
 324 472 279 487 236 487 c 256
 121 487 27 388 27 243 c 256
 27 66 133 0 243 0 c 256
 377 0 429 88 429 163 c 256
 429 220 400 262 344 262 c 256
 339 262 334 262 329 262 c 257
 344 361 405 442 507 442 c 256
 598 442 678 385 678 243 c 256
 678 111 599 44 513 44 c 256
 473 44 433 60 394 97 c 256
 391 100 387 101 383 101 c 256
 373 101 362 88 362 78 c 256
 362 69 370 63 379 55 c 256
 420 13 470 0 513 0 c 256
 629 0 723 99 723 243 c 256
  PathStart: -2
435 -291 m 256
 591 -280 698 -193 698 -37 c 256
 698 12 684 72 650 103 c 257
 616 74 l 257
 638 54 654 14 654 -37 c 256
 654 -169 550 -236 448 -244 c 256
 438 -245 428 -246 417 -246 c 256
 346 -246 268 -227 202 -190 c 256
 192 -184 184 -180 175 -180 c 256
 161 -180 149 -191 149 -202 c 256
 149 -209 147 -216 154 -220 c 256
 185 -243 298 -292 411 -292 c 256
 419 -292 427 -292 435 -291 c 256
  PathStart: -2
EndSplineSet
PickledDataWithLists: "(dp1
S'com.schriftgestaltung.Glyphs.lastChange'
p2
S'2017-02-17 11:28:50 +0000'
p3
sS'com.fontlab.hintData'
p4
(dp5
S'vhints'
p6
(lp7
(dp8
S'position'
p9
I60
sS'width'
p10
I103
sa(dp11
g9
I870
sg10
I100
sa(dp12
g9
I1479
sg10
I99
sa(dp13
g9
I1532
sg10
I103
sasS'hhints'
p14
(lp15
(dp16
g9
I0
sg10
I100
sa(dp17
g9
I501
sg10
I92
sa(dp18
g9
I1000
sg10
I100
sass."
EndChar

StartChar: sinGha
Encoding: 142 3485 142
GlifName: sinG_ha
Width: 771
VWidth: 0
Flags: W
HStem: 0 100 492 89 746 106 777 61 777 87 816 108 843 91 942 94 1030 93
VStem: 76 100 408 97 645 88 685 100 975 100 1027 88 1245 99 1584 100
LayerCount: 2
Fore
SplineSet
347 69 m 256
 347 103 324 111 324 155 c 256
 324 191 351 218 389 218 c 256
 428 218 454 191 454 155 c 256
 454 111 431 103 431 69 c 256
 431 42 463 0 555 0 c 256
 656 0 745 68 745 196 c 256
 745 287 686 382 589 382 c 256
 585 382 582 382 578 382 c 257
 590 393 595 411 595 428 c 256
 595 443 591 457 585 470 c 256
 583 476 578 483 563 483 c 256
 552 483 543 474 543 465 c 256
 543 462 543 461 544 459 c 256
 549 446 551 437 551 428 c 256
 551 410 541 400 532 393 c 256
 522 386 504 381 484 377 c 256
 467 373 459 364 459 352 c 256
 459 350 459 348 460 346 c 256
 463 335 470 329 481 329 c 256
 484 329 487 330 490 330 c 256
 515 335 526 344 563 344 c 256
 647 344 700 279 700 196 c 256
 700 99 633 44 555 44 c 256
 517 44 476 55 476 75 c 256
 476 94 493 111 493 155 c 256
 493 209 445 257 389 257 c 256
 334 257 285 209 285 155 c 256
 285 111 303 94 303 75 c 256
 303 55 262 44 223 44 c 256
 146 44 78 99 78 196 c 256
 78 279 132 344 215 344 c 256
 253 344 263 335 289 330 c 256
 292 330 294 329 297 329 c 256
 308 329 316 335 319 346 c 256
 319 348 319 350 319 352 c 256
 319 363 311 371 295 377 c 256
 242 397 223 408 223 431 c 256
 223 445 237 456 254 456 c 256
 257 456 260 455 262 455 c 256
 293 448 305 417 346 417 c 256
 358 417 364 427 364 437 c 256
 364 448 358 459 346 459 c 256
 316 459 299 497 251 497 c 256
 205 497 181 467 181 437 c 256
 181 422 185 408 195 396 c 257
 170 408 136 413 102 413 c 256
 84 413 66 412 50 408 c 256
 34 406 27 395 27 384 c 256
 27 372 36 361 52 361 c 256
 55 361 57 361 60 362 c 256
 79 366 97 373 129 373 c 256
 139 373 150 372 163 371 c 257
 118 371 34 317 34 196 c 256
 34 68 123 0 223 0 c 256
 316 0 347 42 347 69 c 256
  PathStart: -2
EndSplineSet
PickledDataWithLists: "(dp1
S'com.schriftgestaltung.Glyphs.lastChange'
p2
S'2017-02-17 11:28:50 +0000'
p3
sS'com.fontlab.hintData'
p4
(dp5
S'vhints'
p6
(lp7
(dp8
S'position'
p9
I76
sS'width'
p10
I100
sa(dp11
g9
I408
sg10
I97
sa(dp12
g9
I645
sg10
I88
sa(dp13
g9
I685
sg10
I100
sa(dp14
g9
I975
sg10
I100
sa(dp15
g9
I1027
sg10
I88
sa(dp16
g9
I1245
sg10
I99
sa(dp17
g9
I1584
sg10
I100
sasS'hhints'
p18
(lp19
(dp20
g9
I0
sg10
I100
sa(dp21
g9
I492
sg10
I89
sa(dp22
g9
I746
sg10
I106
sa(dp23
g9
I777
sg10
I61
sa(dp24
g9
I777
sg10
I87
sa(dp25
g9
I816
sg10
I108
sa(dp26
g9
I843
sg10
I91
sa(dp27
g9
I942
sg10
I94
sa(dp28
g9
I1030
sg10
I93
sass."
EndChar

StartChar: sinHa
Encoding: 152 3524 152
GlifName: sinH_a
Width: 745
VWidth: 0
Flags: W
HStem: 0 100 501 92 779 88 942 94 1000 100 1030 93
VStem: 60 100 300 96 859 100 1521 103
LayerCount: 2
Fore
SplineSet
718 243 m 256
 718 421 611 487 501 487 c 256
 375 487 305 408 281 251 c 256
 280 246 279 240 279 236 c 256
 279 226 282 220 295 220 c 256
 297 220 299 220 302 220 c 256
 310 221 318 222 324 222 c 256
 364 222 380 200 380 150 c 256
 380 102 332 44 238 44 c 256
 147 44 71 105 71 216 c 256
 71 286 104 340 167 344 c 257
 172 344 l 258
 189 344 206 340 223 336 c 256
 225 335 228 335 231 335 c 256
 241 335 249 341 251 352 c 256
 252 354 253 356 253 358 c 256
 253 369 244 378 227 384 c 256
 191 397 175 410 175 431 c 256
 175 445 188 456 204 456 c 256
 206 456 209 455 212 455 c 256
 243 448 254 417 296 417 c 256
 308 417 314 427 314 437 c 256
 314 448 308 459 296 459 c 256
 265 459 249 497 201 497 c 256
 159 497 133 463 133 431 c 256
 133 413 141 397 158 383 c 257
 91 383 27 328 27 216 c 256
 27 72 128 0 238 0 c 256
 305 0 351 20 380 48 c 257
 421 12 467 0 508 0 c 256
 624 0 718 99 718 243 c 256
  PathStart: -2
406 81 m 257
 419 103 424 127 424 150 c 256
 424 214 394 262 339 262 c 256
 335 262 329 262 324 262 c 257
 338 361 400 442 501 442 c 256
 594 442 673 385 673 243 c 256
 673 111 594 44 508 44 c 256
 474 44 440 55 406 81 c 257
  PathStart: -2
EndSplineSet
PickledDataWithLists: "(dp1
S'com.schriftgestaltung.Glyphs.lastChange'
p2
S'2017-02-17 11:28:50 +0000'
p3
sS'com.fontlab.hintData'
p4
(dp5
S'vhints'
p6
(lp7
(dp8
S'position'
p9
I60
sS'width'
p10
I100
sa(dp11
g9
I300
sg10
I96
sa(dp12
g9
I859
sg10
I100
sa(dp13
g9
I1521
sg10
I103
sasS'hhints'
p14
(lp15
(dp16
g9
I0
sg10
I100
sa(dp17
g9
I501
sg10
I92
sa(dp18
g9
I779
sg10
I88
sa(dp19
g9
I942
sg10
I94
sa(dp20
g9
I1000
sg10
I100
sa(dp21
g9
I1030
sg10
I93
sass."
EndChar

StartChar: sinI
Encoding: 153 3465 153
GlifName: sinI_
Width: 666
VWidth: 0
Flags: W
LayerCount: 2
Fore
SplineSet
448 -307 m 256
 448 -226 431 -171 347 -132 c 257
 565 -92 640 55 640 205 c 256
 640 373 532 534 317 534 c 256
 156 534 27 432 27 255 c 256
 27 115 115 -1 269 -1 c 256
 399 -1 466 94 466 177 c 256
 466 265 420 341 312 341 c 256
 271 341 224 313 224 265 c 256
 224 240 240 216 267 216 c 256
 293 216 303 234 303 251 c 256
 303 265 295 279 279 282 c 257
 289 291 300 296 312 296 c 256
 371 296 416 257 416 177 c 256
 416 113 361 47 267 47 c 256
 145 47 74 146 74 254 c 256
 74 411 197 487 317 487 c 256
 501 487 595 353 595 204 c 256
 595 26 459 -90 266 -90 c 256
 250 -90 233 -89 215 -88 c 256
 203 -86 190 -96 190 -109 c 256
 190 -122 202 -131 215 -133 c 256
 365 -152 397 -223 397 -305 c 256
 397 -324 413 -333 422 -333 c 256
 434 -333 448 -324 448 -307 c 256
  PathStart: -2
EndSplineSet
PickledDataWithLists: "(dp1
S'com.schriftgestaltung.Glyphs.lastChange'
p2
S'2017-02-17 11:28:50 +0000'
p3
s."
EndChar

StartChar: sinIi
Encoding: 154 3466 154
GlifName: sinI_i
Width: 571
VWidth: 0
Flags: W
LayerCount: 2
Fore
SplineSet
545 247 m 256
 545 390 435 507 286 507 c 256
 226 507 173 479 134 442 c 257
 180 527 337 705 493 832 c 256
 501 839 505 846 505 853 c 256
 505 864 495 873 483 873 c 256
 476 873 469 871 462 865 c 256
 306 727 175 577 109 479 c 256
 58 402 27 340 27 247 c 256
 27 105 143 -12 286 -12 c 256
 428 -12 545 105 545 247 c 256
  PathStart: -2
71 247 m 256
 71 353 169 463 286 463 c 256
 401 463 501 364 501 247 c 256
 501 128 406 32 286 32 c 256
 167 32 71 126 71 247 c 256
  PathStart: -2
171 634 m 256
 171 675 139 707 99 707 c 256
 59 707 27 675 27 634 c 256
 27 594 59 563 99 563 c 256
 139 563 171 594 171 634 c 256
  PathStart: -2
60 636 m 256
 60 658 77 674 98 674 c 256
 120 674 136 658 136 636 c 256
 136 614 120 597 98 597 c 256
 77 597 60 614 60 636 c 256
  PathStart: -2
519 636 m 256
 519 675 487 708 447 708 c 256
 406 708 375 675 375 636 c 256
 375 596 406 563 447 563 c 256
 487 563 519 596 519 636 c 256
  PathStart: -2
408 637 m 256
 408 658 425 675 446 675 c 256
 467 675 484 658 484 637 c 256
 484 616 467 599 446 599 c 256
 425 599 408 616 408 637 c 256
  PathStart: -2
EndSplineSet
PickledDataWithLists: "(dp1
S'com.schriftgestaltung.Glyphs.lastChange'
p2
S'2017-02-17 11:28:50 +0000'
p3
s."
EndChar

StartChar: sinJa
Encoding: 164 3490 164
GlifName: sinJ_a
Width: 633
VWidth: 0
Flags: W
HStem: -26 100 942 94 1030 93 1561 114
VStem: 60 100 299 92 651 104 1030 99 1268 100
LayerCount: 2
Fore
SplineSet
605 216 m 256
 605 301 559 383 476 383 c 258
 474 383 l 257
 492 397 499 417 499 434 c 256
 499 529 335 513 335 603 c 256
 335 659 400 691 497 691 c 256
 517 691 524 703 524 717 c 256
 524 730 515 741 496 741 c 256
 372 741 288 694 288 605 c 256
 288 488 456 497 456 434 c 256
 456 413 448 397 405 384 c 256
 388 379 379 369 379 358 c 256
 379 356 380 355 380 352 c 256
 383 341 391 335 402 335 c 256
 404 335 406 335 409 336 c 257
 426 340 443 344 460 344 c 258
 465 344 l 257
 528 340 561 286 561 216 c 256
 561 98 454 32 316 32 c 256
 178 32 71 98 71 216 c 256
 71 286 103 340 167 344 c 257
 172 344 l 258
 189 344 206 340 223 336 c 257
 225 335 228 335 230 335 c 256
 241 335 249 341 251 352 c 256
 252 354 253 356 253 358 c 256
 253 369 244 378 227 384 c 256
 191 397 173 410 173 431 c 256
 173 445 187 456 204 456 c 256
 206 456 209 455 212 455 c 256
 243 448 254 417 296 417 c 256
 308 417 313 427 313 437 c 256
 313 448 307 459 296 459 c 256
 265 459 249 497 201 497 c 256
 159 497 132 463 132 431 c 256
 132 413 140 397 158 383 c 257
 156 383 l 258
 73 383 27 301 27 216 c 256
 27 74 152 -12 316 -12 c 256
 479 -12 605 74 605 216 c 256
  PathStart: -2
EndSplineSet
PickledDataWithLists: "(dp1
S'com.schriftgestaltung.Glyphs.lastChange'
p2
S'2017-02-17 11:28:50 +0000'
p3
sS'com.fontlab.hintData'
p4
(dp5
S'vhints'
p6
(lp7
(dp8
S'position'
p9
I60
sS'width'
p10
I100
sa(dp11
g9
I299
sg10
I92
sa(dp12
g9
I651
sg10
I104
sa(dp13
g9
I1030
sg10
I99
sa(dp14
g9
I1268
sg10
I100
sasS'hhints'
p15
(lp16
(dp17
g9
I-26
sg10
I100
sa(dp18
g9
I942
sg10
I94
sa(dp19
g9
I1030
sg10
I93
sa(dp20
g9
I1561
sg10
I114
sass."
EndChar

StartChar: sinJha
Encoding: 174 3491 174
GlifName: sinJ_ha
Width: 1193
VWidth: 0
Flags: W
HStem: 0 100 707 170 786 88 833 100 980 92 1036 101 1557 102
VStem: 81 93 412 81 602 100 1132 106 1812 100 2536 102
LayerCount: 2
Fore
SplineSet
288 80 m 257
 297 37 347 0 403 0 c 256
 470 0 512 36 532 89 c 257
 563 30 617 0 675 0 c 256
 747 0 806 42 824 100 c 257
 840 41 906 0 972 0 c 256
 1102 0 1167 108 1167 276 c 256
 1167 552 932 734 684 734 c 256
 630 734 575 725 521 706 c 256
 509 702 503 693 503 684 c 256
 503 672 512 662 526 662 c 256
 529 662 532 662 537 664 c 256
 586 681 637 689 687 689 c 256
 913 689 1122 525 1122 276 c 256
 1122 125 1069 44 972 44 c 256
 891 44 846 110 846 204 c 256
 846 215 841 225 824 225 c 256
 806 225 802 215 802 204 c 256
 802 110 756 44 675 44 c 256
 608 44 548 105 548 214 c 256
 548 310 601 369 672 369 c 256
 722 369 737 353 750 353 c 256
 759 353 765 366 765 374 c 256
 765 378 763 382 760 386 c 257
 743 422 662 503 498 503 c 256
 379 503 273 450 218 378 c 257
 218 381 218 384 218 386 c 256
 218 439 173 474 126 474 c 256
 74 474 36 430 36 378 c 256
 36 344 56 313 96 313 c 256
 119 313 139 329 139 354 c 256
 139 373 123 389 103 389 c 256
 96 389 88 387 81 381 c 257
 78 378 l 257
 77 380 77 383 77 386 c 256
 77 408 93 434 126 434 c 256
 159 434 182 406 182 372 c 256
 182 356 177 339 166 324 c 258
 27 127 l 257
 77 41 115 0 184 0 c 256
 243 0 280 37 288 80 c 257
  PathStart: -2
78 127 m 257
 179 268 l 258
 226 335 296 348 333 348 c 256
 434 348 501 298 501 177 c 256
 501 109 464 44 403 44 c 256
 338 44 310 88 310 138 c 256
 310 154 310 174 288 174 c 256
 268 174 266 154 266 138 c 256
 266 88 246 43 184 43 c 256
 135 43 100 80 78 127 c 257
  PathStart: -2
344 386 m 256
 316 386 286 379 257 363 c 257
 308 415 383 459 498 459 c 256
 598 459 654 437 688 412 c 257
 683 413 678 413 672 413 c 256
 599 413 540 373 515 297 c 257
 481 355 418 386 344 386 c 256
  PathStart: -2
EndSplineSet
PickledDataWithLists: "(dp1
S'com.schriftgestaltung.Glyphs.lastChange'
p2
S'2017-02-17 11:28:50 +0000'
p3
sS'com.fontlab.hintData'
p4
(dp5
S'vhints'
p6
(lp7
(dp8
S'position'
p9
I81
sS'width'
p10
I93
sa(dp11
g9
I412
sg10
I81
sa(dp12
g9
I602
sg10
I100
sa(dp13
g9
I1132
sg10
I106
sa(dp14
g9
I1812
sg10
I100
sa(dp15
g9
I2536
sg10
I102
sasS'hhints'
p16
(lp17
(dp18
g9
I0
sg10
I100
sa(dp19
g9
I707
sg10
I170
sa(dp20
g9
I786
sg10
I88
sa(dp21
g9
I833
sg10
I100
sa(dp22
g9
I980
sg10
I92
sa(dp23
g9
I1036
sg10
I101
sa(dp24
g9
I1557
sg10
I102
sass."
EndChar

StartChar: sinJnya
Encoding: 188 3493 188
GlifName: sinJ_nya
Width: 1027
VWidth: 0
Flags: W
LayerCount: 2
Fore
SplineSet
1000 -306 m 256
 1000 -295 995 -285 984 -282 c 256
 942 -271 924 -234 924 -171 c 256
 924 -111 941 -26 968 83 c 256
 970 89 970 94 970 100 c 256
 970 119 960 130 952 130 c 256
 948 130 946 128 944 126 c 256
 915 91 857 32 755 32 c 256
 630 32 559 101 559 208 c 256
 559 253 590 322 675 322 c 256
 736 322 762 297 785 271 c 256
 813 240 841 204 896 204 c 256
 952 205 976 243 976 293 c 256
 976 401 874 487 712 487 c 256
 625 487 557 465 507 423 c 257
 506 428 504 432 499 435 c 256
 457 472 411 487 369 487 c 256
 324 487 283 473 249 446 c 257
 246 451 l 257
 231 474 198 487 176 487 c 256
 78 487 27 368 27 233 c 256
 27 69 87 0 142 0 c 256
 168 0 192 17 192 44 c 256
 192 68 175 79 158 79 c 256
 144 79 127 73 127 52 c 257
 127 48 l 257
 94 65 71 136 71 233 c 256
 71 336 106 445 176 445 c 256
 194 445 212 438 222 423 c 258
 223 422 l 257
 183 379 159 317 159 243 c 256
 159 66 265 0 375 0 c 256
 468 0 521 39 546 86 c 257
 583 26 653 -12 755 -12 c 256
 831 -12 899 28 920 47 c 257
 894 -53 883 -128 883 -182 c 256
 883 -285 922 -320 976 -332 c 256
 977 -333 978 -333 979 -333 c 256
 992 -333 1000 -319 1000 -306 c 256
  PathStart: -2
204 243 m 256
 204 375 282 443 369 443 c 256
 406 443 445 428 478 395 c 257
 479 393 l 257
 451 357 430 310 418 251 c 256
 417 246 416 240 416 236 c 256
 416 226 420 220 432 220 c 256
 434 220 437 220 439 220 c 256
 448 221 454 222 461 222 c 256
 501 222 517 200 517 150 c 256
 517 102 469 44 375 44 c 256
 284 44 204 102 204 243 c 256
  PathStart: -2
821 291 m 256
 791 323 765 366 675 366 c 256
 585 366 535 312 521 250 c 257
 508 258 493 262 476 262 c 256
 472 262 466 262 461 262 c 257
 487 378 568 445 712 445 c 256
 845 445 934 380 934 293 c 256
 934 265 924 248 897 248 c 256
 857 248 844 265 821 291 c 256
  PathStart: -2
EndSplineSet
PickledDataWithLists: "(dp1
S'com.schriftgestaltung.Glyphs.lastChange'
p2
S'2017-02-17 11:28:50 +0000'
p3
s."
EndChar

StartChar: sinKAa
Encoding: 190 -1 190
GlifName: sinK_A_a
Width: 799
VWidth: 0
Flags: W
HStem: 0 97 707 170 786 88 980 92 1036 101
VStem: 81 93 412 81 602 100 1132 101 1448 100 1859 100
LayerCount: 2
Fore
SplineSet
288 80 m 257
 297 37 347 0 403 0 c 256
 496 0 546 85 546 177 c 256
 546 313 459 386 344 386 c 256
 316 386 286 379 257 363 c 257
 302 415 361 459 452 459 c 256
 538 459 640 390 640 276 c 256
 640 274 640 271 641 268 c 257
 641 258 649 251 657 249 c 257
 659 248 662 248 664 248 c 256
 665 248 667 248 668 248 c 257
 677 249 685 256 685 267 c 256
 685 275 684 283 684 291 c 256
 684 406 707 453 753 453 c 256
 796 453 822 424 822 289 c 258
 822 218 l 258
 822 133 797 74 739 52 c 256
 726 46 721 38 721 29 c 256
 721 18 731 8 744 8 c 256
 746 8 749 8 753 10 c 256
 824 35 866 96 866 218 c 258
 866 289 l 258
 866 410 841 497 753 497 c 256
 695 497 662 462 648 394 c 257
 605 462 526 503 452 503 c 256
 343 503 268 450 218 378 c 257
 218 381 218 384 218 386 c 256
 218 439 173 474 126 474 c 256
 74 474 36 430 36 378 c 256
 36 344 56 313 96 313 c 256
 119 313 139 329 139 354 c 256
 139 373 123 389 103 389 c 256
 96 389 88 387 81 381 c 257
 78 378 l 257
 77 380 77 383 77 386 c 256
 77 408 93 434 126 434 c 256
 159 434 182 406 182 372 c 256
 182 356 178 339 166 324 c 258
 27 127 l 257
 77 41 115 0 184 0 c 256
 243 0 280 37 288 80 c 257
  PathStart: -2
78 127 m 257
 179 268 l 258
 226 335 296 348 333 348 c 256
 434 348 501 298 501 177 c 256
 501 109 464 44 403 44 c 256
 338 44 310 88 310 138 c 256
 310 154 310 174 288 174 c 256
 268 174 266 154 266 138 c 256
 266 88 246 43 184 43 c 256
 135 43 100 80 78 127 c 257
  PathStart: -2
EndSplineSet
PickledDataWithLists: "(dp1
S'com.schriftgestaltung.Glyphs.lastChange'
p2
S'2017-02-17 11:28:50 +0000'
p3
sS'com.fontlab.hintData'
p4
(dp5
S'vhints'
p6
(lp7
(dp8
S'position'
p9
I81
sS'width'
p10
I93
sa(dp11
g9
I412
sg10
I81
sa(dp12
g9
I602
sg10
I100
sa(dp13
g9
I1132
sg10
I101
sa(dp14
g9
I1448
sg10
I100
sa(dp15
g9
I1859
sg10
I100
sasS'hhints'
p16
(lp17
(dp18
g9
I0
sg10
I97
sa(dp19
g9
I707
sg10
I170
sa(dp20
g9
I786
sg10
I88
sa(dp21
g9
I980
sg10
I92
sa(dp22
g9
I1036
sg10
I101
sass."
EndChar

StartChar: sinKa
Encoding: 210 3482 210
GlifName: sinK_a
Width: 799
VWidth: 0
Flags: W
LayerCount: 2
Fore
SplineSet
288 80 m 257
 297 37 347 0 403 0 c 256
 453 0 483 24 503 45 c 257
 533 16 572 0 614 0 c 256
 713 0 772 102 772 215 c 256
 772 351 684 503 474 503 c 256
 364 503 268 450 218 378 c 257
 218 381 218 384 218 386 c 256
 218 439 173 474 126 474 c 256
 74 474 36 430 36 378 c 256
 36 344 56 313 96 313 c 256
 119 313 139 329 139 354 c 256
 139 373 123 389 103 389 c 256
 96 389 88 387 81 381 c 257
 78 378 l 257
 77 380 77 383 77 386 c 256
 77 408 93 434 126 434 c 256
 159 434 182 406 182 372 c 256
 182 356 178 339 166 324 c 258
 27 127 l 257
 77 41 115 0 184 0 c 256
 243 0 280 37 288 80 c 257
  PathStart: -2
78 127 m 257
 179 268 l 258
 226 335 296 348 333 348 c 256
 434 348 501 298 501 177 c 256
 501 109 464 44 403 44 c 256
 338 44 310 88 310 138 c 256
 310 154 310 174 288 174 c 256
 268 174 266 154 266 138 c 256
 266 88 246 43 184 43 c 256
 135 43 100 80 78 127 c 257
  PathStart: -2
526 78 m 257
 539 104 546 139 546 177 c 256
 546 313 459 386 344 386 c 256
 316 386 286 379 257 363 c 257
 302 415 383 459 474 459 c 256
 658 459 729 329 729 215 c 256
 729 125 684 44 614 44 c 256
 581 44 557 49 526 78 c 257
  PathStart: -2
EndSplineSet
PickledDataWithLists: "(dp1
S'com.schriftgestaltung.Glyphs.lastChange'
p2
S'2017-02-17 11:28:50 +0000'
p3
s."
EndChar

StartChar: sinKh.virama
Encoding: 211 -1 211
GlifName: sinK_h.virama
Width: 622
VWidth: 0
Flags: W
HStem: -26 104 781 88 944 94 1032 93 1539 108
VStem: 105 100 368 92 1244 102
LayerCount: 2
Fore
SplineSet
596 310 m 256
 596 565 394 729 181 729 c 256
 136 729 90 721 46 706 c 256
 32 700 27 692 27 683 c 256
 27 672 36 661 50 661 c 256
 54 661 57 662 60 663 c 256
 100 675 142 681 182 681 c 256
 372 681 550 552 550 310 c 256
 550 183 474 35 313 35 c 256
 175 35 91 105 91 216 c 256
 91 286 134 341 197 346 c 257
 202 346 l 258
 220 346 236 341 253 337 c 257
 256 337 258 336 260 336 c 256
 271 336 279 342 282 353 c 256
 282 355 283 357 283 359 c 256
 283 370 274 379 257 385 c 256
 221 398 204 411 204 432 c 256
 204 446 218 456 234 456 c 256
 237 456 240 456 243 456 c 256
 273 449 285 417 326 417 c 256
 338 417 344 428 344 437 c 256
 344 448 338 459 326 459 c 256
 296 459 279 498 232 498 c 256
 189 498 163 464 163 432 c 256
 163 414 171 397 189 384 c 257
 186 384 l 258
 122 384 46 319 46 216 c 256
 46 74 150 -12 313 -12 c 256
 505 -12 596 150 596 310 c 256
  PathStart: -2
EndSplineSet
PickledDataWithLists: "(dp1
S'com.schriftgestaltung.Glyphs.lastChange'
p2
S'2017-02-17 11:28:50 +0000'
p3
sS'com.fontlab.hintData'
p4
(dp5
S'vhints'
p6
(lp7
(dp8
S'position'
p9
I105
sS'width'
p10
I100
sa(dp11
g9
I368
sg10
I92
sa(dp12
g9
I1244
sg10
I102
sasS'hhints'
p13
(lp14
(dp15
g9
I-26
sg10
I104
sa(dp16
g9
I781
sg10
I88
sa(dp17
g9
I944
sg10
I94
sa(dp18
g9
I1032
sg10
I93
sa(dp19
g9
I1539
sg10
I108
sass."
Ligature2: "sin_virama_1 subtable" sinKha sinVirama
EndChar

StartChar: sinKhI
Encoding: 212 -1 212
GlifName: sinK_hI_
Width: 722
VWidth: 0
Flags: W
HStem: 0 104 140 86 398 109 945 100 1475 102 1792 108
VStem: 98 90 228 103 544 93 709 105 884 100 1469 102
LayerCount: 2
Fore
SplineSet
360 13 m 256
 360 44 375 62 390 62 c 256
 452 62 454 0 529 0 c 256
 615 0 695 75 695 276 c 256
 695 443 600 576 459 643 c 257
 401 816 275 841 180 841 c 256
 129 841 86 832 63 832 c 256
 38 832 27 819 27 807 c 256
 27 796 36 785 52 785 c 256
 83 785 101 762 101 735 c 256
 101 701 88 685 49 665 c 257
 37 661 31 651 31 642 c 256
 31 631 40 620 54 620 c 256
 57 620 60 621 65 622 c 256
 125 643 183 653 237 653 c 256
 471 653 650 497 650 276 c 256
 650 130 598 44 529 44 c 256
 477 44 455 100 401 100 c 256
 394 100 386 99 377 97 c 257
 389 158 435 199 435 303 c 256
 435 395 351 462 255 462 c 256
 133 462 44 359 44 209 c 256
 44 142 52 0 184 0 c 256
 254 0 282 52 282 111 c 256
 282 178 236 224 184 224 c 256
 139 224 98 189 87 169 c 257
 85 181 83 196 83 212 c 256
 83 297 125 418 255 418 c 256
 327 418 391 373 391 303 c 256
 391 177 313 161 313 14 c 256
 313 -3 327 -12 339 -12 c 256
 350 -12 360 -4 360 13 c 256
  PathStart: -2
111 111 m 256
 111 147 140 176 175 176 c 256
 212 176 240 147 240 111 c 256
 240 75 212 46 175 46 c 256
 140 46 111 75 111 111 c 256
  PathStart: -2
235 698 m 256
 204 698 171 695 138 689 c 257
 144 699 147 711 147 724 c 256
 147 745 139 767 122 785 c 257
 145 790 168 793 189 793 c 256
 302 793 375 725 406 667 c 257
 353 687 296 698 235 698 c 256
  PathStart: -2
EndSplineSet
PickledDataWithLists: "(dp1
S'com.schriftgestaltung.Glyphs.lastChange'
p2
S'2017-02-17 11:28:50 +0000'
p3
sS'com.fontlab.hintData'
p4
(dp5
S'vhints'
p6
(lp7
(dp8
S'position'
p9
I98
sS'width'
p10
I90
sa(dp11
g9
I228
sg10
I103
sa(dp12
g9
I544
sg10
I93
sa(dp13
g9
I709
sg10
I105
sa(dp14
g9
I884
sg10
I100
sa(dp15
g9
I1469
sg10
I102
sasS'hhints'
p16
(lp17
(dp18
g9
I0
sg10
I104
sa(dp19
g9
I140
sg10
I86
sa(dp20
g9
I398
sg10
I109
sa(dp21
g9
I945
sg10
I100
sa(dp22
g9
I1475
sg10
I102
sa(dp23
g9
I1792
sg10
I108
sass."
Ligature2: "sin_abvs subtable" sinKha sinMatraI
EndChar

StartChar: sinKhIi
Encoding: 213 -1 213
GlifName: sinK_hI_i
Width: 704
VWidth: 0
Flags: W
HStem: 0 104 398 109 945 100 1237 94 1800 100
VStem: 60 152 108 100 505 93 670 105 845 100 1168 96 1425 106
LayerCount: 2
Fore
SplineSet
343 13 m 256
 343 44 358 60 373 62 c 257
 375 63 378 63 380 63 c 256
 425 63 440 0 512 0 c 256
 597 0 678 38 678 202 c 256
 678 449 413 504 276 540 c 256
 201 560 92 566 92 674 c 256
 92 765 198 796 301 796 c 256
 442 796 517 751 517 678 c 256
 517 619 474 589 430 589 c 256
 388 589 324 597 287 656 c 256
 282 664 274 667 267 667 c 256
 257 667 247 661 247 650 c 256
 247 645 248 641 251 636 c 256
 288 568 364 547 430 547 c 256
 492 547 559 594 559 678 c 256
 559 779 453 841 301 841 c 256
 167 841 48 790 48 674 c 256
 48 537 160 528 263 499 c 256
 389 464 630 406 630 202 c 256
 630 89 580 44 512 44 c 256
 459 44 439 100 383 100 c 256
 375 100 365 99 354 96 c 257
 367 157 418 199 418 303 c 256
 418 395 334 462 237 462 c 256
 117 462 27 359 27 209 c 256
 27 142 35 0 167 0 c 256
 236 0 265 52 265 111 c 256
 265 178 219 224 167 224 c 256
 122 224 81 189 70 169 c 257
 68 181 66 196 66 212 c 256
 66 297 108 418 237 418 c 256
 310 418 374 373 374 303 c 256
 374 177 296 161 296 14 c 256
 296 -3 309 -12 321 -12 c 256
 333 -12 343 -4 343 13 c 256
  PathStart: -2
94 111 m 256
 94 147 122 176 159 176 c 256
 194 176 223 147 223 111 c 256
 223 75 194 46 159 46 c 256
 122 46 94 75 94 111 c 256
  PathStart: -2
EndSplineSet
PickledDataWithLists: "(dp1
S'com.schriftgestaltung.Glyphs.lastChange'
p2
S'2017-02-17 11:28:50 +0000'
p3
sS'com.fontlab.hintData'
p4
(dp5
S'vhints'
p6
(lp7
(dp8
S'position'
p9
I60
sS'width'
p10
I152
sa(dp11
g9
I108
sg10
I100
sa(dp12
g9
I505
sg10
I93
sa(dp13
g9
I670
sg10
I105
sa(dp14
g9
I845
sg10
I100
sa(dp15
g9
I1168
sg10
I96
sa(dp16
g9
I1425
sg10
I106
sasS'hhints'
p17
(lp18
(dp19
g9
I0
sg10
I104
sa(dp20
g9
I398
sg10
I109
sa(dp21
g9
I945
sg10
I100
sa(dp22
g9
I1237
sg10
I94
sa(dp23
g9
I1800
sg10
I100
sass."
Ligature2: "sin_abvs subtable" sinKha sinMatraIi
EndChar

StartChar: sinKhU
Encoding: 218 -1 218
GlifName: sinK_hU_
Width: 704
VWidth: 0
Flags: W
HStem: 0 104 398 109 945 100 1257 84 1633 94 1800 100
VStem: 60 152 108 100 505 93 670 105 815 94 845 100 1163 100 1425 106
LayerCount: 2
Fore
SplineSet
343 13 m 256
 343 44 358 60 373 62 c 257
 375 63 378 63 380 63 c 256
 425 63 440 0 512 0 c 256
 597 0 678 38 678 202 c 256
 678 449 413 504 276 540 c 256
 201 560 92 566 92 674 c 256
 92 765 198 796 301 796 c 256
 442 796 515 751 515 678 c 256
 515 619 458 594 399 594 c 256
 383 594 362 596 344 600 c 257
 376 605 402 636 402 676 c 256
 402 723 359 764 312 764 c 256
 264 764 222 725 222 675 c 256
 222 653 229 631 246 613 c 256
 284 573 351 556 400 556 c 256
 479 556 559 591 559 678 c 256
 559 779 453 841 301 841 c 256
 167 841 48 790 48 674 c 256
 48 537 160 528 263 499 c 256
 389 464 630 406 630 202 c 256
 630 89 580 44 512 44 c 256
 459 44 439 100 383 100 c 256
 375 100 365 99 354 96 c 257
 367 157 418 199 418 303 c 256
 418 395 334 462 237 462 c 256
 117 462 27 359 27 209 c 256
 27 142 35 0 167 0 c 256
 236 0 265 52 265 111 c 256
 265 178 219 224 167 224 c 256
 122 224 81 189 70 169 c 257
 68 181 66 196 66 212 c 256
 66 297 108 418 237 418 c 256
 310 418 374 373 374 303 c 256
 374 177 296 161 296 14 c 256
 296 -3 309 -12 321 -12 c 256
 333 -12 343 -4 343 13 c 256
  PathStart: -2
94 111 m 256
 94 147 122 176 159 176 c 256
 194 176 223 147 223 111 c 256
 223 75 194 46 159 46 c 256
 122 46 94 75 94 111 c 256
  PathStart: -2
263 675 m 256
 263 702 285 723 312 723 c 256
 339 723 361 703 361 676 c 256
 361 647 339 621 311 621 c 256
 285 621 263 645 263 675 c 256
  PathStart: -2
EndSplineSet
PickledDataWithLists: "(dp1
S'com.schriftgestaltung.Glyphs.lastChange'
p2
S'2017-02-17 11:28:50 +0000'
p3
sS'com.fontlab.hintData'
p4
(dp5
S'vhints'
p6
(lp7
(dp8
S'position'
p9
I60
sS'width'
p10
I152
sa(dp11
g9
I108
sg10
I100
sa(dp12
g9
I505
sg10
I93
sa(dp13
g9
I670
sg10
I105
sa(dp14
g9
I815
sg10
I94
sa(dp15
g9
I845
sg10
I100
sa(dp16
g9
I1163
sg10
I100
sa(dp17
g9
I1425
sg10
I106
sasS'hhints'
p18
(lp19
(dp20
g9
I0
sg10
I104
sa(dp21
g9
I398
sg10
I109
sa(dp22
g9
I945
sg10
I100
sa(dp23
g9
I1257
sg10
I84
sa(dp24
g9
I1633
sg10
I94
sa(dp25
g9
I1800
sg10
I100
sass."
Ligature2: "sin_blws subtable" sinKha sinMatraU
EndChar

StartChar: sinKha
Encoding: 220 3483 220
GlifName: sinK_ha
Width: 717
VWidth: 0
Flags: W
LayerCount: 2
Fore
SplineSet
355 13 m 256
 355 44 370 62 386 62 c 256
 448 62 450 0 525 0 c 256
 611 0 691 75 691 276 c 256
 691 548 487 738 231 738 c 256
 171 738 109 729 45 706 c 256
 32 702 27 692 27 683 c 256
 27 672 35 661 49 661 c 256
 52 661 56 662 60 663 c 256
 120 684 178 693 233 693 c 256
 467 693 645 521 645 276 c 256
 645 130 594 44 524 44 c 256
 473 44 451 100 397 100 c 256
 389 100 381 99 372 97 c 257
 384 158 431 199 431 303 c 256
 431 395 347 462 251 462 c 256
 129 462 39 359 39 209 c 256
 39 142 48 0 180 0 c 256
 249 0 277 52 277 111 c 256
 277 178 232 224 180 224 c 256
 134 224 94 189 83 169 c 257
 80 181 79 196 79 212 c 256
 79 297 120 418 251 418 c 256
 322 418 386 373 386 303 c 256
 386 177 309 161 309 14 c 256
 309 -3 322 -12 335 -12 c 256
 345 -12 355 -4 355 13 c 256
  PathStart: -2
106 111 m 256
 106 147 136 176 171 176 c 256
 207 176 236 147 236 111 c 256
 236 75 207 46 171 46 c 256
 136 46 106 75 106 111 c 256
  PathStart: -2
EndSplineSet
PickledDataWithLists: "(dp1
S'com.schriftgestaltung.Glyphs.lastChange'
p2
S'2017-02-17 11:28:50 +0000'
p3
s."
EndChar

StartChar: sinLa
Encoding: 227 3517 227
GlifName: sinL_a
Width: 786
VWidth: 0
Flags: W
HStem: -747 102 -122 100 -26 104 256 165 440 107 523 100 824 86 992 100 1027 102 1438 80 1513 109 1542 106
VStem: -1275 100 -943 100 -553 88 -102 102 60 102 482 100 781 181 1264 100 1390 102 2015 100 2500 88 2748 100 2942 105
LayerCount: 2
Fore
SplineSet
714 -265 m 256
 731 -255 740 -245 740 -235 c 256
 740 -232 738 -229 737 -226 c 256
 734 -220 725 -215 714 -215 c 256
 707 -215 700 -218 692 -222 c 256
 627 -260 558 -285 470 -285 c 256
 246 -285 78 -114 78 91 c 256
 78 335 258 454 419 454 c 256
 566 454 720 387 720 189 c 256
 720 58 637 -10 514 -10 c 256
 423 -10 354 42 354 131 c 256
 354 184 403 232 451 232 c 256
 487 232 524 215 524 177 c 256
 524 175 524 172 524 170 c 257
 521 179 509 187 495 187 c 256
 475 187 461 171 461 152 c 256
 461 129 479 114 510 114 c 256
 543 114 563 142 563 180 c 256
 563 242 510 276 451 276 c 256
 392 276 310 229 310 131 c 256
 310 15 397 -54 514 -54 c 256
 657 -54 766 39 766 189 c 256
 766 370 631 499 419 499 c 256
 237 499 33 366 33 91 c 256
 33 -134 200 -330 470 -330 c 256
 560 -330 658 -301 714 -265 c 256
  PathStart: -2
EndSplineSet
PickledDataWithLists: "(dp1
S'com.schriftgestaltung.Glyphs.lastChange'
p2
S'2017-02-17 11:28:50 +0000'
p3
sS'com.fontlab.hintData'
p4
(dp5
S'vhints'
p6
(lp7
(dp8
S'position'
p9
I-1275
sS'width'
p10
I100
sa(dp11
g9
I-943
sg10
I100
sa(dp12
g9
I-553
sg10
I88
sa(dp13
g9
I-102
sg10
I102
sa(dp14
g9
I60
sg10
I102
sa(dp15
g9
I482
sg10
I100
sa(dp16
g9
I781
sg10
I181
sa(dp17
g9
I1264
sg10
I100
sa(dp18
g9
I1390
sg10
I102
sa(dp19
g9
I2015
sg10
I100
sa(dp20
g9
I2500
sg10
I88
sa(dp21
g9
I2748
sg10
I100
sa(dp22
g9
I2942
sg10
I105
sasS'hhints'
p23
(lp24
(dp25
g9
I-747
sg10
I102
sa(dp26
g9
I-122
sg10
I100
sa(dp27
g9
I-26
sg10
I104
sa(dp28
g9
I256
sg10
I165
sa(dp29
g9
I440
sg10
I107
sa(dp30
g9
I523
sg10
I100
sa(dp31
g9
I824
sg10
I86
sa(dp32
g9
I992
sg10
I100
sa(dp33
g9
I1027
sg10
I102
sa(dp34
g9
I1438
sg10
I80
sa(dp35
g9
I1513
sg10
I109
sa(dp36
g9
I1542
sg10
I106
sass."
EndChar

StartChar: sinLla
Encoding: 233 3525 233
GlifName: sinL_la
Width: 655
VWidth: 0
Flags: W
HStem: -753 102 -7 105 300 207 775 98 1012 101
VStem: 60 102 303 88 804 147 1021 97
LayerCount: 2
Fore
SplineSet
616 -253 m 256
 625 -246 627 -238 627 -232 c 256
 627 -220 618 -212 607 -212 c 256
 602 -212 596 -213 591 -218 c 256
 544 -257 483 -288 400 -288 c 256
 211 -288 72 -140 72 37 c 256
 72 126 105 189 134 223 c 257
 134 219 l 258
 134 107 213 -3 346 -3 c 256
 439 -3 495 58 495 133 c 256
 495 175 461 224 409 224 c 256
 381 224 355 201 355 172 c 256
 355 157 362 145 375 138 c 256
 380 134 386 133 392 133 c 256
 403 133 414 139 421 150 c 256
 424 156 426 162 426 167 c 256
 426 174 424 180 421 184 c 257
 443 174 452 156 452 136 c 256
 452 81 418 44 342 44 c 256
 234 44 173 141 173 242 c 256
 173 247 173 253 174 259 c 257
 214 305 307 343 380 343 c 256
 445 343 507 328 559 305 c 256
 562 304 565 303 568 303 c 256
 580 303 588 315 588 325 c 256
 588 333 584 339 577 342 c 256
 493 378 475 493 333 493 c 256
 219 493 137 398 134 285 c 257
 62 215 27 141 27 37 c 256
 27 -161 168 -333 400 -333 c 256
 498 -333 566 -300 616 -253 c 256
  PathStart: -2
332 448 m 256
 423 448 446 398 493 367 c 257
 453 380 412 386 374 386 c 256
 302 386 234 364 178 314 c 257
 185 379 251 448 332 448 c 256
  PathStart: -2
EndSplineSet
PickledDataWithLists: "(dp1
S'com.schriftgestaltung.Glyphs.lastChange'
p2
S'2017-02-17 11:28:50 +0000'
p3
sS'com.fontlab.hintData'
p4
(dp5
S'vhints'
p6
(lp7
(dp8
S'position'
p9
I60
sS'width'
p10
I102
sa(dp11
g9
I303
sg10
I88
sa(dp12
g9
I804
sg10
I147
sa(dp13
g9
I1021
sg10
I97
sasS'hhints'
p14
(lp15
(dp16
g9
I-753
sg10
I102
sa(dp17
g9
I-7
sg10
I105
sa(dp18
g9
I300
sg10
I207
sa(dp19
g9
I775
sg10
I98
sa(dp20
g9
I1012
sg10
I101
sass."
EndChar

StartChar: sinM.virama
Encoding: 234 -1 234
GlifName: sinM_.virama
Width: 629
VWidth: 0
Flags: W
HStem: -26 104 434 100 824 86 990 95 1513 109 1840 92 1864 98
VStem: 86 100 230 103 418 100 808 88 949 102 1259 102
LayerCount: 2
Fore
SplineSet
602 293 m 256
 602 433 543 546 454 620 c 257
 462 647 465 670 465 691 c 256
 465 820 337 868 231 868 c 256
 213 868 195 866 179 863 c 256
 132 855 108 855 89 855 c 256
 77 855 67 855 55 855 c 256
 35 855 27 844 27 835 c 256
 27 824 36 814 52 814 c 256
 83 814 102 791 102 764 c 256
 102 730 89 714 50 694 c 257
 37 689 32 681 32 672 c 256
 32 660 41 650 55 650 c 256
 58 650 62 650 66 651 c 256
 105 664 147 670 187 670 c 256
 378 670 557 539 557 293 c 256
 557 173 473 35 312 35 c 256
 176 35 83 122 83 265 c 256
 83 377 156 438 230 438 c 256
 275 438 322 423 350 375 c 257
 331 393 306 403 282 403 c 256
 233 403 185 361 185 300 c 257
 185 240 234 192 293 192 c 256
 350 192 397 240 397 300 c 256
 397 428 305 480 231 480 c 256
 140 480 38 408 38 265 c 256
 38 102 145 -12 312 -12 c 256
 504 -12 602 142 602 293 c 256
  PathStart: -2
229 300 m 256
 229 335 258 364 293 364 c 256
 329 364 358 335 358 300 c 256
 358 265 329 236 293 236 c 256
 258 236 229 265 229 300 c 256
  PathStart: -2
187 717 m 256
 170 717 153 716 137 714 c 257
 144 726 147 739 147 753 c 256
 147 773 139 796 122 814 c 257
 156 821 189 824 219 824 c 256
 335 824 420 773 420 678 c 256
 420 669 419 658 417 647 c 257
 350 693 269 717 187 717 c 256
  PathStart: -2
EndSplineSet
PickledDataWithLists: "(dp1
S'com.schriftgestaltung.Glyphs.lastChange'
p2
S'2017-02-17 11:28:50 +0000'
p3
sS'com.fontlab.hintData'
p4
(dp5
S'vhints'
p6
(lp7
(dp8
S'position'
p9
I86
sS'width'
p10
I100
sa(dp11
g9
I230
sg10
I103
sa(dp12
g9
I418
sg10
I100
sa(dp13
g9
I808
sg10
I88
sa(dp14
g9
I949
sg10
I102
sa(dp15
g9
I1259
sg10
I102
sasS'hhints'
p16
(lp17
(dp18
g9
I-26
sg10
I104
sa(dp19
g9
I434
sg10
I100
sa(dp20
g9
I824
sg10
I86
sa(dp21
g9
I990
sg10
I95
sa(dp22
g9
I1513
sg10
I109
sa(dp23
g9
I1840
sg10
I92
sa(dp24
g9
I1864
sg10
I98
sass."
Ligature2: "sin_virama_1 subtable" sinMa sinVirama
EndChar

StartChar: sinMI
Encoding: 235 -1 235
GlifName: sinM_I_
Width: 588
VWidth: 0
Flags: W
HStem: -26 104 434 100 824 86 990 95 1237 94 1800 100
VStem: 60 100 124 100 392 100 548 89 782 88 1097 96 1164 106
LayerCount: 2
Fore
SplineSet
562 248 m 256
 562 437 434 501 300 540 c 256
 225 563 99 566 99 678 c 256
 99 766 189 796 275 796 c 256
 412 796 485 751 485 678 c 256
 485 619 443 589 399 589 c 256
 364 589 313 597 282 656 c 256
 278 664 271 667 263 667 c 256
 253 667 243 661 243 649 c 256
 243 645 244 641 246 636 c 256
 282 570 342 547 399 547 c 256
 461 547 528 594 528 678 c 256
 528 779 424 841 275 841 c 256
 173 841 55 792 55 678 c 256
 55 538 176 529 288 499 c 256
 413 466 515 406 515 248 c 256
 515 125 426 35 300 35 c 256
 164 35 71 122 71 265 c 256
 71 377 145 438 218 438 c 256
 263 438 311 423 338 375 c 257
 319 393 295 403 271 403 c 256
 221 403 173 361 173 300 c 256
 173 240 222 192 282 192 c 256
 338 192 385 240 385 300 c 256
 385 428 293 480 219 480 c 256
 128 480 27 408 27 265 c 256
 27 102 133 -12 300 -12 c 256
 456 -12 562 98 562 248 c 256
  PathStart: -2
218 300 m 256
 218 335 246 364 282 364 c 256
 317 364 346 335 346 300 c 256
 346 265 317 236 282 236 c 256
 246 236 218 265 218 300 c 256
  PathStart: -2
EndSplineSet
PickledDataWithLists: "(dp1
S'com.schriftgestaltung.Glyphs.lastChange'
p2
S'2017-02-17 11:28:50 +0000'
p3
sS'com.fontlab.hintData'
p4
(dp5
S'vhints'
p6
(lp7
(dp8
S'position'
p9
I60
sS'width'
p10
I100
sa(dp11
g9
I124
sg10
I100
sa(dp12
g9
I392
sg10
I100
sa(dp13
g9
I548
sg10
I89
sa(dp14
g9
I782
sg10
I88
sa(dp15
g9
I1097
sg10
I96
sa(dp16
g9
I1164
sg10
I106
sasS'hhints'
p17
(lp18
(dp19
g9
I-26
sg10
I104
sa(dp20
g9
I434
sg10
I100
sa(dp21
g9
I824
sg10
I86
sa(dp22
g9
I990
sg10
I95
sa(dp23
g9
I1237
sg10
I94
sa(dp24
g9
I1800
sg10
I100
sass."
Ligature2: "sin_abvs subtable" sinMa sinMatraI
EndChar

StartChar: sinMIi
Encoding: 236 -1 236
GlifName: sinM_I_i
Width: 588
VWidth: 0
Flags: W
HStem: -26 104 434 100 824 86 990 95 1266 75 1633 94 1800 100
VStem: 60 100 124 100 392 100 471 94 782 88 1093 100 1164 106
LayerCount: 2
Fore
SplineSet
562 248 m 256
 562 437 434 501 300 540 c 256
 225 563 99 566 99 678 c 256
 99 766 189 796 275 796 c 256
 411 796 484 751 484 678 c 256
 484 619 433 594 375 594 c 256
 358 594 341 595 325 599 c 257
 359 602 389 633 389 676 c 256
 389 723 346 764 298 764 c 256
 251 764 209 725 209 675 c 256
 209 652 218 629 235 611 c 256
 273 574 342 560 372 560 c 256
 461 560 528 594 528 678 c 256
 528 779 424 841 275 841 c 256
 173 841 55 792 55 678 c 256
 55 538 176 529 288 499 c 256
 413 466 515 406 515 248 c 256
 515 125 426 35 300 35 c 256
 164 35 71 122 71 265 c 256
 71 377 145 438 218 438 c 256
 263 438 311 423 338 375 c 257
 319 393 295 403 271 403 c 256
 221 403 173 361 173 300 c 256
 173 240 222 192 282 192 c 256
 338 192 385 240 385 300 c 256
 385 428 293 480 219 480 c 256
 128 480 27 408 27 265 c 256
 27 102 133 -12 300 -12 c 256
 456 -12 562 98 562 248 c 256
  PathStart: -2
218 300 m 256
 218 335 246 364 282 364 c 256
 317 364 346 335 346 300 c 256
 346 265 317 236 282 236 c 256
 246 236 218 265 218 300 c 256
  PathStart: -2
250 675 m 256
 250 702 271 723 298 723 c 256
 326 723 347 703 347 676 c 256
 347 647 326 621 298 621 c 256
 271 621 250 645 250 675 c 256
  PathStart: -2
EndSplineSet
PickledDataWithLists: "(dp1
S'com.schriftgestaltung.Glyphs.lastChange'
p2
S'2017-02-17 11:28:50 +0000'
p3
sS'com.fontlab.hintData'
p4
(dp5
S'vhints'
p6
(lp7
(dp8
S'position'
p9
I60
sS'width'
p10
I100
sa(dp11
g9
I124
sg10
I100
sa(dp12
g9
I392
sg10
I100
sa(dp13
g9
I471
sg10
I94
sa(dp14
g9
I782
sg10
I88
sa(dp15
g9
I1093
sg10
I100
sa(dp16
g9
I1164
sg10
I106
sasS'hhints'
p17
(lp18
(dp19
g9
I-26
sg10
I104
sa(dp20
g9
I434
sg10
I100
sa(dp21
g9
I824
sg10
I86
sa(dp22
g9
I990
sg10
I95
sa(dp23
g9
I1266
sg10
I75
sa(dp24
g9
I1633
sg10
I94
sa(dp25
g9
I1800
sg10
I100
sass."
Ligature2: "sin_abvs subtable" sinMa sinMatraIi
EndChar

StartChar: sinMa
Encoding: 243 3512 243
GlifName: sinM_a
Width: 623
VWidth: 0
Flags: W
LayerCount: 2
Fore
SplineSet
597 293 m 256
 597 552 395 717 182 717 c 256
 136 717 90 710 46 694 c 256
 32 689 27 681 27 672 c 256
 27 660 36 650 50 650 c 256
 54 650 57 650 60 651 c 256
 100 664 142 670 182 670 c 256
 372 670 552 539 552 293 c 256
 552 173 468 35 307 35 c 256
 171 35 77 122 77 265 c 256
 77 377 152 438 225 438 c 256
 270 438 318 423 345 375 c 257
 326 393 302 403 278 403 c 256
 228 403 180 361 180 300 c 256
 180 240 229 192 288 192 c 256
 345 192 392 240 392 300 c 256
 392 428 300 480 226 480 c 256
 135 480 33 408 33 265 c 256
 33 102 139 -12 307 -12 c 256
 499 -12 597 142 597 293 c 256
  PathStart: -2
224 300 m 256
 224 335 253 364 288 364 c 256
 324 364 352 335 352 300 c 256
 352 265 324 236 288 236 c 256
 253 236 224 265 224 300 c 256
  PathStart: -2
EndSplineSet
PickledDataWithLists: "(dp1
S'com.schriftgestaltung.Glyphs.lastChange'
p2
S'2017-02-17 11:28:50 +0000'
p3
s."
EndChar

StartChar: sinMatraAa
Encoding: 244 3535 244
GlifName: sinM_atraA_a
Width: 272
VWidth: 0
Flags: W
HStem: 18 98 1023 100
VStem: -35 101 393 100
LayerCount: 2
Fore
SplineSet
104 10 m 256
 176 35 218 96 218 218 c 258
 218 289 l 258
 218 411 198 499 94 499 c 256
 42 499 -15 468 -15 368 c 256
 -15 359 -15 350 -15 341 c 256
 -14 329 -4 324 6 324 c 256
 17 324 27 328 27 339 c 256
 27 347 26 355 26 362 c 256
 26 428 49 455 94 455 c 256
 143 455 174 425 174 289 c 258
 174 218 l 258
 174 135 149 78 90 56 c 257
 77 49 72 39 72 29 c 256
 72 18 82 8 94 8 c 256
 98 8 101 8 104 10 c 256
  PathStart: -2
EndSplineSet
PickledDataWithLists: "(dp1
S'com.schriftgestaltung.Glyphs.lastChange'
p2
S'2017-02-17 11:28:50 +0000'
p3
sS'com.fontlab.hintData'
p4
(dp5
S'vhints'
p6
(lp7
(dp8
S'position'
p9
I-35
sS'width'
p10
I101
sa(dp11
g9
I393
sg10
I100
sasS'hhints'
p12
(lp13
(dp14
g9
I18
sg10
I98
sa(dp15
g9
I1023
sg10
I100
sass."
EndChar

StartChar: sinMatraAae
Encoding: 246 3537 246
GlifName: sinM_atraA_ae
Width: 616
VWidth: 0
Flags: W
HStem: 0 100
VStem: -125 91 -125 176 302 95 1233 91
LayerCount: 2
Fore
SplineSet
585 254 m 256
 587 261 589 268 589 274 c 256
 589 280 588 285 583 288 c 256
 577 291 573 293 568 293 c 256
 559 293 550 285 546 269 c 256
 505 145 413 44 307 44 c 256
 212 44 175 110 175 198 c 256
 175 209 175 219 176 229 c 257
 177 232 l 257
 177 253 159 270 131 270 c 256
 111 270 103 260 96 243 c 257
 56 171 l 257
 23 244 l 258
 14 264 -1 269 -12 269 c 256
 -37 269 -55 247 -55 224 c 258
 -55 184 l 258
 -55 174 -44 167 -35 167 c 256
 -24 167 -15 175 -15 187 c 258
 -15 192 l 258
 -15 196 -11 200 -8 200 c 257
 32 119 l 257
 38 108 46 104 55 104 c 256
 63 104 73 110 79 122 c 256
 86 136 128 207 134 220 c 257
 133 214 133 205 133 195 c 256
 133 124 148 0 307 0 c 256
 446 0 557 130 585 254 c 256
  PathStart: -2
EndSplineSet
PickledDataWithLists: "(dp1
S'com.schriftgestaltung.Glyphs.lastChange'
p2
S'2017-02-17 11:28:50 +0000'
p3
sS'com.fontlab.hintData'
p4
(dp5
S'vhints'
p6
(lp7
(dp8
S'position'
p9
I-125
sS'width'
p10
I91
sa(dp11
g9
I-125
sg10
I176
sa(dp12
g9
I302
sg10
I95
sa(dp13
g9
I1233
sg10
I91
sasS'hhints'
p14
(lp15
(dp16
g9
I0
sg10
I100
sass."
EndChar

StartChar: sinMatraAe
Encoding: 247 3536 247
GlifName: sinM_atraA_e
Width: 532
VWidth: 0
Flags: W
HStem: 0 100
VStem: -110 91 860 91
LayerCount: 2
Fore
SplineSet
511 215 m 257
 512 220 513 225 513 229 c 256
 513 235 512 240 506 244 c 256
 501 247 496 248 491 248 c 256
 481 248 475 242 472 227 c 256
 450 129 373 50 272 50 c 256
 157 50 68 151 68 255 c 256
 68 268 66 282 46 282 c 256
 27 282 28 267 28 255 c 256
 28 126 128 7 266 7 c 256
 410 7 484 114 511 215 c 257
  PathStart: -2
EndSplineSet
PickledDataWithLists: "(dp1
S'com.schriftgestaltung.Glyphs.lastChange'
p2
S'2017-02-17 11:28:50 +0000'
p3
sS'com.fontlab.hintData'
p4
(dp5
S'vhints'
p6
(lp7
(dp8
S'position'
p9
I-110
sS'width'
p10
I91
sa(dp11
g9
I860
sg10
I91
sasS'hhints'
p12
(lp13
(dp14
g9
I0
sg10
I100
sass."
EndChar

StartChar: sinMatraAi
Encoding: 249 -1 249
GlifName: sinM_atraA_i
Width: 998
VWidth: 0
Flags: W
HStem: -32 100 -23 104 250 99 434 107 706 93 986 100 1042 100 1536 106
VStem: 106 96 368 94 630 161 967 102 967 102 1389 100 1688 181 2171 100
LayerCount: 2
Fore
SplineSet
473 187 m 256
 473 297 394 353 309 353 c 256
 243 353 163 308 163 218 c 256
 163 161 201 111 268 111 c 256
 316 111 350 139 350 181 c 256
 350 207 334 224 313 224 c 256
 293 224 279 207 279 190 c 256
 279 178 287 158 300 158 c 257
 296 164 l 257
 291 159 282 154 269 154 c 256
 232 154 204 184 204 220 c 256
 204 282 256 313 307 313 c 256
 373 313 428 271 428 188 c 256
 428 94 358 36 267 36 c 256
 155 36 89 125 89 216 c 256
 89 385 223 461 346 461 c 256
 437 461 524 415 574 372 c 257
 578 369 583 368 587 368 c 256
 601 368 616 379 616 392 c 256
 616 403 604 410 590 419 c 256
 506 473 438 507 338 505 c 256
 184 504 47 400 47 212 c 256
 47 102 121 -10 267 -10 c 256
 390 -10 473 70 473 187 c 256
  PathStart: -2
EndSplineSet
Refer: 251 3545 N 1 0 0 1 441 -3 2
PickledDataWithLists: "(dp1
S'com.schriftgestaltung.Glyphs.lastChange'
p2
S'2017-02-17 11:28:50 +0000'
p3
sS'com.fontlab.hintData'
p4
(dp5
S'vhints'
p6
(lp7
(dp8
S'position'
p9
I106
sS'width'
p10
I96
sa(dp11
g9
I368
sg10
I94
sa(dp12
g9
I630
sg10
I161
sa(dp13
g9
I967
sg10
I102
sa(dp14
g9
I967
sg10
I102
sa(dp15
g9
I1389
sg10
I100
sa(dp16
g9
I1688
sg10
I181
sa(dp17
g9
I2171
sg10
I100
sasS'hhints'
p18
(lp19
(dp20
g9
I-32
sg10
I100
sa(dp21
g9
I-23
sg10
I104
sa(dp22
g9
I250
sg10
I99
sa(dp23
g9
I434
sg10
I107
sa(dp24
g9
I706
sg10
I93
sa(dp25
g9
I986
sg10
I100
sa(dp26
g9
I1042
sg10
I100
sa(dp27
g9
I1536
sg10
I106
sass."
EndChar

StartChar: sinMatraE
Encoding: 251 3545 251
GlifName: sinM_atraE_
Width: 592
VWidth: 0
Flags: W
HStem: -26 100 440 107 992 100 1542 106
VStem: -28 102 394 100 693 181 1176 100
LayerCount: 2
Fore
SplineSet
512 182 m 256
 512 293 435 357 344 357 c 256
 275 357 201 308 201 226 c 256
 201 164 239 111 307 111 c 256
 354 111 389 139 389 181 c 256
 389 207 372 224 351 224 c 256
 331 224 317 207 317 190 c 256
 317 178 326 158 339 158 c 257
 335 164 l 257
 329 159 321 154 308 154 c 256
 271 154 245 188 245 227 c 256
 245 277 287 313 345 313 c 256
 412 313 466 269 466 184 c 256
 466 93 396 37 305 37 c 256
 189 37 121 133 121 232 c 256
 121 373 245 456 359 456 c 256
 392 456 437 448 471 438 c 257
 475 437 479 437 481 437 c 256
 496 437 508 445 508 459 c 256
 508 470 501 481 483 485 c 256
 440 496 406 501 355 501 c 256
 218 499 77 391 77 230 c 256
 77 97 159 -10 296 -10 c 256
 425 -10 512 69 512 182 c 256
  PathStart: -2
EndSplineSet
PickledDataWithLists: "(dp1
S'com.schriftgestaltung.Glyphs.lastChange'
p2
S'2017-02-17 11:28:50 +0000'
p3
sS'com.fontlab.hintData'
p4
(dp5
S'vhints'
p6
(lp7
(dp8
S'position'
p9
I-28
sS'width'
p10
I102
sa(dp11
g9
I394
sg10
I100
sa(dp12
g9
I693
sg10
I181
sa(dp13
g9
I1176
sg10
I100
sasS'hhints'
p14
(lp15
(dp16
g9
I-26
sg10
I100
sa(dp17
g9
I440
sg10
I107
sa(dp18
g9
I992
sg10
I100
sa(dp19
g9
I1542
sg10
I106
sass."
EndChar

StartChar: sinMatraI
Encoding: 253 3538 253
GlifName: sinM_atraI_
Width: 3
VWidth: 0
Flags: W
HStem: 1222 100 1366 95 1900 100
VStem: -926 100 -98 98
LayerCount: 2
Fore
SplineSet
-183 560 m 256
 -183 571 -195 585 -211 585 c 256
 -316 585 -366 645 -366 703 c 256
 -366 779 -285 841 -202 841 c 256
 -117 841 -44 791 -44 716 c 256
 -44 672 -86 647 -121 647 c 256
 -139 647 -159 647 -182 667 c 256
 -185 671 -189 672 -195 672 c 256
 -205 672 -213 667 -213 656 c 256
 -213 650 -210 644 -206 639 c 256
 -186 611 -153 605 -121 605 c 256
 -68 605 0 646 0 716 c 256
 0 818 -88 885 -202 885 c 256
 -309 885 -410 802 -410 703 c 256
 -410 621 -344 541 -211 541 c 256
 -191 541 -183 550 -183 560 c 256
  PathStart: -2
EndSplineSet
PickledDataWithLists: "(dp1
S'com.schriftgestaltung.Glyphs.lastChange'
p2
S'2017-02-17 11:28:50 +0000'
p3
sS'com.fontlab.hintData'
p4
(dp5
S'vhints'
p6
(lp7
(dp8
S'position'
p9
I-926
sS'width'
p10
I100
sa(dp11
g9
I-98
sg10
I98
sasS'hhints'
p12
(lp13
(dp14
g9
I1222
sg10
I100
sa(dp15
g9
I1366
sg10
I95
sa(dp16
g9
I1900
sg10
I100
sass."
EndChar

StartChar: sinMatraIi
Encoding: 258 3539 258
GlifName: sinM_atraI_i
Width: 0
VWidth: 0
Flags: W
HStem: 1222 100 1366 102 1685 97 1900 100
VStem: -1060 100 -681 97 -362 95 -223 89
LayerCount: 2
Fore
SplineSet
-243 560 m 256
 -243 571 -254 585 -270 585 c 256
 -375 585 -425 645 -425 703 c 256
 -425 796 -344 841 -261 841 c 256
 -174 841 -99 792 -99 723 c 256
 -99 683 -127 664 -127 664 c 257
 -121 675 -118 689 -118 701 c 256
 -118 746 -154 788 -211 788 c 256
 -264 788 -302 746 -302 700 c 256
 -302 633 -253 605 -193 605 c 256
 -134 605 -59 646 -59 727 c 256
 -59 809 -147 885 -261 885 c 256
 -369 885 -469 819 -469 703 c 256
 -469 621 -403 541 -270 541 c 256
 -250 541 -243 550 -243 560 c 256
  PathStart: -2
-258 698 m 256
 -258 726 -239 745 -211 745 c 256
 -179 745 -160 727 -160 698 c 256
 -160 667 -181 650 -211 650 c 256
 -239 650 -258 669 -258 698 c 256
  PathStart: -2
EndSplineSet
PickledDataWithLists: "(dp1
S'com.schriftgestaltung.Glyphs.lastChange'
p2
S'2017-02-17 11:28:50 +0000'
p3
sS'com.fontlab.hintData'
p4
(dp5
S'vhints'
p6
(lp7
(dp8
S'position'
p9
I-1060
sS'width'
p10
I100
sa(dp11
g9
I-681
sg10
I97
sa(dp12
g9
I-362
sg10
I95
sa(dp13
g9
I-223
sg10
I89
sasS'hhints'
p14
(lp15
(dp16
g9
I1222
sg10
I100
sa(dp17
g9
I1366
sg10
I102
sa(dp18
g9
I1685
sg10
I97
sa(dp19
g9
I1900
sg10
I100
sass."
EndChar

StartChar: sinMatraLs
Encoding: 264 3551 264
GlifName: sinM_atraL_s
Width: 393
VWidth: 0
Flags: W
HStem: 0 100 474 91 606 91 1000 97
VStem: 205 92 257 100 538 98 683 100
LayerCount: 2
Fore
SplineSet
347 160 m 256
 347 229 318 308 253 308 c 256
 195 308 199 250 169 250 c 256
 150 250 131 291 131 348 c 256
 131 414 151 442 189 442 c 256
 215 442 238 423 238 392 c 256
 238 388 238 384 238 380 c 256
 238 369 248 364 258 364 c 256
 268 364 280 369 282 382 c 256
 282 386 282 391 282 395 c 256
 282 451 237 485 189 485 c 256
 139 485 91 446 91 347 c 256
 91 271 119 209 169 209 c 256
 218 209 228 268 253 268 c 256
 293 268 302 203 302 160 c 256
 302 94 282 44 223 44 c 256
 192 44 158 63 158 107 c 256
 158 123 147 131 136 131 c 256
 125 131 114 123 114 107 c 256
 114 50 149 0 223 0 c 256
 310 0 347 70 347 160 c 256
  PathStart: -2
EndSplineSet
PickledDataWithLists: "(dp1
S'com.schriftgestaltung.Glyphs.lastChange'
p2
S'2017-02-17 11:28:50 +0000'
p3
sS'com.fontlab.hintData'
p4
(dp5
S'vhints'
p6
(lp7
(dp8
S'position'
p9
I205
sS'width'
p10
I92
sa(dp11
g9
I257
sg10
I100
sa(dp12
g9
I538
sg10
I98
sa(dp13
g9
I683
sg10
I100
sasS'hhints'
p14
(lp15
(dp16
g9
I0
sg10
I100
sa(dp17
g9
I474
sg10
I91
sa(dp18
g9
I606
sg10
I91
sa(dp19
g9
I1000
sg10
I97
sass."
EndChar

StartChar: sinMatraR
Encoding: 267 3544 267
GlifName: sinM_atraR_
Width: 765
VWidth: 0
Flags: W
LayerCount: 2
Fore
SplineSet
282 215 m 258
 282 287 l 258
 282 408 254 495 160 495 c 256
 79 495 48 449 48 366 c 256
 48 357 48 348 49 338 c 256
 49 324 61 318 72 318 c 256
 83 318 93 324 93 337 c 256
 93 344 92 352 92 360 c 256
 92 424 114 451 160 451 c 256
 207 451 237 422 237 287 c 258
 237 251 l 257
 224 258 209 262 194 262 c 256
 120 262 109 214 109 161 c 256
 109 140 111 118 111 98 c 256
 111 63 105 35 76 29 c 257
 63 29 58 18 58 10 c 256
 58 -1 67 -12 80 -12 c 256
 204 -12 282 100 282 215 c 258
  PathStart: -2
150 90 m 256
 150 110 148 133 148 153 c 256
 148 189 155 220 192 220 c 256
 207 220 224 214 237 204 c 257
 234 137 209 65 140 38 c 257
 148 51 150 69 150 90 c 256
  PathStart: -2
EndSplineSet
PickledDataWithLists: "(dp1
S'com.schriftgestaltung.Glyphs.lastChange'
p2
S'2017-02-17 11:28:50 +0000'
p3
s."
EndChar

StartChar: sinMatraU
Encoding: 269 3540 269
GlifName: sinM_atraU_
Width: 0
VWidth: 0
Flags: HW
HStem: -752 100
VStem: -1163 100 -224 100
LayerCount: 2
Fore
SplineSet
-14 -303 m 258
 9 -303 25 -292 25 -272 c 258
 25 198 l 261
 -19 198 l 261
 -19 -230 l 258
 -19 -249 -24 -258 -42 -258 c 258
 -253 -258 l 258
 -341 -258 -390 -225 -390 -157 c 256
 -390 -115 -369 -77 -350 -28 c 256
 -348 -25 -348 -22 -348 -19 c 256
 -348 -6 -360 2 -372 2 c 256
 -379 2 -386 -2 -389 -9 c 256
 -410 -58 -435 -109 -435 -157 c 256
 -435 -243 -370 -303 -253 -303 c 258
 -14 -303 l 258
EndSplineSet
PickledDataWithLists: "(dp1
S'com.schriftgestaltung.Glyphs.lastChange'
p2
S'2017-02-17 11:28:50 +0000'
p3
sS'com.fontlab.hintData'
p4
(dp5
S'vhints'
p6
(lp7
(dp8
S'position'
p9
I-1163
sS'width'
p10
I100
sa(dp11
g9
I-224
sg10
I100
sasS'hhints'
p12
(lp13
(dp14
g9
I-752
sg10
I100
sass."
EndChar

StartChar: sinMatraU.alt
Encoding: 270 -1 270
GlifName: sinM_atraU_.alt
Width: 0
VWidth: 0
Flags: W
LayerCount: 2
Fore
SplineSet
-85 -288 m 256
 -77 -282 -74 -275 -74 -268 c 256
 -74 -256 -83 -245 -94 -245 c 256
 -99 -245 -104 -247 -109 -251 c 256
 -135 -271 -164 -289 -205 -289 c 256
 -288 -289 -335 -229 -335 -156 c 256
 -335 -102 -305 -44 -238 -44 c 256
 -218 -44 -209 -32 -209 -21 c 256
 -209 -10 -218 1 -238 1 c 256
 -333 1 -380 -77 -380 -156 c 256
 -380 -248 -311 -333 -205 -333 c 256
 -151 -333 -111 -309 -85 -288 c 256
  PathStart: -2
EndSplineSet
PickledDataWithLists: "(dp1
S'com.schriftgestaltung.Glyphs.lastChange'
p2
S'2017-02-17 11:28:50 +0000'
p3
s."
EndChar

StartChar: sinMatraUu
Encoding: 274 3542 274
GlifName: sinM_atraU_u
Width: 0
VWidth: 0
Flags: W
HStem: -753 100
VStem: -1163 100 -561 79 -224 100
LayerCount: 2
Fore
SplineSet
-55 -302 m 258
 -55 107 l 257
 -99 107 l 257
 -99 -268 l 257
 -121 -231 -186 -159 -227 -119 c 256
 -234 -111 -241 -109 -247 -109 c 256
 -258 -109 -266 -117 -266 -128 c 256
 -266 -132 -265 -137 -260 -142 c 256
 -251 -153 -248 -173 -248 -183 c 256
 -248 -251 -293 -289 -359 -289 c 256
 -423 -289 -470 -256 -470 -187 c 256
 -470 -146 -449 -107 -430 -58 c 256
 -428 -55 -428 -52 -428 -49 c 256
 -428 -37 -440 -29 -452 -29 c 256
 -459 -29 -466 -32 -469 -39 c 256
 -490 -88 -515 -140 -515 -187 c 256
 -515 -274 -451 -333 -359 -333 c 256
 -248 -333 -213 -261 -213 -201 c 256
 -213 -195 -214 -187 -215 -180 c 257
 -192 -206 -156 -251 -122 -313 c 256
 -111 -330 -94 -333 -83 -333 c 256
 -66 -333 -55 -324 -55 -302 c 258
  PathStart: -2
EndSplineSet
PickledDataWithLists: "(dp1
S'com.schriftgestaltung.Glyphs.lastChange'
p2
S'2017-02-17 11:28:50 +0000'
p3
sS'com.fontlab.hintData'
p4
(dp5
S'vhints'
p6
(lp7
(dp8
S'position'
p9
I-1163
sS'width'
p10
I100
sa(dp11
g9
I-561
sg10
I79
sa(dp12
g9
I-224
sg10
I100
sasS'hhints'
p13
(lp14
(dp15
g9
I-753
sg10
I100
sass."
EndChar

StartChar: sinMatraUu.alt
Encoding: 275 -1 275
GlifName: sinM_atraU_u.alt
Width: 0
VWidth: 0
Flags: W
LayerCount: 2
Fore
SplineSet
-119 -288 m 256
 -111 -282 -108 -275 -108 -268 c 256
 -108 -256 -117 -245 -129 -245 c 256
 -133 -245 -139 -247 -144 -251 c 256
 -170 -271 -198 -289 -240 -289 c 256
 -323 -289 -370 -251 -370 -205 c 256
 -370 -156 -324 -114 -259 -114 c 256
 -249 -114 -240 -114 -229 -117 c 256
 -226 -117 -223 -117 -221 -117 c 256
 -204 -117 -195 -107 -195 -96 c 256
 -195 -85 -204 -74 -224 -71 c 256
 -246 -68 -286 -50 -298 -38 c 257
 -279 -46 -257 -49 -237 -49 c 256
 -208 -49 -184 -41 -184 -24 c 256
 -184 -16 -189 -10 -200 -10 c 256
 -207 -10 -214 -12 -220 -12 c 256
 -229 -12 -234 -10 -240 -6 c 256
 -258 10 -287 43 -295 43 c 256
 -305 43 -317 39 -317 26 c 256
 -317 0 -285 1 -268 -12 c 257
 -271 -12 -274 -12 -276 -12 c 256
 -288 -12 -293 -10 -307 -7 c 256
 -309 -7 -311 -7 -313 -7 c 256
 -328 -7 -338 -21 -338 -32 c 256
 -338 -60 -291 -80 -278 -84 c 257
 -282 -83 -286 -83 -289 -83 c 256
 -346 -83 -414 -120 -414 -205 c 256
 -414 -271 -346 -333 -240 -333 c 256
 -186 -333 -146 -309 -119 -288 c 256
  PathStart: -2
EndSplineSet
PickledDataWithLists: "(dp1
S'com.schriftgestaltung.Glyphs.lastChange'
p2
S'2017-02-17 11:28:50 +0000'
p3
s."
EndChar

StartChar: sinMb.virama
Encoding: 280 -1 280
GlifName: sinM_b.virama
Width: 717
VWidth: 0
Flags: W
HStem: 0 100 824 86 986 99 1476 102 1793 108
VStem: 62 100 218 103 394 100 586 88 626 100 784 100 892 100 975 88 1459 102
LayerCount: 2
Fore
SplineSet
321 69 m 256
 321 103 298 111 298 155 c 256
 298 191 325 218 364 218 c 256
 403 218 431 191 431 155 c 256
 431 101 394 98 394 68 c 256
 394 38 421 0 497 0 c 256
 634 0 691 139 691 276 c 256
 691 443 596 577 454 644 c 257
 397 816 271 841 175 841 c 256
 125 841 81 832 59 832 c 256
 33 832 22 819 22 807 c 256
 22 796 32 786 47 786 c 256
 78 786 97 762 97 735 c 256
 97 702 83 685 45 665 c 257
 32 661 27 652 27 643 c 256
 27 632 35 621 49 621 c 256
 52 621 56 622 60 623 c 256
 120 643 178 653 233 653 c 256
 467 653 645 498 645 276 c 256
 645 147 592 44 497 44 c 256
 470 44 439 52 439 69 c 256
 439 90 470 102 470 155 c 256
 470 205 427 250 375 257 c 257
 386 279 392 302 392 324 c 256
 392 407 321 480 220 480 c 256
 129 480 27 397 27 234 c 256
 27 136 74 0 212 0 c 256
 293 0 321 42 321 69 c 256
  PathStart: -2
72 234 m 256
 72 364 142 437 229 437 c 256
 300 437 344 394 355 355 c 257
 335 387 302 403 272 403 c 256
 222 403 174 361 174 300 c 256
 174 248 217 205 271 200 c 257
 263 186 260 171 260 155 c 256
 260 111 277 94 277 75 c 256
 277 55 243 44 212 44 c 256
 101 44 72 170 72 234 c 256
  PathStart: -2
218 300 m 256
 218 335 247 364 282 364 c 256
 318 364 347 335 347 300 c 256
 347 265 318 236 282 236 c 256
 247 236 218 265 218 300 c 256
  PathStart: -2
231 698 m 256
 199 698 167 695 133 689 c 257
 139 700 142 712 142 724 c 256
 142 745 134 767 117 786 c 257
 141 790 164 793 185 793 c 256
 298 793 370 725 401 667 c 257
 349 687 291 698 231 698 c 256
  PathStart: -2
EndSplineSet
PickledDataWithLists: "(dp1
S'com.schriftgestaltung.Glyphs.lastChange'
p2
S'2017-02-17 11:28:50 +0000'
p3
sS'com.fontlab.hintData'
p4
(dp5
S'vhints'
p6
(lp7
(dp8
S'position'
p9
I62
sS'width'
p10
I100
sa(dp11
g9
I218
sg10
I103
sa(dp12
g9
I394
sg10
I100
sa(dp13
g9
I586
sg10
I88
sa(dp14
g9
I626
sg10
I100
sa(dp15
g9
I784
sg10
I100
sa(dp16
g9
I892
sg10
I100
sa(dp17
g9
I975
sg10
I88
sa(dp18
g9
I1459
sg10
I102
sasS'hhints'
p19
(lp20
(dp21
g9
I0
sg10
I100
sa(dp22
g9
I824
sg10
I86
sa(dp23
g9
I986
sg10
I99
sa(dp24
g9
I1476
sg10
I102
sa(dp25
g9
I1793
sg10
I108
sass."
Ligature2: "sin_virama_1 subtable" sinMba sinVirama
EndChar

StartChar: sinMbI
Encoding: 281 -1 281
GlifName: sinM_bI_
Width: 717
VWidth: 0
Flags: W
HStem: 0 100 824 86 986 99 1237 94 1800 100
VStem: 62 100 113 100 394 100 586 88 626 100 784 100 892 100 975 88 1172 96 1429 106
LayerCount: 2
Fore
SplineSet
321 69 m 256
 321 103 298 111 298 155 c 256
 298 191 325 218 364 218 c 256
 403 218 431 191 431 155 c 256
 431 101 394 98 394 68 c 256
 394 38 421 0 497 0 c 256
 619 0 679 79 679 202 c 256
 679 449 415 504 278 540 c 256
 202 560 94 566 94 674 c 256
 94 765 201 796 303 796 c 256
 443 796 518 751 518 678 c 256
 518 619 476 589 432 589 c 256
 389 589 326 597 288 656 c 256
 284 664 277 667 269 667 c 256
 259 667 249 661 249 650 c 256
 249 646 250 641 253 636 c 256
 289 568 365 547 432 547 c 256
 494 547 561 594 561 678 c 256
 561 779 455 841 303 841 c 256
 169 841 50 790 50 674 c 256
 50 537 162 528 265 499 c 256
 391 464 632 406 632 202 c 256
 632 99 585 44 497 44 c 256
 470 44 439 52 439 69 c 256
 439 90 470 102 470 155 c 256
 470 205 427 250 375 257 c 257
 386 279 392 302 392 324 c 256
 392 407 321 480 220 480 c 256
 129 480 27 397 27 234 c 256
 27 136 74 0 212 0 c 256
 293 0 321 42 321 69 c 256
  PathStart: -2
72 234 m 256
 72 364 142 437 229 437 c 256
 300 437 344 394 355 355 c 257
 335 387 302 403 272 403 c 256
 222 403 174 361 174 300 c 256
 174 248 217 205 271 200 c 257
 263 186 260 171 260 155 c 256
 260 111 277 94 277 75 c 256
 277 55 243 44 212 44 c 256
 101 44 72 170 72 234 c 256
  PathStart: -2
218 300 m 256
 218 335 247 364 282 364 c 256
 318 364 347 335 347 300 c 256
 347 265 318 236 282 236 c 256
 247 236 218 265 218 300 c 256
  PathStart: -2
EndSplineSet
PickledDataWithLists: "(dp1
S'com.schriftgestaltung.Glyphs.lastChange'
p2
S'2017-02-17 11:28:50 +0000'
p3
sS'com.fontlab.hintData'
p4
(dp5
S'vhints'
p6
(lp7
(dp8
S'position'
p9
I62
sS'width'
p10
I100
sa(dp11
g9
I113
sg10
I100
sa(dp12
g9
I394
sg10
I100
sa(dp13
g9
I586
sg10
I88
sa(dp14
g9
I626
sg10
I100
sa(dp15
g9
I784
sg10
I100
sa(dp16
g9
I892
sg10
I100
sa(dp17
g9
I975
sg10
I88
sa(dp18
g9
I1172
sg10
I96
sa(dp19
g9
I1429
sg10
I106
sasS'hhints'
p20
(lp21
(dp22
g9
I0
sg10
I100
sa(dp23
g9
I824
sg10
I86
sa(dp24
g9
I986
sg10
I99
sa(dp25
g9
I1237
sg10
I94
sa(dp26
g9
I1800
sg10
I100
sass."
Ligature2: "sin_abvs subtable" sinMba sinMatraI
EndChar

StartChar: sinMbIi
Encoding: 282 -1 282
GlifName: sinM_bI_i
Width: 717
VWidth: 0
Flags: W
HStem: 0 100 824 86 986 99 1257 84 1633 94 1800 100
VStem: 62 100 113 100 394 100 506 94 586 88 626 100 784 100 820 94 892 100 975 88 1168 100 1429 106
LayerCount: 2
Fore
SplineSet
321 69 m 256
 321 103 298 111 298 155 c 256
 298 191 325 218 364 218 c 256
 403 218 431 191 431 155 c 256
 431 101 394 98 394 68 c 256
 394 38 421 0 497 0 c 256
 619 0 679 79 679 202 c 256
 679 449 415 504 278 540 c 256
 202 560 94 566 94 674 c 256
 94 766 201 796 303 796 c 256
 443 796 517 751 517 678 c 256
 517 619 460 594 401 594 c 256
 384 594 364 596 347 600 c 257
 378 605 404 636 404 676 c 256
 404 723 361 764 313 764 c 256
 265 764 224 725 224 675 c 256
 224 653 232 631 248 613 c 256
 285 573 353 556 402 556 c 256
 481 556 561 591 561 678 c 256
 561 779 455 841 303 841 c 256
 169 841 50 790 50 674 c 256
 50 537 162 528 265 499 c 256
 391 464 632 406 632 202 c 256
 632 99 585 44 497 44 c 256
 470 44 439 52 439 69 c 256
 439 90 470 102 470 155 c 256
 470 205 427 250 375 257 c 257
 386 279 392 302 392 324 c 256
 392 407 321 480 220 480 c 256
 129 480 27 397 27 234 c 256
 27 136 74 0 212 0 c 256
 293 0 321 42 321 69 c 256
  PathStart: -2
72 234 m 256
 72 364 142 437 229 437 c 256
 300 437 344 394 355 355 c 257
 335 387 302 403 272 403 c 256
 222 403 174 361 174 300 c 256
 174 248 217 205 271 200 c 257
 263 186 260 171 260 155 c 256
 260 111 277 94 277 75 c 256
 277 55 243 44 212 44 c 256
 101 44 72 170 72 234 c 256
  PathStart: -2
218 300 m 256
 218 335 247 364 282 364 c 256
 318 364 347 335 347 300 c 256
 347 265 318 236 282 236 c 256
 247 236 218 265 218 300 c 256
  PathStart: -2
265 675 m 256
 265 702 287 723 313 723 c 256
 341 723 363 703 363 676 c 256
 363 647 341 621 313 621 c 256
 287 621 265 645 265 675 c 256
  PathStart: -2
EndSplineSet
PickledDataWithLists: "(dp1
S'com.schriftgestaltung.Glyphs.lastChange'
p2
S'2017-02-17 11:28:50 +0000'
p3
sS'com.fontlab.hintData'
p4
(dp5
S'vhints'
p6
(lp7
(dp8
S'position'
p9
I62
sS'width'
p10
I100
sa(dp11
g9
I113
sg10
I100
sa(dp12
g9
I394
sg10
I100
sa(dp13
g9
I506
sg10
I94
sa(dp14
g9
I586
sg10
I88
sa(dp15
g9
I626
sg10
I100
sa(dp16
g9
I784
sg10
I100
sa(dp17
g9
I820
sg10
I94
sa(dp18
g9
I892
sg10
I100
sa(dp19
g9
I975
sg10
I88
sa(dp20
g9
I1168
sg10
I100
sa(dp21
g9
I1429
sg10
I106
sasS'hhints'
p22
(lp23
(dp24
g9
I0
sg10
I100
sa(dp25
g9
I824
sg10
I86
sa(dp26
g9
I986
sg10
I99
sa(dp27
g9
I1257
sg10
I84
sa(dp28
g9
I1633
sg10
I94
sa(dp29
g9
I1800
sg10
I100
sass."
Ligature2: "sin_abvs subtable" sinMba sinMatraIi
EndChar

StartChar: sinMba
Encoding: 285 3513 285
GlifName: sinM_ba
Width: 717
VWidth: 0
Flags: W
LayerCount: 2
Fore
SplineSet
321 69 m 256
 321 103 298 111 298 155 c 256
 298 191 325 218 364 218 c 256
 403 218 431 191 431 155 c 256
 431 101 394 98 394 68 c 256
 394 38 421 0 497 0 c 256
 634 0 691 139 691 276 c 256
 691 552 456 734 208 734 c 256
 153 734 99 725 45 706 c 256
 32 702 27 693 27 684 c 256
 27 672 35 662 49 662 c 256
 52 662 56 662 60 664 c 256
 110 681 161 689 211 689 c 256
 437 689 645 525 645 276 c 256
 645 147 592 44 497 44 c 256
 470 44 439 52 439 69 c 256
 439 90 470 102 470 155 c 256
 470 205 427 250 375 257 c 257
 386 279 392 302 392 324 c 256
 392 407 321 480 220 480 c 256
 129 480 27 397 27 234 c 256
 27 136 74 0 212 0 c 256
 293 0 321 42 321 69 c 256
  PathStart: -2
72 234 m 256
 72 364 142 437 229 437 c 256
 300 437 344 394 355 355 c 257
 335 387 302 403 272 403 c 256
 222 403 174 361 174 300 c 256
 174 248 217 205 271 200 c 257
 263 186 260 171 260 155 c 256
 260 111 277 94 277 75 c 256
 277 55 243 44 212 44 c 256
 101 44 72 170 72 234 c 256
  PathStart: -2
218 300 m 256
 218 335 247 364 282 364 c 256
 318 364 347 335 347 300 c 256
 347 265 318 236 282 236 c 256
 247 236 218 265 218 300 c 256
  PathStart: -2
EndSplineSet
PickledDataWithLists: "(dp1
S'com.schriftgestaltung.Glyphs.lastChange'
p2
S'2017-02-17 11:28:50 +0000'
p3
s."
EndChar

StartChar: sinNa
Encoding: 322 3505 322
GlifName: sinN_a
Width: 854
VWidth: 0
Flags: W
LayerCount: 2
Fore
SplineSet
452 60 m 257
 497 16 543 0 606 0 c 256
 762 0 828 111 828 232 c 256
 828 361 740 504 546 504 c 256
 423 504 368 455 298 387 c 257
 291 435 252 475 200 475 c 256
 146 475 106 431 106 378 c 256
 106 344 128 313 164 313 c 256
 193 313 212 330 212 355 c 256
 212 375 196 389 176 389 c 256
 168 389 159 387 151 378 c 257
 151 381 151 383 151 386 c 256
 151 407 167 432 200 432 c 256
 233 432 253 395 253 363 c 256
 253 349 249 336 242 327 c 256
 209 285 149 205 80 205 c 256
 63 205 46 209 27 218 c 257
 68 102 147 0 292 0 c 256
 357 0 403 15 452 60 c 257
  PathStart: -2
91 173 m 257
 94 173 97 172 100 172 c 256
 134 172 183 203 209 229 c 256
 244 264 273 293 326 293 c 256
 386 293 447 257 447 181 c 256
 447 100 395 44 292 44 c 256
 198 44 124 100 91 173 c 257
  PathStart: -2
472 88 m 257
 485 117 492 142 492 181 c 256
 492 280 423 333 330 333 c 256
 320 333 309 331 298 329 c 257
 388 420 447 459 546 459 c 256
 715 459 782 338 782 232 c 256
 782 132 713 44 606 44 c 256
 547 44 512 58 472 88 c 257
  PathStart: -2
EndSplineSet
PickledDataWithLists: "(dp1
S'com.schriftgestaltung.Glyphs.lastChange'
p2
S'2017-02-17 11:28:50 +0000'
p3
s."
EndChar

StartChar: sinNda
Encoding: 333 3507 333
GlifName: sinN_da
Width: 677
VWidth: 0
Flags: W
HStem: -26 100 0 179 756 98 961 109 1033 100
VStem: 60 100 286 147 362 100 1134 95 1207 93
LayerCount: 2
Fore
SplineSet
651 -328 m 256
 651 -317 646 -307 635 -304 c 256
 594 -293 575 -254 575 -187 c 256
 575 -122 592 -32 619 83 c 256
 621 88 622 94 622 100 c 256
 622 119 611 130 602 130 c 256
 600 130 597 128 595 126 c 256
 566 91 508 32 406 32 c 256
 277 32 204 116 204 246 c 256
 204 330 249 457 372 457 c 256
 482 457 526 335 615 335 c 256
 627 335 634 345 634 356 c 256
 634 366 627 378 616 378 c 256
 597 378 563 393 549 418 c 256
 545 424 543 430 543 435 c 256
 543 445 549 452 557 452 c 256
 560 452 563 451 568 448 c 256
 580 441 597 425 619 425 c 256
 632 425 638 435 638 446 c 256
 638 459 630 473 617 473 c 256
 591 473 576 501 546 501 c 256
 525 501 501 479 501 452 c 256
 501 447 503 442 504 437 c 257
 488 451 437 501 372 501 c 256
 320 501 279 484 246 458 c 257
 222 477 191 497 167 497 c 256
 74 497 27 373 27 233 c 256
 27 69 87 0 142 0 c 256
 168 0 192 17 192 44 c 256
 192 68 175 79 158 79 c 256
 144 79 127 73 127 52 c 257
 127 48 l 257
 94 65 71 136 71 233 c 256
 71 341 103 456 167 456 c 256
 187 456 201 442 220 431 c 257
 180 382 160 313 160 246 c 256
 160 94 243 -12 406 -12 c 256
 481 -12 549 28 571 47 c 257
 545 -59 534 -138 534 -195 c 256
 534 -305 573 -342 627 -354 c 256
 627 -355 630 -355 631 -355 c 256
 644 -355 651 -341 651 -328 c 256
  PathStart: -2
EndSplineSet
PickledDataWithLists: "(dp1
S'com.schriftgestaltung.Glyphs.lastChange'
p2
S'2017-02-17 11:28:50 +0000'
p3
sS'com.fontlab.hintData'
p4
(dp5
S'vhints'
p6
(lp7
(dp8
S'position'
p9
I60
sS'width'
p10
I100
sa(dp11
g9
I286
sg10
I147
sa(dp12
g9
I362
sg10
I100
sa(dp13
g9
I1134
sg10
I95
sa(dp14
g9
I1207
sg10
I93
sasS'hhints'
p15
(lp16
(dp17
g9
I-26
sg10
I100
sa(dp18
g9
I0
sg10
I179
sa(dp19
g9
I756
sg10
I98
sa(dp20
g9
I961
sg10
I109
sa(dp21
g9
I1033
sg10
I100
sass."
EndChar

StartChar: sinNdja
Encoding: 342 3494 342
GlifName: sinN_dja
Width: 766
VWidth: 0
Flags: W
HStem: -26 100 0 179 942 94 1030 93 1561 114
VStem: 60 100 286 147 365 100 956 104 1335 99 1573 100
LayerCount: 2
Fore
SplineSet
740 216 m 256
 740 301 694 383 611 383 c 258
 609 383 l 257
 627 397 634 417 634 434 c 256
 634 529 470 513 470 603 c 256
 470 659 535 691 632 691 c 256
 652 691 659 703 659 717 c 256
 659 730 650 741 631 741 c 256
 507 741 423 694 423 605 c 256
 423 488 591 497 591 434 c 256
 591 413 583 397 540 384 c 256
 523 379 514 369 514 358 c 256
 514 356 515 355 515 352 c 256
 518 341 526 335 537 335 c 256
 539 335 541 335 544 336 c 257
 561 340 578 344 595 344 c 258
 600 344 l 257
 663 340 696 286 696 216 c 256
 696 98 589 32 451 32 c 256
 313 32 206 98 206 216 c 256
 206 286 238 340 302 344 c 257
 307 344 l 258
 324 344 341 340 358 336 c 257
 360 335 363 335 365 335 c 256
 376 335 384 341 386 352 c 256
 387 354 388 356 388 358 c 256
 388 369 379 378 362 384 c 256
 326 397 308 410 308 431 c 256
 308 445 322 456 338 456 c 256
 341 456 344 455 347 455 c 256
 378 448 389 417 431 417 c 256
 443 417 448 427 448 437 c 256
 448 448 442 459 431 459 c 256
 400 459 384 497 336 497 c 256
 306 497 285 481 274 459 c 257
 258 476 222 497 192 497 c 256
 83 497 27 373 27 233 c 256
 27 69 87 0 142 0 c 256
 168 0 192 17 192 44 c 256
 192 68 175 79 158 79 c 256
 144 79 127 73 127 52 c 257
 127 48 l 257
 94 65 71 136 71 233 c 256
 71 341 111 456 192 456 c 256
 222 456 254 442 271 409 c 257
 276 400 282 391 293 383 c 257
 291 383 l 258
 208 383 161 301 161 216 c 256
 161 74 287 -12 451 -12 c 256
 614 -12 740 74 740 216 c 256
  PathStart: -2
EndSplineSet
PickledDataWithLists: "(dp1
S'com.schriftgestaltung.Glyphs.lastChange'
p2
S'2017-02-17 11:28:50 +0000'
p3
sS'com.fontlab.hintData'
p4
(dp5
S'vhints'
p6
(lp7
(dp8
S'position'
p9
I60
sS'width'
p10
I100
sa(dp11
g9
I286
sg10
I147
sa(dp12
g9
I365
sg10
I100
sa(dp13
g9
I956
sg10
I104
sa(dp14
g9
I1335
sg10
I99
sa(dp15
g9
I1573
sg10
I100
sasS'hhints'
p16
(lp17
(dp18
g9
I-26
sg10
I100
sa(dp19
g9
I0
sg10
I179
sa(dp20
g9
I942
sg10
I94
sa(dp21
g9
I1030
sg10
I93
sa(dp22
g9
I1561
sg10
I114
sass."
EndChar

StartChar: sinNga
Encoding: 346 3486 346
GlifName: sinN_ga
Width: 717
VWidth: 0
Flags: W
HStem: 0 100 776 88 939 94 1027 93 1557 102
VStem: 61 100 324 92 735 100 1459 102
LayerCount: 2
Fore
SplineSet
347 100 m 257
 364 41 430 0 496 0 c 256
 626 0 691 108 691 276 c 256
 691 552 456 734 208 734 c 256
 153 734 99 725 45 706 c 256
 32 702 27 693 27 684 c 256
 27 672 35 662 49 662 c 256
 52 662 56 662 60 664 c 256
 110 681 161 689 211 689 c 256
 437 689 645 525 645 276 c 256
 645 125 593 44 496 44 c 256
 415 44 369 110 369 204 c 256
 369 215 365 225 347 225 c 256
 330 225 325 215 325 204 c 256
 325 110 279 44 199 44 c 256
 131 44 72 105 72 214 c 256
 72 284 114 339 178 344 c 257
 183 344 l 258
 200 344 217 338 234 335 c 257
 236 335 239 334 241 334 c 256
 252 334 260 340 262 351 c 256
 263 352 264 355 264 357 c 256
 264 368 255 377 238 383 c 256
 202 396 184 408 184 430 c 256
 184 444 198 454 215 454 c 256
 218 454 220 454 223 453 c 256
 254 447 265 415 307 415 c 256
 319 415 324 425 324 435 c 256
 324 446 318 457 307 457 c 256
 276 457 260 496 212 496 c 256
 170 496 143 462 143 430 c 256
 143 412 151 395 169 382 c 257
 167 382 l 258
 103 382 27 317 27 214 c 256
 27 74 108 0 199 0 c 256
 271 0 329 42 347 100 c 257
  PathStart: -2
EndSplineSet
PickledDataWithLists: "(dp1
S'com.schriftgestaltung.Glyphs.lastChange'
p2
S'2017-02-17 11:28:50 +0000'
p3
sS'com.fontlab.hintData'
p4
(dp5
S'vhints'
p6
(lp7
(dp8
S'position'
p9
I61
sS'width'
p10
I100
sa(dp11
g9
I324
sg10
I92
sa(dp12
g9
I735
sg10
I100
sa(dp13
g9
I1459
sg10
I102
sasS'hhints'
p14
(lp15
(dp16
g9
I0
sg10
I100
sa(dp17
g9
I776
sg10
I88
sa(dp18
g9
I939
sg10
I94
sa(dp19
g9
I1027
sg10
I93
sa(dp20
g9
I1557
sg10
I102
sass."
EndChar

StartChar: sinNna
Encoding: 352 3499 352
GlifName: sinN_na
Width: 989
VWidth: 0
Flags: W
LayerCount: 2
Fore
SplineSet
594 251 m 256
 594 271 591 289 588 307 c 257
 588 307 l 257
 585 327 584 344 584 359 c 256
 584 418 604 443 630 443 c 256
 698 443 716 359 716 305 c 256
 716 289 727 282 738 282 c 256
 749 282 760 289 760 305 c 256
 760 366 780 442 832 442 c 256
 901 442 919 316 919 243 c 256
 919 126 879 32 771 32 c 256
 706 32 667 52 667 94 c 256
 667 109 672 122 678 136 c 256
 681 139 682 143 682 147 c 256
 682 154 678 161 670 166 c 256
 668 167 665 168 662 168 c 256
 653 168 641 162 636 155 c 256
 623 132 616 120 616 94 c 256
 616 26 684 -12 771 -12 c 256
 920 -12 962 107 962 243 c 256
 962 394 922 485 832 485 c 256
 793 485 751 459 740 401 c 257
 723 461 681 487 630 487 c 256
 585 487 549 456 549 405 c 257
 549 399 l 257
 506 457 437 491 362 491 c 256
 324 491 294 484 269 470 c 257
 338 569 442 692 552 773 c 256
 558 779 562 787 562 796 c 256
 562 802 559 810 552 816 c 256
 548 818 545 819 541 819 c 256
 534 819 529 810 519 802 c 256
 377 692 206 472 161 364 c 256
 125 279 99 220 68 200 c 256
 44 184 27 183 27 161 c 256
 27 132 60 156 96 119 c 256
 160 53 211 -12 344 -12 c 256
 477 -12 594 77 594 251 c 256
  PathStart: -2
144 134 m 256
 125 158 123 164 102 171 c 257
 129 181 153 239 164 281 c 256
 165 288 167 295 170 302 c 257
 174 225 225 160 305 160 c 256
 377 160 417 201 417 262 c 256
 417 299 390 340 347 340 c 256
 321 340 298 323 298 296 c 256
 298 271 315 260 332 260 c 256
 347 260 361 269 363 284 c 257
 367 282 372 274 372 262 c 256
 372 233 352 204 305 204 c 256
 241 204 208 256 208 309 c 256
 208 393 274 447 362 447 c 256
 468 447 549 355 549 251 c 256
 549 109 453 32 344 32 c 256
 237 32 191 77 144 134 c 256
  PathStart: -2
EndSplineSet
PickledDataWithLists: "(dp1
S'com.schriftgestaltung.Glyphs.lastChange'
p2
S'2017-02-17 11:28:50 +0000'
p3
s."
EndChar

StartChar: sinNndd.virama
Encoding: 353 -1 353
GlifName: sinN_ndd.virama
Width: 866
VWidth: 0
Flags: W
HStem: 0 100 0 179 777 61 839 72 942 94 1022 101 1476 102 1793 108
VStem: 60 100 286 148 399 100 556 103 731 97 1073 100 1797 102
LayerCount: 2
Fore
SplineSet
192 44 m 256
 192 68 175 79 158 79 c 256
 143 79 127 73 127 52 c 257
 127 48 l 257
 94 65 71 136 71 233 c 256
 71 343 111 452 169 452 c 256
 206 452 234 409 257 402 c 257
 249 403 243 403 235 403 c 256
 211 403 189 399 159 389 c 256
 143 384 136 372 136 362 c 256
 136 351 145 341 158 341 c 256
 161 341 164 341 169 342 c 256
 198 353 230 371 288 371 c 256
 293 371 299 371 306 371 c 257
 260 371 176 317 176 196 c 256
 176 68 257 0 349 0 c 256
 420 0 479 42 497 100 c 257
 512 41 580 0 645 0 c 256
 776 0 840 108 840 276 c 256
 840 443 745 577 604 644 c 257
 546 816 420 841 324 841 c 256
 274 841 231 832 209 832 c 256
 183 832 172 819 172 807 c 256
 172 796 181 786 196 786 c 256
 228 786 246 762 246 735 c 256
 246 702 233 685 195 665 c 257
 182 661 176 652 176 643 c 256
 176 632 185 621 199 621 c 256
 202 621 206 622 209 623 c 256
 269 643 328 653 383 653 c 256
 616 653 795 498 795 276 c 256
 795 125 743 44 645 44 c 256
 565 44 519 110 519 204 c 256
 519 215 515 225 497 225 c 256
 479 225 475 215 475 204 c 256
 475 110 429 44 349 44 c 256
 281 44 220 99 220 196 c 256
 220 279 275 344 358 344 c 256
 396 344 406 335 432 330 c 256
 435 330 437 329 439 329 c 256
 451 329 459 335 462 346 c 256
 462 348 462 350 462 352 c 256
 462 363 454 371 437 377 c 256
 384 397 366 408 366 431 c 256
 366 445 380 456 397 456 c 256
 400 456 403 455 406 455 c 256
 436 448 448 417 489 417 c 256
 501 417 507 427 507 437 c 256
 507 448 501 459 489 459 c 256
 459 459 442 497 394 497 c 256
 348 497 324 467 324 437 c 256
 324 422 328 408 338 396 c 257
 264 414 254 497 167 497 c 256
 74 497 27 373 27 233 c 256
 27 69 87 0 142 0 c 256
 168 0 192 17 192 44 c 256
  PathStart: -2
380 698 m 256
 349 698 316 695 283 689 c 257
 289 700 291 712 291 724 c 256
 291 745 284 767 267 786 c 257
 291 790 313 793 335 793 c 256
 448 793 519 725 551 667 c 257
 498 687 441 698 380 698 c 256
  PathStart: -2
EndSplineSet
PickledDataWithLists: "(dp1
S'com.schriftgestaltung.Glyphs.lastChange'
p2
S'2017-02-17 11:28:50 +0000'
p3
sS'com.fontlab.hintData'
p4
(dp5
S'vhints'
p6
(lp7
(dp8
S'position'
p9
I60
sS'width'
p10
I100
sa(dp11
g9
I286
sg10
I148
sa(dp12
g9
I399
sg10
I100
sa(dp13
g9
I556
sg10
I103
sa(dp14
g9
I731
sg10
I97
sa(dp15
g9
I1073
sg10
I100
sa(dp16
g9
I1797
sg10
I102
sasS'hhints'
p17
(lp18
(dp19
g9
I0
sg10
I100
sa(dp20
g9
I0
sg10
I179
sa(dp21
g9
I777
sg10
I61
sa(dp22
g9
I839
sg10
I72
sa(dp23
g9
I942
sg10
I94
sa(dp24
g9
I1022
sg10
I101
sa(dp25
g9
I1476
sg10
I102
sa(dp26
g9
I1793
sg10
I108
sass."
Ligature2: "sin_virama_1 subtable" sinNndda sinVirama
EndChar

StartChar: sinNnddI
Encoding: 354 -1 354
GlifName: sinN_nddI_
Width: 853
VWidth: 0
Flags: W
HStem: 0 100 0 179 736 61 798 72 901 94 981 101 1237 94 1800 100
VStem: 60 100 285 148 399 100 447 100 731 97 1073 100 1507 96 1764 106
LayerCount: 2
Fore
SplineSet
192 44 m 256
 192 68 175 79 158 79 c 256
 143 79 126 73 126 52 c 257
 127 48 l 257
 94 65 71 136 71 233 c 256
 71 334 110 434 169 434 c 256
 206 434 234 391 257 384 c 257
 249 385 242 385 235 385 c 256
 211 385 189 381 159 371 c 256
 145 366 136 366 136 362 c 256
 136 341 145 322 158 322 c 256
 161 322 164 323 169 324 c 256
 198 335 229 353 287 353 c 256
 293 353 299 353 306 352 c 257
 260 352 176 302 176 186 c 256
 176 65 257 0 349 0 c 256
 420 0 479 42 497 100 c 257
 512 41 579 0 645 0 c 256
 767 0 827 79 827 202 c 256
 827 449 563 504 425 540 c 256
 350 560 242 566 242 674 c 256
 242 766 349 796 451 796 c 256
 591 796 667 751 667 678 c 256
 667 619 625 589 580 589 c 256
 538 589 474 597 437 656 c 256
 432 664 424 667 417 667 c 256
 407 667 397 661 397 650 c 256
 397 645 398 641 401 636 c 256
 437 568 513 547 580 547 c 256
 642 547 709 594 709 678 c 256
 709 779 603 841 451 841 c 256
 317 841 198 790 198 674 c 256
 198 537 310 528 413 499 c 256
 539 464 780 406 780 202 c 256
 780 99 733 44 645 44 c 256
 564 44 519 110 519 204 c 256
 519 215 515 225 497 225 c 256
 479 225 475 215 475 204 c 256
 475 110 429 44 349 44 c 256
 280 44 220 95 220 186 c 256
 220 265 275 326 358 326 c 256
 396 326 406 316 432 312 c 256
 435 311 437 311 439 311 c 256
 451 311 459 316 462 328 c 256
 462 330 462 332 462 334 c 256
 462 344 454 352 437 359 c 256
 384 379 366 390 366 413 c 256
 366 428 380 437 397 437 c 256
 400 437 402 437 406 437 c 256
 436 430 448 399 489 399 c 256
 501 399 507 408 507 419 c 256
 507 430 501 440 489 440 c 256
 459 440 442 479 394 479 c 256
 348 479 324 449 324 418 c 256
 324 404 328 390 338 378 c 257
 264 395 254 479 167 479 c 256
 74 479 27 364 27 233 c 256
 27 69 87 0 142 0 c 256
 168 0 192 17 192 44 c 256
  PathStart: -2
EndSplineSet
PickledDataWithLists: "(dp1
S'com.schriftgestaltung.Glyphs.lastChange'
p2
S'2017-02-17 11:28:50 +0000'
p3
sS'com.fontlab.hintData'
p4
(dp5
S'vhints'
p6
(lp7
(dp8
S'position'
p9
I60
sS'width'
p10
I100
sa(dp11
g9
I285
sg10
I148
sa(dp12
g9
I399
sg10
I100
sa(dp13
g9
I447
sg10
I100
sa(dp14
g9
I731
sg10
I97
sa(dp15
g9
I1073
sg10
I100
sa(dp16
g9
I1507
sg10
I96
sa(dp17
g9
I1764
sg10
I106
sasS'hhints'
p18
(lp19
(dp20
g9
I0
sg10
I100
sa(dp21
g9
I0
sg10
I179
sa(dp22
g9
I736
sg10
I61
sa(dp23
g9
I798
sg10
I72
sa(dp24
g9
I901
sg10
I94
sa(dp25
g9
I981
sg10
I101
sa(dp26
g9
I1237
sg10
I94
sa(dp27
g9
I1800
sg10
I100
sass."
Ligature2: "sin_abvs subtable" sinNndda sinMatraI
EndChar

StartChar: sinNnddIi
Encoding: 355 -1 355
GlifName: sinN_nddI_i
Width: 853
VWidth: 0
Flags: W
HStem: 0 100 0 179 736 61 798 72 901 94 981 101 1257 84 1633 94 1800 100
VStem: 60 100 285 148 399 100 447 100 731 97 840 94 1073 100 1154 94 1502 100 1764 106
LayerCount: 2
Fore
SplineSet
192 44 m 256
 192 68 175 79 158 79 c 256
 143 79 126 72 126 52 c 257
 127 48 l 257
 94 65 71 136 71 233 c 256
 71 334 110 434 169 434 c 256
 206 434 234 391 257 384 c 257
 249 385 242 385 235 385 c 256
 211 385 189 381 159 371 c 256
 145 366 136 366 136 362 c 256
 136 341 145 322 158 322 c 256
 161 322 164 323 169 324 c 256
 198 335 229 353 287 353 c 256
 293 353 299 353 306 352 c 257
 260 352 176 302 176 186 c 256
 176 65 257 0 349 0 c 256
 420 0 479 42 497 100 c 257
 512 41 579 0 645 0 c 256
 767 0 827 79 827 202 c 256
 827 449 563 504 425 540 c 256
 350 560 242 566 242 674 c 256
 242 766 349 796 451 796 c 256
 591 796 664 751 664 678 c 256
 664 619 608 594 549 594 c 256
 532 594 512 596 495 600 c 257
 526 605 552 636 552 676 c 256
 552 723 510 764 462 764 c 256
 414 764 372 725 372 675 c 256
 372 653 380 631 396 613 c 256
 434 573 501 556 550 556 c 256
 629 556 709 591 709 678 c 256
 709 779 603 841 451 841 c 256
 317 841 198 790 198 674 c 256
 198 537 310 528 413 499 c 256
 539 464 780 406 780 202 c 256
 780 99 733 44 645 44 c 256
 564 44 519 110 519 204 c 256
 519 215 515 225 497 225 c 256
 479 225 475 215 475 204 c 256
 475 110 429 44 349 44 c 256
 280 44 220 95 220 186 c 256
 220 265 275 326 358 326 c 256
 396 326 406 316 432 312 c 256
 435 311 437 311 439 311 c 256
 451 311 459 316 462 328 c 256
 462 330 462 332 462 334 c 256
 462 344 454 352 437 359 c 256
 384 379 366 390 366 413 c 256
 366 428 380 437 397 437 c 256
 400 437 403 437 406 437 c 256
 436 430 448 399 489 399 c 256
 501 399 507 408 507 419 c 256
 507 430 501 440 489 440 c 256
 459 440 442 479 394 479 c 256
 348 479 324 449 324 418 c 256
 324 404 328 390 338 378 c 257
 264 395 254 479 167 479 c 256
 74 479 27 364 27 233 c 256
 27 69 87 0 142 0 c 256
 168 0 192 17 192 44 c 256
  PathStart: -2
413 675 m 256
 413 702 435 723 462 723 c 256
 489 723 510 703 510 676 c 256
 510 647 489 621 462 621 c 256
 435 621 413 645 413 675 c 256
  PathStart: -2
EndSplineSet
PickledDataWithLists: "(dp1
S'com.schriftgestaltung.Glyphs.lastChange'
p2
S'2017-02-17 11:28:50 +0000'
p3
sS'com.fontlab.hintData'
p4
(dp5
S'vhints'
p6
(lp7
(dp8
S'position'
p9
I60
sS'width'
p10
I100
sa(dp11
g9
I285
sg10
I148
sa(dp12
g9
I399
sg10
I100
sa(dp13
g9
I447
sg10
I100
sa(dp14
g9
I731
sg10
I97
sa(dp15
g9
I840
sg10
I94
sa(dp16
g9
I1073
sg10
I100
sa(dp17
g9
I1154
sg10
I94
sa(dp18
g9
I1502
sg10
I100
sa(dp19
g9
I1764
sg10
I106
sasS'hhints'
p20
(lp21
(dp22
g9
I0
sg10
I100
sa(dp23
g9
I0
sg10
I179
sa(dp24
g9
I736
sg10
I61
sa(dp25
g9
I798
sg10
I72
sa(dp26
g9
I901
sg10
I94
sa(dp27
g9
I981
sg10
I101
sa(dp28
g9
I1257
sg10
I84
sa(dp29
g9
I1633
sg10
I94
sa(dp30
g9
I1800
sg10
I100
sass."
Ligature2: "sin_abvs subtable" sinNndda sinMatraIi
EndChar

StartChar: sinNndda
Encoding: 358 3500 358
GlifName: sinN_ndda
Width: 866
VWidth: 0
Flags: W
LayerCount: 2
Fore
SplineSet
192 44 m 256
 192 68 175 79 158 79 c 256
 143 79 127 73 127 52 c 257
 127 48 l 257
 94 65 71 136 71 233 c 256
 71 343 111 452 169 452 c 256
 206 452 234 409 257 402 c 257
 249 403 243 403 235 403 c 256
 211 403 189 399 159 389 c 256
 143 384 136 372 136 362 c 256
 136 351 145 341 158 341 c 256
 161 341 164 341 169 342 c 256
 198 353 230 371 288 371 c 256
 293 371 299 371 306 371 c 257
 260 371 176 317 176 196 c 256
 176 68 257 0 349 0 c 256
 420 0 479 42 497 100 c 257
 512 41 580 0 645 0 c 256
 776 0 840 108 840 276 c 256
 840 552 605 734 358 734 c 256
 303 734 248 725 195 706 c 256
 182 702 176 693 176 684 c 256
 176 672 185 662 199 662 c 256
 202 662 206 662 209 664 c 256
 260 681 310 689 360 689 c 256
 585 689 795 525 795 276 c 256
 795 125 743 44 645 44 c 256
 565 44 519 110 519 204 c 256
 519 215 515 225 497 225 c 256
 479 225 475 215 475 204 c 256
 475 110 429 44 349 44 c 256
 281 44 220 99 220 196 c 256
 220 279 275 344 358 344 c 256
 396 344 406 335 432 330 c 256
 435 330 437 329 439 329 c 256
 451 329 459 335 462 346 c 256
 462 348 462 350 462 352 c 256
 462 363 454 371 437 377 c 256
 384 397 366 408 366 431 c 256
 366 445 380 456 397 456 c 256
 400 456 403 455 406 455 c 256
 436 448 448 417 489 417 c 256
 501 417 507 427 507 437 c 256
 507 448 501 459 489 459 c 256
 459 459 442 497 394 497 c 256
 348 497 324 467 324 437 c 256
 324 422 328 408 338 396 c 257
 264 414 254 497 167 497 c 256
 74 497 27 373 27 233 c 256
 27 69 87 0 142 0 c 256
 168 0 192 17 192 44 c 256
  PathStart: -2
EndSplineSet
PickledDataWithLists: "(dp1
S'com.schriftgestaltung.Glyphs.lastChange'
p2
S'2017-02-17 11:28:50 +0000'
p3
s."
EndChar

StartChar: sinNnga
Encoding: 364 3487 364
GlifName: sinN_nga
Width: 882
VWidth: 0
Flags: W
LayerCount: 2
Fore
SplineSet
855 243 m 256
 855 421 748 487 639 487 c 256
 512 487 442 408 418 251 c 256
 417 246 417 240 417 236 c 256
 417 226 420 220 432 220 c 256
 434 220 437 220 439 220 c 256
 448 221 455 222 462 222 c 256
 501 222 517 200 517 150 c 256
 517 102 469 44 375 44 c 256
 284 44 204 102 204 243 c 256
 204 375 282 443 369 443 c 256
 406 443 445 428 478 395 c 256
 481 392 484 391 487 391 c 256
 498 391 509 403 509 413 c 256
 509 423 506 430 499 435 c 256
 457 472 411 487 369 487 c 256
 254 487 159 388 159 243 c 256
 159 66 265 0 375 0 c 256
 509 0 561 81 561 150 c 256
 561 214 532 262 476 262 c 256
 472 262 466 262 461 262 c 257
 476 361 537 442 639 442 c 256
 731 442 810 385 810 243 c 256
 810 112 731 44 645 44 c 256
 605 44 566 60 526 97 c 256
 523 100 519 101 516 101 c 256
 505 101 495 89 495 78 c 256
 495 69 503 63 511 55 c 256
 552 13 602 0 645 0 c 256
 761 0 855 99 855 243 c 256
  PathStart: -2
192 44 m 256
 192 68 175 79 158 79 c 256
 144 79 127 73 127 52 c 257
 127 48 l 257
 94 65 71 136 71 233 c 256
 71 336 107 445 176 445 c 256
 194 445 212 438 222 423 c 256
 227 417 233 413 237 413 c 256
 246 413 252 422 252 433 c 256
 252 439 251 445 246 451 c 256
 231 474 198 487 176 487 c 256
 78 487 27 368 27 233 c 256
 27 69 87 0 143 0 c 256
 168 0 192 17 192 44 c 256
  PathStart: -2
EndSplineSet
PickledDataWithLists: "(dp1
S'com.schriftgestaltung.Glyphs.lastChange'
p2
S'2017-02-17 11:28:50 +0000'
p3
s."
EndChar

StartChar: sinNyAa
Encoding: 366 -1 366
GlifName: sinN_yA_a
Width: 1206
VWidth: 0
Flags: W
HStem: -753 100 0 97 0 179 146 100 528 96 707 170 755 100 786 88 979 93 1123 94
VStem: 60 100 287 147 459 93 790 74 980 100 1510 109 2232 94 2467 93 2750 100
LayerCount: 2
Fore
SplineSet
1261 -108 m 256
 1261 38 1202 109 1128 109 c 256
 1086 109 1056 90 1035 52 c 257
 1037 63 1039 72 1041 80 c 256
 1043 87 1043 93 1043 98 c 256
 1043 118 1033 128 1024 128 c 256
 1021 128 1019 127 1017 125 c 256
 992 96 950 44 870 44 c 256
 772 44 716 112 716 220 c 256
 716 265 747 334 832 334 c 256
 880 334 919 308 942 282 c 256
 973 248 1008 234 1040 234 c 256
 1090 234 1133 271 1133 327 c 256
 1133 483 958 538 802 538 c 256
 698 538 510 510 382 376 c 257
 382 379 382 382 382 386 c 256
 382 437 340 474 293 474 c 256
 271 474 251 466 235 452 c 257
 221 465 199 474 181 474 c 256
 80 474 27 361 27 233 c 256
 27 69 87 0 142 0 c 256
 168 0 192 17 192 44 c 256
 192 68 175 79 158 79 c 256
 144 79 127 73 127 52 c 257
 127 48 l 257
 94 65 71 136 71 233 c 256
 71 330 108 433 181 433 c 256
 192 433 203 428 212 418 c 257
 206 406 203 392 203 378 c 256
 203 344 223 313 262 313 c 256
 287 313 306 329 306 354 c 256
 306 373 291 389 271 389 c 256
 263 389 255 387 248 381 c 257
 245 378 l 257
 245 380 244 383 244 386 c 256
 244 408 260 434 293 434 c 256
 326 434 350 406 350 372 c 256
 350 356 344 339 333 324 c 258
 194 127 l 257
 244 41 282 0 351 0 c 256
 410 0 448 37 456 80 c 257
 464 37 514 0 571 0 c 256
 642 0 684 41 702 99 c 257
 731 38 787 0 870 0 c 256
 926 0 977 30 992 45 c 257
 990 -18 987 -65 987 -100 c 257
 1029 -88 l 257
 1029 -50 l 257
 1035 32 1082 65 1122 65 c 256
 1189 65 1217 12 1217 -108 c 256
 1217 -272 1133 -289 1108 -289 c 256
 1069 -289 1030 -265 1015 -245 c 256
 1010 -237 1002 -234 995 -234 c 256
 983 -234 973 -243 973 -254 c 256
 973 -259 974 -264 978 -269 c 256
 991 -288 1030 -333 1108 -333 c 256
 1194 -333 1261 -279 1261 -108 c 256
  PathStart: -2
246 127 m 257
 347 268 l 258
 394 334 463 348 501 348 c 256
 602 348 668 298 668 177 c 256
 668 109 631 44 571 44 c 256
 505 44 478 88 478 138 c 256
 478 154 477 174 456 174 c 256
 435 174 434 154 434 138 c 256
 434 88 413 43 351 43 c 256
 302 43 267 80 246 127 c 257
  PathStart: -2
978 302 m 256
 948 335 910 378 832 378 c 256
 757 378 709 339 687 290 c 257
 653 353 588 386 512 386 c 256
 483 386 450 377 421 361 c 257
 559 484 705 497 802 497 c 256
 925 497 1091 453 1091 327 c 256
 1091 293 1065 276 1036 276 c 256
 1016 276 994 285 978 302 c 256
  PathStart: -2
EndSplineSet
PickledDataWithLists: "(dp1
S'com.schriftgestaltung.Glyphs.lastChange'
p2
S'2017-02-17 11:28:50 +0000'
p3
sS'com.fontlab.hintData'
p4
(dp5
S'vhints'
p6
(lp7
(dp8
S'position'
p9
I60
sS'width'
p10
I100
sa(dp11
g9
I287
sg10
I147
sa(dp12
g9
I459
sg10
I93
sa(dp13
g9
I790
sg10
I74
sa(dp14
g9
I980
sg10
I100
sa(dp15
g9
I1510
sg10
I109
sa(dp16
g9
I2232
sg10
I94
sa(dp17
g9
I2467
sg10
I93
sa(dp18
g9
I2750
sg10
I100
sasS'hhints'
p19
(lp20
(dp21
g9
I-753
sg10
I100
sa(dp22
g9
I0
sg10
I97
sa(dp23
g9
I0
sg10
I179
sa(dp24
g9
I146
sg10
I100
sa(dp25
g9
I528
sg10
I96
sa(dp26
g9
I707
sg10
I170
sa(dp27
g9
I755
sg10
I100
sa(dp28
g9
I786
sg10
I88
sa(dp29
g9
I979
sg10
I93
sa(dp30
g9
I1123
sg10
I94
sass."
EndChar

StartChar: sinNya
Encoding: 379 3492 379
GlifName: sinN_ya
Width: 1184
VWidth: 0
Flags: W
HStem: 0 97 0 179 528 96 707 170 755 100 786 88 979 93 1123 94
VStem: 60 100 286 147 459 93 790 74 980 100 1510 109 2351 94 2467 93
LayerCount: 2
Fore
SplineSet
1157 -294 m 256
 1157 -284 1152 -273 1141 -271 c 256
 1099 -260 1081 -223 1081 -159 c 256
 1081 -99 1098 -15 1125 94 c 256
 1127 100 1127 106 1127 111 c 256
 1127 131 1117 141 1109 141 c 256
 1105 141 1103 140 1101 138 c 256
 1072 102 1014 44 912 44 c 256
 787 44 716 112 716 220 c 256
 716 265 747 334 832 334 c 256
 880 334 919 308 942 282 c 256
 973 248 1007 234 1039 234 c 256
 1090 234 1133 271 1133 327 c 256
 1133 483 957 538 802 538 c 256
 698 538 510 510 382 376 c 257
 382 379 382 382 382 386 c 256
 382 437 340 474 293 474 c 256
 271 474 251 466 235 452 c 257
 221 465 199 474 181 474 c 256
 80 474 27 361 27 233 c 256
 27 69 87 0 142 0 c 256
 168 0 192 17 192 44 c 256
 192 68 175 79 158 79 c 256
 144 79 127 73 127 52 c 257
 127 48 l 257
 94 65 71 136 71 233 c 256
 71 330 108 433 181 433 c 256
 192 433 203 428 211 418 c 257
 206 406 203 392 203 378 c 256
 203 344 223 313 262 313 c 256
 287 313 306 329 306 354 c 256
 306 373 291 389 271 389 c 256
 262 389 255 387 248 381 c 257
 245 378 l 257
 245 380 244 383 244 386 c 256
 244 408 260 434 293 434 c 256
 326 434 350 406 350 372 c 256
 350 356 344 339 333 324 c 258
 194 127 l 257
 244 41 282 0 351 0 c 256
 410 0 448 37 456 80 c 257
 464 37 514 0 571 0 c 256
 641 0 684 41 702 99 c 257
 739 38 809 0 912 0 c 256
 988 0 1056 39 1077 58 c 257
 1051 -41 1040 -116 1040 -171 c 256
 1040 -274 1079 -309 1133 -320 c 256
 1134 -321 1136 -321 1136 -321 c 256
 1150 -321 1157 -307 1157 -294 c 256
  PathStart: -2
246 127 m 257
 347 268 l 258
 393 335 463 348 501 348 c 256
 602 348 668 298 668 177 c 256
 668 109 631 44 571 44 c 256
 505 44 478 88 478 138 c 256
 478 154 477 174 456 174 c 256
 435 174 434 154 434 138 c 256
 434 88 413 43 351 43 c 256
 302 43 267 80 246 127 c 257
  PathStart: -2
978 302 m 256
 948 335 910 378 832 378 c 256
 757 378 709 339 687 290 c 257
 653 353 588 386 512 386 c 256
 483 386 450 377 421 361 c 257
 558 484 705 497 802 497 c 256
 925 497 1091 453 1091 327 c 256
 1091 293 1065 276 1036 276 c 256
 1015 276 993 285 978 302 c 256
  PathStart: -2
EndSplineSet
PickledDataWithLists: "(dp1
S'com.schriftgestaltung.Glyphs.lastChange'
p2
S'2017-02-17 11:28:50 +0000'
p3
sS'com.fontlab.hintData'
p4
(dp5
S'vhints'
p6
(lp7
(dp8
S'position'
p9
I60
sS'width'
p10
I100
sa(dp11
g9
I286
sg10
I147
sa(dp12
g9
I459
sg10
I93
sa(dp13
g9
I790
sg10
I74
sa(dp14
g9
I980
sg10
I100
sa(dp15
g9
I1510
sg10
I109
sa(dp16
g9
I2351
sg10
I94
sa(dp17
g9
I2467
sg10
I93
sasS'hhints'
p18
(lp19
(dp20
g9
I0
sg10
I97
sa(dp21
g9
I0
sg10
I179
sa(dp22
g9
I528
sg10
I96
sa(dp23
g9
I707
sg10
I170
sa(dp24
g9
I755
sg10
I100
sa(dp25
g9
I786
sg10
I88
sa(dp26
g9
I979
sg10
I93
sa(dp27
g9
I1123
sg10
I94
sass."
EndChar

StartChar: sinOo
Encoding: 381 3477 381
GlifName: sinO_o
Width: 722
VWidth: 0
Flags: W
HStem: 0 100 434 100 824 86 990 95 1557 102 1885 109
VStem: 71 100 228 103 403 100 793 88 1469 102
LayerCount: 2
Fore
SplineSet
352 100 m 257
 368 41 434 0 500 0 c 256
 630 0 695 108 695 276 c 256
 695 456 594 597 456 672 c 257
 400 851 276 882 180 882 c 256
 129 882 86 873 63 873 c 256
 38 873 27 860 27 848 c 256
 27 837 36 827 52 827 c 256
 83 827 101 804 101 776 c 256
 101 743 88 726 49 706 c 257
 37 702 31 693 31 684 c 256
 31 672 40 662 54 662 c 256
 57 662 60 662 65 664 c 256
 114 681 165 689 215 689 c 256
 441 689 650 525 650 276 c 256
 650 125 597 44 500 44 c 256
 448 44 402 77 387 122 c 256
 372 167 375 192 362 227 c 257
 380 246 390 272 390 300 c 256
 390 428 299 480 224 480 c 256
 133 480 32 401 32 243 c 256
 32 84 107 0 216 0 c 256
 282 0 335 42 352 100 c 257
  PathStart: -2
76 243 m 256
 76 369 150 438 223 438 c 256
 268 438 316 423 344 375 c 257
 324 393 299 403 276 403 c 256
 226 403 178 361 178 300 c 256
 178 240 227 192 287 192 c 256
 302 192 315 195 327 201 c 257
 329 191 330 181 330 172 c 256
 330 97 282 44 216 44 c 256
 130 44 76 116 76 243 c 256
  PathStart: -2
223 300 m 256
 223 335 251 364 287 364 c 256
 322 364 351 335 351 300 c 256
 351 265 322 236 287 236 c 256
 251 236 223 265 223 300 c 256
  PathStart: -2
212 734 m 256
 187 734 162 732 136 729 c 257
 143 739 147 751 147 765 c 256
 147 786 139 808 122 827 c 257
 145 831 167 834 187 834 c 256
 305 834 375 757 404 696 c 257
 344 720 279 734 212 734 c 256
  PathStart: -2
EndSplineSet
PickledDataWithLists: "(dp1
S'com.schriftgestaltung.Glyphs.lastChange'
p2
S'2017-02-17 11:28:50 +0000'
p3
sS'com.fontlab.hintData'
p4
(dp5
S'vhints'
p6
(lp7
(dp8
S'position'
p9
I71
sS'width'
p10
I100
sa(dp11
g9
I228
sg10
I103
sa(dp12
g9
I403
sg10
I100
sa(dp13
g9
I793
sg10
I88
sa(dp14
g9
I1469
sg10
I102
sasS'hhints'
p15
(lp16
(dp17
g9
I0
sg10
I100
sa(dp18
g9
I434
sg10
I100
sa(dp19
g9
I824
sg10
I86
sa(dp20
g9
I990
sg10
I95
sa(dp21
g9
I1557
sg10
I102
sa(dp22
g9
I1885
sg10
I109
sass."
EndChar

StartChar: sinOs
Encoding: 382 3476 382
GlifName: sinO_s
Width: 717
VWidth: 0
Flags: W
LayerCount: 2
Fore
SplineSet
347 100 m 257
 364 41 430 0 496 0 c 256
 626 0 691 108 691 276 c 256
 691 552 456 734 208 734 c 256
 153 734 99 725 45 706 c 256
 32 702 27 693 27 684 c 256
 27 672 35 662 49 662 c 256
 52 662 56 662 60 664 c 256
 110 681 161 689 211 689 c 256
 437 689 645 525 645 276 c 256
 645 125 593 44 496 44 c 256
 444 44 397 77 383 122 c 256
 368 167 371 193 358 229 c 257
 354 232 347 235 340 235 c 256
 331 235 324 231 324 218 c 256
 324 215 324 212 325 208 c 257
 326 200 327 192 327 184 c 256
 327 102 282 44 212 44 c 256
 125 44 72 116 72 243 c 256
 72 369 145 438 219 438 c 256
 276 438 338 414 357 327 c 257
 386 300 l 257
 386 428 294 480 220 480 c 256
 129 480 27 401 27 243 c 256
 27 84 102 0 212 0 c 256
 277 0 330 42 347 100 c 257
  PathStart: -2
386 300 m 256
 386 321 375 347 357 351 c 257
 338 386 304 403 271 403 c 256
 222 403 174 361 174 300 c 256
 174 240 223 192 282 192 c 256
 339 192 386 240 386 300 c 256
  PathStart: -2
218 300 m 256
 218 335 247 364 282 364 c 256
 318 364 347 335 347 300 c 256
 347 265 318 236 282 236 c 256
 247 236 218 265 218 300 c 256
  PathStart: -2
EndSplineSet
PickledDataWithLists: "(dp1
S'com.schriftgestaltung.Glyphs.lastChange'
p2
S'2017-02-17 11:28:50 +0000'
p3
s."
EndChar

StartChar: sinPa
Encoding: 392 3508 392
GlifName: sinP_a
Width: 633
VWidth: 0
Flags: W
HStem: -26 100 779 88 942 94 1030 93
VStem: 62 100 301 92 1011 99 1270 100
LayerCount: 2
Fore
SplineSet
606 216 m 256
 606 299 560 380 466 380 c 256
 466 380 466 380 466 378 c 257
 484 391 492 411 492 430 c 256
 492 445 488 459 482 472 c 256
 479 479 475 485 460 485 c 256
 448 485 439 476 439 466 c 256
 439 464 439 462 441 460 c 256
 445 448 448 438 448 430 c 256
 448 412 439 402 428 395 c 256
 414 386 407 383 394 379 c 256
 386 376 380 366 380 357 c 256
 380 355 380 354 381 352 c 256
 383 341 392 335 403 335 c 256
 405 335 408 335 410 336 c 257
 427 340 444 344 461 344 c 256
 528 344 562 286 562 216 c 256
 562 98 455 32 317 32 c 256
 178 32 72 98 72 216 c 256
 72 286 105 344 173 344 c 256
 189 344 206 340 223 336 c 257
 226 335 229 335 231 335 c 256
 243 335 254 343 254 358 c 256
 254 369 245 378 228 384 c 256
 192 397 174 410 174 431 c 256
 174 445 188 456 204 456 c 256
 207 456 210 455 213 455 c 256
 243 448 255 417 296 417 c 256
 309 417 315 427 315 437 c 256
 315 448 308 459 296 459 c 256
 266 459 250 497 202 497 c 256
 160 497 133 463 133 431 c 256
 133 410 145 392 173 376 c 257
 173 379 172 380 171 380 c 256
 79 380 27 299 27 216 c 256
 27 74 153 -12 317 -12 c 256
 481 -12 606 74 606 216 c 256
  PathStart: -2
EndSplineSet
PickledDataWithLists: "(dp1
S'com.schriftgestaltung.Glyphs.lastChange'
p2
S'2017-02-17 11:28:50 +0000'
p3
sS'com.fontlab.hintData'
p4
(dp5
S'vhints'
p6
(lp7
(dp8
S'position'
p9
I62
sS'width'
p10
I100
sa(dp11
g9
I301
sg10
I92
sa(dp12
g9
I1011
sg10
I99
sa(dp13
g9
I1270
sg10
I100
sasS'hhints'
p14
(lp15
(dp16
g9
I-26
sg10
I100
sa(dp17
g9
I779
sg10
I88
sa(dp18
g9
I942
sg10
I94
sa(dp19
g9
I1030
sg10
I93
sass."
EndChar

StartChar: sinPha
Encoding: 398 3509 398
GlifName: sinP_ha
Width: 600
VWidth: 0
Flags: W
HStem: -26 104 781 88 977 88
VStem: 60 100 323 92 429 91 1192 101
LayerCount: 2
Fore
SplineSet
572 254 m 256
 572 441 437 605 350 703 c 256
 330 727 311 746 299 762 c 257
 285 738 271 717 260 698 c 256
 229 651 189 594 189 545 c 256
 189 526 193 510 199 497 c 257
 164 490 143 461 143 432 c 256
 143 414 151 397 169 384 c 257
 166 384 l 258
 102 384 27 319 27 216 c 256
 27 74 130 -12 293 -12 c 256
 485 -12 572 94 572 254 c 256
  PathStart: -2
71 216 m 256
 71 286 114 341 177 346 c 257
 182 346 l 258
 200 346 216 341 233 337 c 257
 236 337 238 336 240 336 c 256
 251 336 260 342 262 353 c 256
 262 355 263 357 263 359 c 256
 263 370 254 379 237 385 c 256
 201 398 184 411 184 432 c 256
 184 446 198 457 212 457 c 256
 215 457 219 457 223 456 c 256
 244 448 257 432 305 432 c 256
 351 432 417 472 446 515 c 257
 478 470 527 383 527 254 c 256
 527 127 454 35 293 35 c 256
 156 35 71 105 71 216 c 256
  PathStart: -2
230 545 m 256
 230 589 282 654 307 689 c 257
 337 656 388 599 417 552 c 257
 404 512 344 471 305 471 c 256
 266 471 230 494 230 545 c 256
  PathStart: -2
EndSplineSet
PickledDataWithLists: "(dp1
S'com.schriftgestaltung.Glyphs.lastChange'
p2
S'2017-02-17 11:28:50 +0000'
p3
sS'com.fontlab.hintData'
p4
(dp5
S'vhints'
p6
(lp7
(dp8
S'position'
p9
I60
sS'width'
p10
I100
sa(dp11
g9
I323
sg10
I92
sa(dp12
g9
I429
sg10
I91
sa(dp13
g9
I1192
sg10
I101
sasS'hhints'
p14
(lp15
(dp16
g9
I-26
sg10
I104
sa(dp17
g9
I781
sg10
I88
sa(dp18
g9
I977
sg10
I88
sass."
EndChar

StartChar: sinRa
Encoding: 406 3515 406
GlifName: sinR_a
Width: 571
VWidth: 0
Flags: W
LayerCount: 2
Fore
SplineSet
545 247 m 256
 545 390 435 507 286 507 c 256
 224 507 168 479 128 442 c 257
 178 521 341 700 493 832 c 256
 501 839 504 846 504 853 c 256
 504 865 495 873 483 873 c 256
 476 873 469 871 462 865 c 256
 306 727 175 577 109 479 c 256
 58 402 27 340 27 247 c 256
 27 105 143 -12 286 -12 c 256
 428 -12 545 105 545 247 c 256
  PathStart: -2
71 247 m 256
 71 377 169 463 286 463 c 256
 401 463 501 364 501 247 c 256
 501 128 406 32 286 32 c 256
 167 32 71 126 71 247 c 256
  PathStart: -2
EndSplineSet
PickledDataWithLists: "(dp1
S'com.schriftgestaltung.Glyphs.lastChange'
p2
S'2017-02-17 11:28:50 +0000'
p3
s."
EndChar

StartChar: sinRakar
Encoding: 407 -1 407
GlifName: sinR_akar
Width: 0
VWidth: 0
Flags: HW
LayerCount: 2
Fore
SplineSet
25 48 m 260
 25 67 23 88 18 108 c 260
 12 145 11 170 -7 197 c 261
 -27 186 l 261
 -29 181 -30 169 -30 156 c 260
 -30 145 -30 133 -27 123 c 260
 -21 97 -19 74 -19 52 c 260
 -19 -77 -110 -151 -208 -151 c 260
 -251 -151 -296 -136 -336 -105 c 260
 -341 -100 -347 -99 -353 -99 c 260
 -366 -99 -378 -109 -378 -118 c 260
 -378 -122 -376 -125 -373 -127 c 260
 -325 -173 -267 -194 -210 -194 c 260
 -90 -194 25 -101 25 48 c 260
  PathStart: -2
EndSplineSet
PickledDataWithLists: "(dp1
S'com.schriftgestaltung.Glyphs.lastChange'
p2
S'2017-02-17 11:28:50 +0000'
p3
s."
EndChar

StartChar: sinReph
Encoding: 411 -1 411
GlifName: sinR_eph
Width: 0
VWidth: 0
Flags: W
LayerCount: 2
Fore
SplineSet
-164 647 m 256
 -164 707 -205 753 -268 753 c 256
 -317 753 -352 726 -352 685 c 256
 -352 657 -334 638 -309 638 c 256
 -285 638 -273 656 -273 673 c 256
 -273 684 -277 693 -285 700 c 257
 -279 703 -270 706 -256 706 c 256
 -229 706 -209 678 -209 647 c 256
 -209 598 -259 566 -308 566 c 256
 -375 566 -429 609 -429 692 c 256
 -429 784 -353 841 -251 841 c 256
 -150 841 -71 766 -71 661 c 256
 -71 633 -77 601 -88 566 c 256
 -89 563 -90 560 -90 557 c 256
 -90 543 -79 535 -68 535 c 256
 -59 535 -51 539 -48 549 c 256
 -33 591 -27 627 -27 661 c 256
 -27 796 -128 885 -251 885 c 256
 -384 885 -473 806 -473 692 c 256
 -473 579 -398 522 -308 522 c 256
 -238 522 -164 568 -164 647 c 256
  PathStart: -2
EndSplineSet
PickledDataWithLists: "(dp1
S'com.schriftgestaltung.Glyphs.lastChange'
p2
S'2017-02-17 11:28:50 +0000'
p3
s."
Ligature2: "sin_reph subtable" sinRa sinVirama zerowidthjoiner
EndChar

StartChar: sinSa
Encoding: 421 3523 421
GlifName: sinS_a
Width: 771
VWidth: 0
Flags: W
LayerCount: 2
Fore
SplineSet
417 100 m 257
 434 41 510 0 583 0 c 256
 683 0 773 68 773 196 c 256
 773 287 713 382 616 382 c 256
 613 382 609 382 605 382 c 257
 617 393 622 411 622 428 c 256
 622 443 619 457 613 470 c 256
 610 476 605 483 591 483 c 256
 579 483 570 474 570 465 c 256
 570 462 571 461 571 459 c 256
 577 446 578 437 578 428 c 256
 578 410 569 400 559 393 c 256
 549 386 532 381 512 377 c 256
 495 373 487 364 487 352 c 256
 487 350 487 348 487 346 c 256
 490 335 498 329 510 329 c 256
 512 329 514 330 517 330 c 256
 543 335 553 344 591 344 c 256
 674 344 729 279 729 196 c 256
 729 99 660 44 583 44 c 256
 490 44 439 110 439 204 c 256
 439 215 434 225 417 225 c 256
 399 225 394 215 394 204 c 256
 394 110 343 44 251 44 c 256
 173 44 105 99 105 196 c 256
 105 279 159 344 243 344 c 256
 280 344 291 335 317 330 c 256
 319 330 321 329 324 329 c 256
 335 329 344 335 346 346 c 256
 347 348 347 350 347 352 c 256
 347 363 339 371 322 377 c 256
 269 397 251 408 251 431 c 256
 251 445 265 456 282 456 c 256
 284 456 287 455 290 455 c 256
 320 448 333 417 373 417 c 256
 386 417 392 427 392 437 c 256
 392 448 386 459 373 459 c 256
 343 459 327 497 279 497 c 256
 233 497 208 467 208 437 c 256
 208 422 213 408 223 396 c 257
 197 408 163 413 129 413 c 256
 111 413 94 412 77 408 c 256
 61 406 54 395 54 384 c 256
 54 372 63 361 79 361 c 256
 82 361 85 361 87 362 c 256
 106 366 125 373 156 373 c 256
 167 373 178 372 190 371 c 257
 145 371 61 317 61 196 c 256
 61 68 150 0 251 0 c 256
 331 0 397 42 417 100 c 257
  PathStart: -2
EndSplineSet
PickledDataWithLists: "(dp1
S'com.schriftgestaltung.Glyphs.lastChange'
p2
S'2017-02-17 11:28:50 +0000'
p3
s."
EndChar

StartChar: sinSha
Encoding: 431 3521 431
GlifName: sinS_ha
Width: 750
VWidth: 0
Flags: W
HStem: 0 100 501 92 1000 100
VStem: 60 103 870 100 1532 103
LayerCount: 2
Fore
SplineSet
723 243 m 256
 723 421 616 487 507 487 c 256
 448 487 402 470 366 437 c 257
 324 472 278 487 236 487 c 256
 121 487 27 388 27 243 c 256
 27 66 133 0 243 0 c 256
 309 0 355 20 386 48 c 257
 425 12 472 0 513 0 c 256
 629 0 723 99 723 243 c 256
  PathStart: -2
72 243 m 256
 72 375 150 442 236 442 c 256
 271 442 306 430 338 402 c 257
 313 364 296 314 286 251 c 256
 285 246 285 240 285 236 c 256
 285 226 288 220 299 220 c 256
 302 220 305 220 307 220 c 256
 315 221 322 222 329 222 c 256
 368 222 385 200 385 150 c 256
 385 102 337 44 243 44 c 256
 152 44 72 102 72 243 c 256
  PathStart: -2
493 46 m 257
 521 63 526 97 531 131 c 256
 538 181 544 227 599 227 c 256
 631 227 667 206 667 170 c 256
 667 167 666 164 665 160 c 257
 640 83 579 44 513 44 c 256
 507 44 500 45 493 46 c 257
  PathStart: -2
448 59 m 257
 436 65 423 72 411 81 c 257
 423 103 429 127 429 150 c 256
 429 214 400 262 344 262 c 256
 339 262 334 262 329 262 c 257
 344 361 405 442 507 442 c 256
 598 442 678 385 678 243 c 258
 678 228 l 257
 664 256 632 271 601 271 c 256
 521 271 507 213 495 138 c 256
 490 113 483 59 450 59 c 258
 448 59 l 257
EndSplineSet
PickledDataWithLists: "(dp1
S'com.schriftgestaltung.Glyphs.lastChange'
p2
S'2017-02-17 11:28:50 +0000'
p3
sS'com.fontlab.hintData'
p4
(dp5
S'vhints'
p6
(lp7
(dp8
S'position'
p9
I60
sS'width'
p10
I103
sa(dp11
g9
I870
sg10
I100
sa(dp12
g9
I1532
sg10
I103
sasS'hhints'
p13
(lp14
(dp15
g9
I0
sg10
I100
sa(dp16
g9
I501
sg10
I92
sa(dp17
g9
I1000
sg10
I100
sass."
EndChar

StartChar: sinSsa
Encoding: 441 3522 441
GlifName: sinS_sa
Width: 633
VWidth: 0
Flags: W
HStem: -26 100 280 90 614 78 779 88 933 94 1030 93
VStem: 60 100 299 92 508 93 878 90 1034 95 1268 100
LayerCount: 2
Fore
SplineSet
605 216 m 256
 605 302 540 383 452 383 c 257
 477 388 500 406 500 437 c 256
 500 447 497 459 491 472 c 256
 488 479 484 485 469 485 c 256
 457 485 448 476 448 467 c 256
 448 465 448 462 450 460 c 256
 455 451 457 443 457 437 c 256
 457 417 434 408 383 397 c 256
 327 385 225 344 225 231 c 256
 225 166 272 124 331 124 c 256
 388 124 428 163 428 216 c 256
 428 263 389 306 336 306 c 256
 311 306 296 299 275 284 c 257
 298 334 358 355 411 355 c 256
 422 354 l 258
 513 349 561 291 561 216 c 256
 561 98 454 32 316 32 c 256
 178 32 71 98 71 216 c 256
 71 286 103 341 167 344 c 258
 171 344 l 258
 184 344 195 342 209 339 c 257
 211 339 214 338 216 338 c 256
 227 338 235 344 237 355 c 256
 238 357 238 359 238 361 c 256
 238 372 229 380 213 387 c 256
 187 400 173 411 173 431 c 256
 173 445 187 456 204 456 c 256
 206 456 209 455 212 455 c 256
 244 448 257 413 299 413 c 256
 312 413 318 423 318 433 c 256
 318 444 311 454 299 454 c 256
 268 454 251 497 201 497 c 256
 159 497 132 463 132 431 c 256
 132 413 140 397 158 383 c 257
 156 383 l 258
 73 383 27 301 27 216 c 256
 27 74 152 -12 316 -12 c 256
 479 -12 605 74 605 216 c 256
  PathStart: -2
266 224 m 256
 266 248 293 271 328 271 c 256
 361 271 389 247 389 216 c 256
 389 183 361 164 331 164 c 256
 295 164 266 188 266 224 c 256
  PathStart: -2
EndSplineSet
PickledDataWithLists: "(dp1
S'com.schriftgestaltung.Glyphs.lastChange'
p2
S'2017-02-17 11:28:50 +0000'
p3
sS'com.fontlab.hintData'
p4
(dp5
S'vhints'
p6
(lp7
(dp8
S'position'
p9
I60
sS'width'
p10
I100
sa(dp11
g9
I299
sg10
I92
sa(dp12
g9
I508
sg10
I93
sa(dp13
g9
I878
sg10
I90
sa(dp14
g9
I1034
sg10
I95
sa(dp15
g9
I1268
sg10
I100
sasS'hhints'
p16
(lp17
(dp18
g9
I-26
sg10
I100
sa(dp19
g9
I280
sg10
I90
sa(dp20
g9
I614
sg10
I78
sa(dp21
g9
I779
sg10
I88
sa(dp22
g9
I933
sg10
I94
sa(dp23
g9
I1030
sg10
I93
sass."
EndChar

StartChar: sinTTha
Encoding: 454 -1 454
GlifName: sinT_T_ha
Width: 1001
VWidth: 0
Flags: W
HStem: -26 100 0 101 707 170 811 88 835 93 980 92 1012 88
VStem: 60 93 387 70 1018 100 1363 91 2100 101
LayerCount: 2
Fore
SplineSet
974 254 m 256
 974 441 839 605 752 703 c 256
 731 727 713 746 700 762 c 257
 686 738 673 717 661 698 c 256
 630 647 603 611 603 560 c 256
 603 550 604 541 605 533 c 257
 573 546 537 552 499 552 c 256
 391 552 273 498 202 392 c 257
 202 400 l 257
 202 444 160 474 117 474 c 256
 65 474 27 430 27 378 c 256
 27 344 46 313 86 313 c 256
 110 313 129 329 129 354 c 256
 129 373 114 389 94 389 c 256
 87 389 78 387 72 381 c 257
 69 378 l 257
 68 380 68 383 68 386 c 256
 68 408 83 434 117 434 c 256
 147 434 171 409 171 381 c 256
 171 364 160 348 147 327 c 256
 118 280 79 220 61 178 c 256
 58 170 56 163 56 158 c 256
 56 131 94 136 111 116 c 256
 123 102 164 0 291 0 c 256
 384 0 448 46 477 114 c 257
 514 45 591 -12 711 -12 c 256
 879 -12 974 108 974 254 c 256
  PathStart: -2
99 167 m 257
 123 220 152 262 182 298 c 256
 215 338 266 359 310 359 c 256
 394 359 451 296 451 198 c 256
 451 105 383 45 291 45 c 256
 165 45 177 143 99 167 c 257
  PathStart: -2
320 397 m 256
 291 397 262 390 233 374 c 257
 291 462 403 512 504 512 c 256
 588 512 665 477 696 399 c 257
 678 406 656 411 631 411 c 256
 554 411 495 375 467 308 c 257
 437 364 383 397 320 397 c 256
  PathStart: -2
495 214 m 256
 495 310 554 369 631 369 c 256
 696 369 715 321 734 321 c 256
 742 321 747 333 747 339 c 256
 747 341 747 344 746 347 c 257
 747 347 l 257
 743 386 731 420 713 448 c 257
 718 448 l 258
 767 448 817 470 848 515 c 257
 880 470 929 383 929 254 c 256
 929 136 852 32 711 32 c 256
 589 32 495 109 495 214 c 256
  PathStart: -2
643 560 m 256
 643 606 680 653 709 689 c 257
 738 656 790 599 818 552 c 257
 805 510 760 487 718 487 c 256
 680 487 643 510 643 560 c 256
  PathStart: -2
EndSplineSet
PickledDataWithLists: "(dp1
S'com.schriftgestaltung.Glyphs.lastChange'
p2
S'2017-02-17 11:28:50 +0000'
p3
sS'com.fontlab.hintData'
p4
(dp5
S'vhints'
p6
(lp7
(dp8
S'position'
p9
I60
sS'width'
p10
I93
sa(dp11
g9
I387
sg10
I70
sa(dp12
g9
I1018
sg10
I100
sa(dp13
g9
I1363
sg10
I91
sa(dp14
g9
I2100
sg10
I101
sasS'hhints'
p15
(lp16
(dp17
g9
I-26
sg10
I100
sa(dp18
g9
I0
sg10
I101
sa(dp19
g9
I707
sg10
I170
sa(dp20
g9
I811
sg10
I88
sa(dp21
g9
I835
sg10
I93
sa(dp22
g9
I980
sg10
I92
sa(dp23
g9
I1012
sg10
I88
sass."
Ligature2: "sin_akhands subtable" sinTa sinVirama zerowidthjoiner sinTha
EndChar

StartChar: sinTa
Encoding: 463 3501 463
GlifName: sinT_a
Width: 778
VWidth: 0
Flags: W
LayerCount: 2
Fore
SplineSet
435 50 m 257
 472 18 518 0 568 0 c 256
 683 0 751 102 751 215 c 256
 751 351 664 503 453 503 c 256
 369 503 282 472 202 392 c 257
 202 400 l 257
 202 444 160 474 117 474 c 256
 65 474 27 430 27 378 c 256
 27 344 46 313 86 313 c 256
 110 313 129 329 129 354 c 256
 129 373 114 389 94 389 c 256
 87 389 78 387 72 381 c 257
 69 378 l 257
 68 380 68 383 68 386 c 256
 68 408 83 434 117 434 c 256
 147 434 171 409 171 381 c 256
 171 364 160 348 147 327 c 256
 118 280 79 220 61 178 c 256
 58 170 56 163 56 158 c 256
 56 131 94 136 111 116 c 256
 123 102 165 0 291 0 c 256
 371 0 408 32 435 50 c 257
  PathStart: -2
99 167 m 257
 123 220 152 262 182 298 c 256
 215 338 266 359 310 359 c 256
 394 359 451 296 451 198 c 256
 451 105 383 45 291 45 c 256
 165 45 177 143 99 167 c 257
  PathStart: -2
461 83 m 257
 483 113 493 156 493 198 c 256
 493 316 418 397 320 397 c 256
 291 397 262 390 233 374 c 257
 296 432 386 459 453 459 c 256
 637 459 709 329 709 215 c 256
 709 125 653 44 568 44 c 256
 528 44 498 50 461 83 c 257
  PathStart: -2
EndSplineSet
PickledDataWithLists: "(dp1
S'com.schriftgestaltung.Glyphs.lastChange'
p2
S'2017-02-17 11:28:50 +0000'
p3
s."
EndChar

StartChar: sinTha
Encoding: 469 3502 469
GlifName: sinT_ha
Width: 577
VWidth: 0
Flags: W
HStem: -26 100 835 93 1019 88
VStem: 60 100 421 91 1142 101
LayerCount: 2
Fore
SplineSet
550 254 m 256
 550 441 415 605 328 703 c 256
 308 727 289 746 277 762 c 257
 262 738 249 717 237 698 c 256
 207 651 187 613 187 563 c 256
 187 490 242 451 302 451 c 256
 347 451 395 472 424 515 c 257
 456 470 505 383 505 254 c 256
 505 136 428 32 287 32 c 256
 165 32 71 109 71 214 c 256
 71 310 130 369 207 369 c 256
 250 369 262 356 275 356 c 256
 283 356 288 366 288 374 c 256
 288 394 257 411 207 411 c 256
 101 411 27 342 27 214 c 256
 27 112 111 -12 287 -12 c 256
 455 -12 550 108 550 254 c 256
  PathStart: -2
226 563 m 256
 226 608 260 654 285 689 c 257
 315 656 366 599 394 552 c 257
 382 512 341 490 302 490 c 256
 262 490 226 512 226 563 c 256
  PathStart: -2
EndSplineSet
PickledDataWithLists: "(dp1
S'com.schriftgestaltung.Glyphs.lastChange'
p2
S'2017-02-17 11:28:50 +0000'
p3
sS'com.fontlab.hintData'
p4
(dp5
S'vhints'
p6
(lp7
(dp8
S'position'
p9
I60
sS'width'
p10
I100
sa(dp11
g9
I421
sg10
I91
sa(dp12
g9
I1142
sg10
I101
sasS'hhints'
p13
(lp14
(dp15
g9
I-26
sg10
I100
sa(dp16
g9
I835
sg10
I93
sa(dp17
g9
I1019
sg10
I88
sass."
EndChar

StartChar: sinTt.virama
Encoding: 470 -1 470
GlifName: sinT_t.virama
Width: 627
VWidth: 0
Flags: W
HStem: -26 104 833 100 1452 108 1779 92 1802 98
VStem: 146 100 230 103 949 102 1255 102
LayerCount: 2
Fore
SplineSet
600 295 m 256
 600 423 541 526 454 594 c 257
 462 619 465 643 465 664 c 256
 465 793 337 841 231 841 c 256
 213 841 195 839 179 837 c 256
 132 829 108 827 89 827 c 256
 77 827 67 828 55 828 c 256
 35 828 27 818 27 807 c 256
 27 797 36 787 52 787 c 256
 83 787 102 764 102 737 c 256
 102 703 89 687 50 667 c 257
 37 662 32 653 32 644 c 256
 32 633 41 622 55 622 c 256
 58 622 62 623 66 625 c 256
 105 636 147 642 187 642 c 256
 355 642 555 505 555 295 c 256
 555 174 479 35 319 35 c 256
 176 35 109 133 109 214 c 256
 109 310 163 369 233 369 c 256
 282 369 297 353 311 353 c 256
 320 353 326 366 326 374 c 256
 326 395 291 413 233 413 c 256
 134 413 65 344 65 214 c 256
 65 112 147 -12 319 -12 c 256
 510 -12 600 142 600 295 c 256
  PathStart: -2
187 690 m 256
 170 690 153 689 136 687 c 257
 144 698 147 712 147 726 c 256
 147 746 139 768 122 787 c 257
 158 790 189 797 219 797 c 256
 335 797 420 747 420 652 c 256
 420 642 419 631 417 621 c 257
 350 665 268 690 187 690 c 256
  PathStart: -2
EndSplineSet
PickledDataWithLists: "(dp1
S'com.schriftgestaltung.Glyphs.lastChange'
p2
S'2017-02-17 11:28:50 +0000'
p3
sS'com.fontlab.hintData'
p4
(dp5
S'vhints'
p6
(lp7
(dp8
S'position'
p9
I146
sS'width'
p10
I100
sa(dp11
g9
I230
sg10
I103
sa(dp12
g9
I949
sg10
I102
sa(dp13
g9
I1255
sg10
I102
sasS'hhints'
p14
(lp15
(dp16
g9
I-26
sg10
I104
sa(dp17
g9
I833
sg10
I100
sa(dp18
g9
I1452
sg10
I108
sa(dp19
g9
I1779
sg10
I92
sa(dp20
g9
I1802
sg10
I98
sass."
Ligature2: "sin_virama_1 subtable" sinTta sinVirama
EndChar

StartChar: sinTtI
Encoding: 471 -1 471
GlifName: sinT_tI_
Width: 568
VWidth: 0
Flags: W
HStem: -26 104 833 100 1237 94 1800 100
VStem: 60 100 503 89 1052 96 1119 106
LayerCount: 2
Fore
SplineSet
542 248 m 256
 542 437 414 501 280 540 c 256
 205 563 79 566 79 678 c 256
 79 766 169 796 255 796 c 256
 392 796 465 751 465 678 c 256
 465 619 423 589 379 589 c 256
 344 589 293 597 262 656 c 256
 258 664 251 667 243 667 c 256
 233 667 223 661 223 649 c 256
 223 645 224 641 226 636 c 256
 262 570 322 547 379 547 c 256
 441 547 508 594 508 678 c 256
 508 779 404 841 255 841 c 256
 153 841 35 792 35 678 c 256
 35 538 156 529 268 499 c 256
 393 466 495 406 495 248 c 256
 495 125 406 35 280 35 c 256
 139 35 71 133 71 214 c 256
 71 310 125 369 195 369 c 256
 245 369 260 353 273 353 c 256
 282 353 288 366 288 374 c 256
 288 395 252 413 195 413 c 256
 96 413 27 344 27 214 c 256
 27 112 108 -12 280 -12 c 256
 437 -12 542 98 542 248 c 256
  PathStart: -2
EndSplineSet
PickledDataWithLists: "(dp1
S'com.schriftgestaltung.Glyphs.lastChange'
p2
S'2017-02-17 11:28:50 +0000'
p3
sS'com.fontlab.hintData'
p4
(dp5
S'vhints'
p6
(lp7
(dp8
S'position'
p9
I60
sS'width'
p10
I100
sa(dp11
g9
I503
sg10
I89
sa(dp12
g9
I1052
sg10
I96
sa(dp13
g9
I1119
sg10
I106
sasS'hhints'
p14
(lp15
(dp16
g9
I-26
sg10
I104
sa(dp17
g9
I833
sg10
I100
sa(dp18
g9
I1237
sg10
I94
sa(dp19
g9
I1800
sg10
I100
sass."
Ligature2: "sin_abvs subtable" sinTta sinMatraI
EndChar

StartChar: sinTtIi
Encoding: 472 -1 472
GlifName: sinT_tI_i
Width: 568
VWidth: 0
Flags: W
HStem: -26 104 833 100 1266 75 1633 94 1800 100
VStem: 60 100 426 94 740 94 1048 100 1119 106
LayerCount: 2
Fore
SplineSet
542 248 m 256
 542 437 414 501 280 540 c 256
 205 563 79 566 79 678 c 256
 79 766 169 796 255 796 c 256
 391 796 464 751 464 678 c 256
 464 619 413 594 355 594 c 256
 338 594 321 595 305 599 c 257
 339 602 369 633 369 676 c 256
 369 723 326 764 278 764 c 256
 231 764 189 725 189 675 c 256
 189 652 198 629 215 611 c 256
 253 574 322 560 352 560 c 256
 441 560 508 594 508 678 c 256
 508 779 404 841 255 841 c 256
 153 841 35 792 35 678 c 256
 35 538 156 529 268 499 c 256
 393 466 495 406 495 248 c 256
 495 125 406 35 280 35 c 256
 139 35 71 133 71 214 c 256
 71 310 125 369 195 369 c 256
 245 369 260 353 273 353 c 256
 282 353 288 366 288 374 c 256
 288 395 252 413 195 413 c 256
 96 413 27 344 27 214 c 256
 27 112 108 -12 280 -12 c 256
 437 -12 542 98 542 248 c 256
  PathStart: -2
230 675 m 256
 230 702 251 723 278 723 c 256
 306 723 327 703 327 676 c 256
 327 647 306 621 278 621 c 256
 251 621 230 645 230 675 c 256
  PathStart: -2
EndSplineSet
PickledDataWithLists: "(dp1
S'com.schriftgestaltung.Glyphs.lastChange'
p2
S'2017-02-17 11:28:50 +0000'
p3
sS'com.fontlab.hintData'
p4
(dp5
S'vhints'
p6
(lp7
(dp8
S'position'
p9
I60
sS'width'
p10
I100
sa(dp11
g9
I426
sg10
I94
sa(dp12
g9
I740
sg10
I94
sa(dp13
g9
I1048
sg10
I100
sa(dp14
g9
I1119
sg10
I106
sasS'hhints'
p15
(lp16
(dp17
g9
I-26
sg10
I104
sa(dp18
g9
I833
sg10
I100
sa(dp19
g9
I1266
sg10
I75
sa(dp20
g9
I1633
sg10
I94
sa(dp21
g9
I1800
sg10
I100
sass."
Ligature2: "sin_abvs subtable" sinTta sinMatraIi
EndChar

StartChar: sinTta
Encoding: 485 3495 485
GlifName: sinT_ta
Width: 622
VWidth: 0
Flags: W
HStem: -26 104 833 100 1539 108
VStem: 135 100 1244 102
LayerCount: 2
Fore
SplineSet
596 310 m 256
 596 565 394 729 181 729 c 256
 136 729 90 721 46 706 c 256
 32 700 27 692 27 683 c 256
 27 672 36 661 50 661 c 256
 54 661 57 662 60 663 c 256
 100 675 142 681 182 681 c 256
 372 681 550 552 550 310 c 256
 550 183 474 35 313 35 c 256
 172 35 104 133 104 214 c 256
 104 310 158 369 229 369 c 256
 278 369 293 353 306 353 c 256
 316 353 321 366 321 374 c 256
 321 395 286 413 232 413 c 256
 133 413 60 344 60 214 c 256
 60 112 142 -12 313 -12 c 256
 505 -12 596 150 596 310 c 256
  PathStart: -2
EndSplineSet
PickledDataWithLists: "(dp1
S'com.schriftgestaltung.Glyphs.lastChange'
p2
S'2017-02-17 11:28:50 +0000'
p3
sS'com.fontlab.hintData'
p4
(dp5
S'vhints'
p6
(lp7
(dp8
S'position'
p9
I135
sS'width'
p10
I100
sa(dp11
g9
I1244
sg10
I102
sasS'hhints'
p12
(lp13
(dp14
g9
I-26
sg10
I104
sa(dp15
g9
I833
sg10
I100
sa(dp16
g9
I1539
sg10
I108
sass."
EndChar

StartChar: sinTtha
Encoding: 491 3496 491
GlifName: sinT_tha
Width: 717
VWidth: 0
Flags: W
HStem: 0 100 833 100 1019 88
VStem: 60 100 738 91 1458 102
LayerCount: 2
Fore
SplineSet
347 100 m 257
 363 41 430 0 495 0 c 256
 625 0 690 99 690 254 c 256
 690 441 555 605 468 703 c 256
 448 727 430 746 417 762 c 257
 403 738 389 717 378 698 c 256
 348 651 327 613 327 563 c 256
 327 490 382 451 442 451 c 256
 487 451 535 472 565 515 c 257
 596 470 645 383 645 254 c 256
 645 117 592 44 495 44 c 256
 414 44 369 110 369 204 c 256
 369 215 364 225 347 225 c 256
 329 225 324 215 324 204 c 256
 324 110 279 44 198 44 c 256
 131 44 71 105 71 214 c 256
 71 310 124 369 195 369 c 256
 245 369 260 353 273 353 c 256
 282 353 288 366 288 374 c 256
 288 395 253 413 195 413 c 256
 99 413 27 344 27 214 c 256
 27 74 108 0 198 0 c 256
 271 0 329 42 347 100 c 257
  PathStart: -2
366 563 m 256
 366 608 400 654 425 689 c 257
 455 656 506 599 535 552 c 257
 523 512 481 490 442 490 c 256
 403 490 366 512 366 563 c 256
  PathStart: -2
EndSplineSet
PickledDataWithLists: "(dp1
S'com.schriftgestaltung.Glyphs.lastChange'
p2
S'2017-02-17 11:28:50 +0000'
p3
sS'com.fontlab.hintData'
p4
(dp5
S'vhints'
p6
(lp7
(dp8
S'position'
p9
I60
sS'width'
p10
I100
sa(dp11
g9
I738
sg10
I91
sa(dp12
g9
I1458
sg10
I102
sasS'hhints'
p13
(lp14
(dp15
g9
I0
sg10
I100
sa(dp16
g9
I833
sg10
I100
sa(dp17
g9
I1019
sg10
I88
sass."
EndChar

StartChar: sinU
Encoding: 492 3467 492
GlifName: sinU_
Width: 759
VWidth: 0
Flags: W
LayerCount: 2
Fore
SplineSet
707 -268 m 256
 725 -258 733 -248 733 -238 c 256
 733 -235 731 -233 731 -229 c 256
 727 -224 718 -218 707 -218 c 256
 700 -218 694 -220 686 -225 c 256
 621 -264 552 -288 464 -288 c 256
 239 -288 71 -124 71 88 c 256
 71 291 189 457 383 457 c 256
 544 457 597 335 682 335 c 256
 695 335 701 345 701 356 c 256
 701 366 695 378 684 378 c 256
 664 378 630 393 616 418 c 256
 613 424 611 430 611 435 c 256
 611 445 616 452 625 452 c 256
 627 452 631 451 635 448 c 256
 647 441 664 425 686 425 c 256
 700 425 705 435 705 446 c 256
 705 459 698 473 684 473 c 256
 658 473 643 501 613 501 c 256
 592 501 569 479 569 452 c 256
 569 447 570 442 571 437 c 257
 549 451 476 501 383 501 c 256
 159 501 27 304 27 88 c 256
 27 -137 193 -333 464 -333 c 256
 554 -333 652 -304 707 -268 c 256
  PathStart: -2
EndSplineSet
PickledDataWithLists: "(dp1
S'com.schriftgestaltung.Glyphs.lastChange'
p2
S'2017-02-17 11:28:50 +0000'
p3
s."
EndChar

StartChar: sinUu
Encoding: 493 3468 493
GlifName: sinU_u
Width: 759
VWidth: 0
Flags: W
HStem: 9 76 17 62 377 62 498 57 643 69 861 74 936 57 1330 66
VStem: 1127 64 1510 68 1716 116 1911 64 2158 68 3553 66 3780 61 3850 62 3898 97 4204 159
LayerCount: 2
Fore
SplineSet
708 -268 m 256
 725 -258 733 -248 733 -238 c 256
 733 -235 731 -233 731 -229 c 256
 727 -224 719 -218 707 -218 c 256
 700 -218 694 -220 686 -225 c 256
 621 -264 552 -288 465 -288 c 256
 239 -288 72 -124 72 88 c 256
 72 291 189 457 383 457 c 256
 545 457 598 335 683 335 c 256
 695 335 702 345 702 356 c 256
 702 366 695 378 684 378 c 256
 664 378 631 393 616 418 c 256
 613 424 611 430 611 435 c 256
 611 445 616 452 625 452 c 256
 627 452 631 451 636 448 c 256
 648 441 664 425 686 425 c 256
 700 425 705 435 705 446 c 256
 705 459 698 473 685 473 c 256
 658 473 643 501 614 501 c 256
 592 501 569 479 569 452 c 256
 569 447 570 442 571 437 c 257
 549 451 476 501 383 501 c 256
 160 501 27 304 27 88 c 256
 27 -137 193 -333 465 -333 c 256
 554 -333 652 -304 708 -268 c 256
  PathStart: -2
EndSplineSet
PickledDataWithLists: "(dp1
S'com.schriftgestaltung.Glyphs.lastChange'
p2
S'2017-02-17 11:28:50 +0000'
p3
sS'com.fontlab.hintData'
p4
(dp5
S'vhints'
p6
(lp7
(dp8
S'position'
p9
I1127
sS'width'
p10
I64
sa(dp11
g9
I1510
sg10
I68
sa(dp12
g9
I1716
sg10
I116
sa(dp13
g9
I1911
sg10
I64
sa(dp14
g9
I2158
sg10
I68
sa(dp15
g9
I3553
sg10
I66
sa(dp16
g9
I3780
sg10
I61
sa(dp17
g9
I3850
sg10
I62
sa(dp18
g9
I3898
sg10
I97
sa(dp19
g9
I4204
sg10
I159
sasS'hhints'
p20
(lp21
(dp22
g9
I9
sg10
I76
sa(dp23
g9
I17
sg10
I62
sa(dp24
g9
I377
sg10
I62
sa(dp25
g9
I498
sg10
I57
sa(dp26
g9
I643
sg10
I69
sa(dp27
g9
I861
sg10
I74
sa(dp28
g9
I936
sg10
I57
sa(dp29
g9
I1330
sg10
I66
sass."
EndChar

StartChar: sinV.virama
Encoding: 494 -1 494
GlifName: sinV_.virama
Width: 622
VWidth: 0
Flags: W
HStem: -26 104 781 88 944 94 1032 93 1488 108 1815 92 1838 98
VStem: 105 100 219 103 368 92 938 102 1244 102
LayerCount: 2
Fore
SplineSet
596 310 m 256
 596 439 537 541 449 609 c 257
 457 635 461 658 461 680 c 256
 461 808 332 857 226 857 c 256
 208 857 190 855 174 852 c 256
 128 844 103 843 84 843 c 256
 72 843 63 844 50 844 c 256
 30 844 21 833 21 824 c 256
 21 813 31 803 47 803 c 256
 79 803 97 780 97 753 c 256
 97 719 84 703 46 683 c 257
 32 678 27 669 27 660 c 256
 27 649 36 639 50 639 c 256
 54 639 57 639 60 640 c 256
 100 652 142 658 182 658 c 256
 351 658 550 521 550 310 c 256
 550 183 474 35 313 35 c 256
 175 35 91 105 91 216 c 256
 91 286 134 341 197 346 c 257
 202 346 l 258
 220 346 236 341 253 337 c 257
 256 337 258 336 260 336 c 256
 271 336 279 342 282 353 c 256
 282 355 283 357 283 359 c 256
 283 370 274 379 257 385 c 256
 221 398 204 411 204 432 c 256
 204 446 218 456 234 456 c 256
 237 456 240 456 243 456 c 256
 273 449 285 417 326 417 c 256
 338 417 344 428 344 437 c 256
 344 448 338 459 326 459 c 256
 296 459 279 498 232 498 c 256
 189 498 163 464 163 432 c 256
 163 414 171 397 189 384 c 257
 186 384 l 258
 122 384 46 319 46 216 c 256
 46 74 150 -12 313 -12 c 256
 505 -12 596 150 596 310 c 256
  PathStart: -2
181 706 m 256
 165 706 148 705 132 703 c 257
 139 714 142 727 142 742 c 256
 142 762 134 785 118 803 c 257
 153 807 184 813 214 813 c 256
 331 813 415 762 415 667 c 256
 415 658 414 647 412 636 c 257
 344 681 264 706 181 706 c 256
  PathStart: -2
EndSplineSet
PickledDataWithLists: "(dp1
S'com.schriftgestaltung.Glyphs.lastChange'
p2
S'2017-02-17 11:28:50 +0000'
p3
sS'com.fontlab.hintData'
p4
(dp5
S'vhints'
p6
(lp7
(dp8
S'position'
p9
I105
sS'width'
p10
I100
sa(dp11
g9
I219
sg10
I103
sa(dp12
g9
I368
sg10
I92
sa(dp13
g9
I938
sg10
I102
sa(dp14
g9
I1244
sg10
I102
sasS'hhints'
p15
(lp16
(dp17
g9
I-26
sg10
I104
sa(dp18
g9
I781
sg10
I88
sa(dp19
g9
I944
sg10
I94
sa(dp20
g9
I1032
sg10
I93
sa(dp21
g9
I1488
sg10
I108
sa(dp22
g9
I1815
sg10
I92
sa(dp23
g9
I1838
sg10
I98
sass."
Ligature2: "sin_virama_1 subtable" sinVa sinVirama
EndChar

StartChar: sinVI
Encoding: 495 -1 495
GlifName: sinV_I_
Width: 622
VWidth: 0
Flags: W
HStem: -26 104 735 88 898 94 986 93 1237 94 1800 100
VStem: 105 100 154 100 367 92 578 89 1127 96 1194 106
LayerCount: 2
Fore
SplineSet
575 248 m 256
 575 437 448 501 313 540 c 256
 238 563 112 566 112 678 c 256
 112 766 202 796 288 796 c 256
 425 796 498 751 498 678 c 256
 498 619 456 589 412 589 c 256
 378 589 326 597 295 656 c 256
 291 664 284 667 277 667 c 256
 266 667 256 661 256 649 c 256
 256 645 257 641 260 636 c 256
 295 570 355 547 412 547 c 256
 474 547 541 594 541 678 c 256
 541 779 437 841 288 841 c 256
 186 841 68 792 68 678 c 256
 68 538 189 529 301 499 c 256
 426 466 528 406 528 248 c 256
 528 125 439 35 313 35 c 256
 175 35 91 105 91 216 c 256
 91 275 134 321 196 325 c 256
 202 325 l 258
 218 325 236 320 253 317 c 257
 255 316 258 316 260 316 c 256
 271 316 279 321 282 333 c 256
 282 335 282 337 282 338 c 256
 282 350 274 358 257 364 c 256
 220 378 203 390 203 411 c 256
 203 426 218 437 234 437 c 256
 236 437 239 436 242 435 c 256
 273 428 285 397 326 397 c 256
 338 397 343 407 343 417 c 256
 343 428 337 439 326 439 c 256
 295 439 279 477 232 477 c 256
 189 477 162 444 162 411 c 256
 162 394 170 378 188 364 c 257
 185 364 l 258
 122 364 46 307 46 216 c 256
 46 74 150 -12 313 -12 c 256
 470 -12 575 98 575 248 c 256
  PathStart: -2
EndSplineSet
PickledDataWithLists: "(dp1
S'com.schriftgestaltung.Glyphs.lastChange'
p2
S'2017-02-17 11:28:50 +0000'
p3
sS'com.fontlab.hintData'
p4
(dp5
S'vhints'
p6
(lp7
(dp8
S'position'
p9
I105
sS'width'
p10
I100
sa(dp11
g9
I154
sg10
I100
sa(dp12
g9
I367
sg10
I92
sa(dp13
g9
I578
sg10
I89
sa(dp14
g9
I1127
sg10
I96
sa(dp15
g9
I1194
sg10
I106
sasS'hhints'
p16
(lp17
(dp18
g9
I-26
sg10
I104
sa(dp19
g9
I735
sg10
I88
sa(dp20
g9
I898
sg10
I94
sa(dp21
g9
I986
sg10
I93
sa(dp22
g9
I1237
sg10
I94
sa(dp23
g9
I1800
sg10
I100
sass."
Ligature2: "sin_abvs subtable" sinVa sinMatraI
EndChar

StartChar: sinVIi
Encoding: 496 -1 496
GlifName: sinV_I_i
Width: 622
VWidth: 0
Flags: W
HStem: -26 104 735 88 898 94 986 93 1266 75 1633 94 1800 100
VStem: 105 100 154 100 367 92 501 94 815 94 1123 100 1194 106
LayerCount: 2
Fore
SplineSet
575 248 m 256
 575 437 448 501 313 540 c 256
 238 563 112 566 112 678 c 256
 112 766 202 796 288 796 c 256
 424 796 497 751 497 678 c 256
 497 619 446 594 388 594 c 256
 372 594 355 595 338 599 c 257
 372 602 402 633 402 676 c 256
 402 723 359 764 311 764 c 256
 264 764 222 725 222 675 c 256
 222 652 231 629 248 611 c 256
 286 574 355 560 386 560 c 256
 474 560 541 594 541 678 c 256
 541 779 437 841 288 841 c 256
 186 841 68 792 68 678 c 256
 68 538 189 529 301 499 c 256
 426 466 528 406 528 248 c 256
 528 125 439 35 313 35 c 256
 175 35 91 105 91 216 c 256
 91 275 134 321 196 325 c 256
 202 325 l 258
 218 325 236 320 253 317 c 257
 255 316 258 316 260 316 c 256
 271 316 279 321 282 333 c 256
 282 335 282 337 282 338 c 256
 282 350 274 358 257 364 c 256
 220 378 203 391 203 411 c 256
 203 426 218 437 234 437 c 256
 236 437 239 436 242 435 c 256
 273 428 285 397 326 397 c 256
 338 397 343 407 343 417 c 256
 343 428 337 439 326 439 c 256
 295 439 279 477 232 477 c 256
 189 477 162 444 162 411 c 256
 162 394 170 378 188 364 c 257
 185 364 l 258
 122 364 46 307 46 216 c 256
 46 74 150 -12 313 -12 c 256
 470 -12 575 98 575 248 c 256
  PathStart: -2
263 675 m 256
 263 702 285 723 311 723 c 256
 339 723 361 703 361 676 c 256
 361 647 339 621 311 621 c 256
 285 621 263 645 263 675 c 256
  PathStart: -2
EndSplineSet
PickledDataWithLists: "(dp1
S'com.schriftgestaltung.Glyphs.lastChange'
p2
S'2017-02-17 11:28:50 +0000'
p3
sS'com.fontlab.hintData'
p4
(dp5
S'vhints'
p6
(lp7
(dp8
S'position'
p9
I105
sS'width'
p10
I100
sa(dp11
g9
I154
sg10
I100
sa(dp12
g9
I367
sg10
I92
sa(dp13
g9
I501
sg10
I94
sa(dp14
g9
I815
sg10
I94
sa(dp15
g9
I1123
sg10
I100
sa(dp16
g9
I1194
sg10
I106
sasS'hhints'
p17
(lp18
(dp19
g9
I-26
sg10
I104
sa(dp20
g9
I735
sg10
I88
sa(dp21
g9
I898
sg10
I94
sa(dp22
g9
I986
sg10
I93
sa(dp23
g9
I1266
sg10
I75
sa(dp24
g9
I1633
sg10
I94
sa(dp25
g9
I1800
sg10
I100
sass."
Ligature2: "sin_abvs subtable" sinVa sinMatraIi
EndChar

StartChar: sinVa
Encoding: 503 3520 503
GlifName: sinV_a
Width: 573
VWidth: 0
Flags: W
HStem: -26 104 762 108 944 94 1498 97
VStem: 16 100 279 92 1155 102
LayerCount: 2
Fore
SplineSet
556 310 m 256
 556 565 355 729 142 729 c 256
 97 729 51 721 6 706 c 256
 -7 700 -13 692 -13 683 c 256
 -13 672 -4 661 11 661 c 256
 14 661 18 662 21 663 c 256
 61 675 102 681 143 681 c 256
 333 681 511 552 511 310 c 256
 511 183 434 35 274 35 c 256
 136 35 52 105 52 216 c 256
 52 286 94 341 158 346 c 256
 176 347 195 341 214 337 c 257
 216 337 219 336 221 336 c 256
 232 336 240 342 243 353 c 256
 243 355 244 357 244 359 c 256
 244 370 235 379 218 385 c 256
 182 398 164 411 164 432 c 256
 164 446 178 456 195 456 c 256
 198 456 201 456 203 456 c 257
 234 449 246 417 287 417 c 256
 299 417 305 428 305 437 c 256
 305 448 298 459 287 459 c 256
 256 459 240 498 192 498 c 256
 150 498 123 464 123 432 c 256
 123 414 131 397 149 384 c 257
 86 386 7 320 7 216 c 256
 7 74 111 -12 274 -12 c 256
 465 -12 556 150 556 310 c 256
  PathStart: -2
EndSplineSet
PickledDataWithLists: "(dp1
S'com.schriftgestaltung.Glyphs.lastChange'
p2
S'2017-02-17 11:28:50 +0000'
p3
sS'com.fontlab.hintData'
p4
(dp5
S'vhints'
p6
(lp7
(dp8
S'position'
p9
I16
sS'width'
p10
I100
sa(dp11
g9
I279
sg10
I92
sa(dp12
g9
I1155
sg10
I102
sasS'hhints'
p13
(lp14
(dp15
g9
I-26
sg10
I104
sa(dp16
g9
I762
sg10
I108
sa(dp17
g9
I944
sg10
I94
sa(dp18
g9
I1498
sg10
I97
sass."
EndChar

StartChar: sinVirama
Encoding: 504 3530 504
GlifName: sinV_irama
Width: 0
VWidth: 0
Flags: W
HStem: 1438 80
VStem: -332 100 -137 100
LayerCount: 2
Fore
SplineSet
-102 398 m 257
 -102 641 l 257
 -93 638 -83 636 -75 636 c 256
 -39 636 -16 661 -16 685 c 256
 -16 746 -102 757 -102 811 c 256
 -102 831 -114 840 -125 840 c 256
 -136 840 -147 831 -147 815 c 258
 -147 398 l 257
 -102 398 l 257
-102 674 m 257
 -102 752 l 257
 -94 737 -60 719 -60 696 c 256
 -60 689 -66 671 -87 671 c 256
 -91 671 -97 672 -102 674 c 257
  PathStart: -2
EndSplineSet
PickledDataWithLists: "(dp1
S'com.schriftgestaltung.Glyphs.lastChange'
p2
S'2017-02-17 11:28:50 +0000'
p3
sS'com.fontlab.hintData'
p4
(dp5
S'vhints'
p6
(lp7
(dp8
S'position'
p9
I-332
sS'width'
p10
I100
sa(dp11
g9
I-137
sg10
I100
sasS'hhints'
p12
(lp13
(dp14
g9
I1438
sg10
I80
sass."
EndChar

StartChar: sinYa
Encoding: 516 3514 516
GlifName: sinY_a
Width: 765
VWidth: 0
Flags: W
HStem: 0 100 764 100 777 87
VStem: 60 100 814 100 1229 99 1568 100
LayerCount: 2
Fore
SplineSet
382 100 m 257
 400 41 475 0 548 0 c 256
 649 0 738 68 738 196 c 256
 738 287 678 382 583 382 c 256
 579 382 574 382 571 382 c 257
 583 393 588 411 588 428 c 256
 588 443 585 457 579 470 c 256
 576 476 571 483 557 483 c 256
 545 483 536 474 536 465 c 256
 536 462 536 461 537 459 c 256
 542 446 543 437 543 428 c 256
 543 410 535 400 525 393 c 256
 515 386 497 381 477 377 c 256
 461 373 452 364 452 352 c 256
 452 350 453 348 453 346 c 256
 456 335 464 329 475 329 c 256
 477 329 479 330 482 330 c 256
 508 335 518 344 557 344 c 256
 640 344 694 279 694 196 c 256
 694 99 625 44 548 44 c 256
 456 44 404 110 404 204 c 256
 404 215 400 225 382 225 c 256
 364 225 360 215 360 204 c 256
 360 110 308 44 216 44 c 256
 139 44 71 99 71 196 c 256
 71 276 129 338 208 338 c 256
 248 338 291 322 316 296 c 256
 324 287 333 283 340 283 c 256
 351 283 360 291 360 302 c 256
 360 308 357 316 350 324 c 256
 310 367 254 382 208 382 c 256
 104 382 27 302 27 196 c 256
 27 68 116 0 216 0 c 256
 296 0 362 42 382 100 c 257
  PathStart: -2
EndSplineSet
PickledDataWithLists: "(dp1
S'com.schriftgestaltung.Glyphs.lastChange'
p2
S'2017-02-17 11:28:50 +0000'
p3
sS'com.fontlab.hintData'
p4
(dp5
S'vhints'
p6
(lp7
(dp8
S'position'
p9
I60
sS'width'
p10
I100
sa(dp11
g9
I814
sg10
I100
sa(dp12
g9
I1229
sg10
I99
sa(dp13
g9
I1568
sg10
I100
sasS'hhints'
p14
(lp15
(dp16
g9
I0
sg10
I100
sa(dp17
g9
I764
sg10
I100
sa(dp18
g9
I777
sg10
I87
sass."
EndChar

StartChar: singNaa
Encoding: 518 -1 518
GlifName: singN_aa
Width: 1027
VWidth: 0
Flags: W
HStem: -26 100 0 179 0 100 462 98 502 92 729 100 1007 93
VStem: 60 100 287 147 358 103 1168 95 1996 94 2112 93
LayerCount: 2
Fore
SplineSet
1000 -306 m 256
 1000 -295 995 -285 984 -282 c 256
 942 -271 924 -234 924 -171 c 256
 924 -111 941 -26 968 83 c 256
 970 89 970 94 970 100 c 256
 970 119 960 130 952 130 c 256
 948 130 946 128 944 126 c 256
 915 91 857 32 755 32 c 256
 630 32 559 101 559 208 c 256
 559 253 590 322 675 322 c 256
 736 322 762 297 785 271 c 256
 813 240 841 204 896 204 c 256
 952 205 976 243 976 293 c 256
 976 401 874 487 712 487 c 256
 625 487 557 465 507 423 c 257
 506 428 504 432 499 435 c 256
 457 472 411 487 369 487 c 256
 324 487 283 473 249 446 c 257
 246 451 l 257
 231 474 198 487 176 487 c 256
 78 487 27 368 27 233 c 256
 27 69 87 0 142 0 c 256
 168 0 192 17 192 44 c 256
 192 68 175 79 158 79 c 256
 144 79 127 73 127 52 c 257
 127 48 l 257
 94 65 71 136 71 233 c 256
 71 336 106 445 176 445 c 256
 194 445 212 438 222 423 c 258
 223 422 l 257
 183 379 159 317 159 243 c 256
 159 66 265 0 375 0 c 256
 468 0 521 39 546 86 c 257
 583 26 653 -12 755 -12 c 256
 831 -12 899 28 920 47 c 257
 894 -53 883 -128 883 -182 c 256
 883 -285 922 -320 976 -332 c 256
 977 -333 978 -333 979 -333 c 256
 992 -333 1000 -319 1000 -306 c 256
  PathStart: -2
204 243 m 256
 204 375 282 443 369 443 c 256
 406 443 445 428 478 395 c 257
 479 393 l 257
 451 357 430 310 418 251 c 256
 417 246 416 240 416 236 c 256
 416 226 420 220 432 220 c 256
 434 220 437 220 439 220 c 256
 448 221 454 222 461 222 c 256
 501 222 517 200 517 150 c 256
 517 102 469 44 375 44 c 256
 284 44 204 102 204 243 c 256
  PathStart: -2
821 291 m 256
 791 323 765 366 675 366 c 256
 585 366 535 312 521 250 c 257
 508 258 493 262 476 262 c 256
 472 262 466 262 461 262 c 257
 487 378 568 445 712 445 c 256
 845 445 934 380 934 293 c 256
 934 265 924 248 897 248 c 256
 857 248 844 265 821 291 c 256
  PathStart: -2
EndSplineSet
PickledDataWithLists: "(dp1
S'com.schriftgestaltung.Glyphs.lastChange'
p2
S'2017-02-17 11:28:50 +0000'
p3
sS'com.fontlab.hintData'
p4
(dp5
S'vhints'
p6
(lp7
(dp8
S'position'
p9
I60
sS'width'
p10
I100
sa(dp11
g9
I287
sg10
I147
sa(dp12
g9
I358
sg10
I103
sa(dp13
g9
I1168
sg10
I95
sa(dp14
g9
I1996
sg10
I94
sa(dp15
g9
I2112
sg10
I93
sasS'hhints'
p16
(lp17
(dp18
g9
I-26
sg10
I100
sa(dp19
g9
I0
sg10
I179
sa(dp20
g9
I0
sg10
I100
sa(dp21
g9
I462
sg10
I98
sa(dp22
g9
I502
sg10
I92
sa(dp23
g9
I729
sg10
I100
sa(dp24
g9
I1007
sg10
I93
sass."
EndChar

StartChar: sinkundaliya
Encoding: 519 3572 519
GlifName: sinkundaliya
Width: 1687
VWidth: 0
Flags: W
HStem: 16 109 16 274 223 97
VStem: 100 222 971 101 1196 130 1519 163 1587 102 1808 152 2179 135 3241 220
LayerCount: 2
Fore
SplineSet
744 30 m 256
 780 98 804 163 831 220 c 257
 813 142 813 100 800 45 c 257
 799 42 799 39 799 37 c 256
 799 19 815 10 832 10 c 256
 846 10 861 17 867 30 c 256
 910 125 970 228 970 228 c 256
 970 228 935 111 915 49 c 257
 915 46 914 45 914 43 c 256
 914 27 934 15 953 15 c 256
 964 15 976 20 983 30 c 256
 1041 123 1044 139 1072 170 c 257
 1063 150 1050 97 1032 45 c 257
 1032 43 1031 41 1031 38 c 256
 1031 26 1043 17 1057 17 c 256
 1067 17 1077 21 1085 30 c 256
 1137 88 1149 122 1188 149 c 257
 1175 135 1152 83 1137 41 c 257
 1136 39 1136 38 1136 36 c 256
 1136 29 1141 22 1149 18 c 256
 1154 15 1158 13 1163 13 c 256
 1196 13 1214 94 1255 94 c 256
 1319 94 1349 7 1457 7 c 256
 1497 7 1531 32 1531 72 c 256
 1531 108 1508 128 1481 128 c 256
 1453 128 1434 105 1434 79 c 256
 1434 72 1435 65 1436 61 c 257
 1433 57 1428 55 1418 55 c 256
 1373 55 1324 137 1256 137 c 256
 1250 137 1216 122 1211 115 c 257
 1211 115 1217 142 1230 163 c 256
 1234 170 1236 178 1236 184 c 256
 1236 201 1227 215 1211 215 c 256
 1205 215 1198 212 1190 206 c 256
 1143 172 1131 157 1102 124 c 257
 1115 161 1122 177 1135 204 c 256
 1138 209 1138 215 1138 220 c 256
 1138 242 1123 262 1105 262 c 256
 1100 262 1095 260 1090 256 c 256
 1046 224 1015 166 984 126 c 257
 998 184 1011 212 1023 261 c 257
 1024 263 1025 266 1025 268 c 256
 1025 292 999 319 979 319 c 256
 973 319 968 316 964 310 c 256
 925 257 911 206 860 119 c 257
 866 159 874 239 889 290 c 256
 890 294 891 299 891 302 c 256
 891 329 868 351 849 351 c 256
 842 351 835 348 830 340 c 256
 789 271 776 196 734 118 c 257
 745 168 746 225 747 286 c 256
 748 317 725 335 704 335 c 256
 693 335 683 330 678 318 c 256
 649 247 589 125 589 125 c 256
 589 125 605 209 608 236 c 256
 609 242 609 247 609 252 c 256
 609 287 590 302 574 302 c 256
 563 302 554 296 550 286 c 256
 526 212 496 151 476 122 c 257
 477 136 478 147 478 162 c 256
 478 174 477 187 476 204 c 256
 473 222 460 232 448 232 c 256
 437 232 426 225 423 210 c 256
 410 139 366 83 366 83 c 257
 369 119 338 142 320 142 c 256
 233 142 181 52 142 52 c 256
 139 52 136 52 133 54 c 257
 139 60 142 69 142 79 c 256
 142 105 123 128 96 128 c 256
 68 128 44 108 44 72 c 256
 44 32 79 7 119 7 c 256
 205 7 257 99 313 99 c 256
 329 99 334 78 334 63 c 256
 334 59 333 56 333 54 c 257
 333 50 333 48 333 45 c 256
 333 26 344 17 358 17 c 256
 367 17 378 22 383 30 c 256
 420 83 443 132 443 132 c 256
 443 132 441 101 430 45 c 256
 428 41 428 38 428 35 c 256
 428 21 437 14 447 14 c 256
 456 14 467 20 474 30 c 256
 517 94 549 151 561 196 c 257
 555 154 546 105 529 45 c 256
 528 41 527 38 527 34 c 256
 527 18 539 10 552 10 c 256
 565 10 578 16 587 30 c 256
 636 115 678 181 702 237 c 257
 700 201 689 108 672 45 c 257
 671 43 671 39 671 37 c 256
 671 18 687 4 706 4 c 256
 720 4 734 12 744 30 c 256
  PathStart: -2
EndSplineSet
PickledDataWithLists: "(dp1
S'com.schriftgestaltung.Glyphs.lastChange'
p2
S'2017-02-17 11:28:50 +0000'
p3
sS'com.fontlab.hintData'
p4
(dp5
S'vhints'
p6
(lp7
(dp8
S'position'
p9
I100
sS'width'
p10
I222
sa(dp11
g9
I971
sg10
I101
sa(dp12
g9
I1196
sg10
I130
sa(dp13
g9
I1519
sg10
I163
sa(dp14
g9
I1587
sg10
I102
sa(dp15
g9
I1808
sg10
I152
sa(dp16
g9
I2179
sg10
I135
sa(dp17
g9
I3241
sg10
I220
sasS'hhints'
p18
(lp19
(dp20
g9
I16
sg10
I109
sa(dp21
g9
I16
sg10
I274
sa(dp22
g9
I223
sg10
I97
sass."
EndChar

StartChar: sinvocalicL
Encoding: 520 3471 520
GlifName: sinvocalicL_
Width: 901
VWidth: 0
Flags: W
HStem: -26 100 0 179 779 88 942 94 1030 93
VStem: 60 100 286 147 365 100 1573 100 1605 147 1878 100
LayerCount: 2
Fore
SplineSet
740 216 m 256
 740 301 693 383 611 383 c 257
 639 402 648 456 709 456 c 256
 790 456 831 341 831 233 c 256
 831 136 808 65 775 48 c 257
 775 52 l 257
 775 73 758 79 744 79 c 256
 727 79 710 68 710 44 c 256
 710 17 734 0 759 0 c 256
 815 0 875 69 875 233 c 256
 875 373 818 497 709 497 c 256
 678 497 638 472 622 451 c 257
 619 470 614 485 594 485 c 256
 583 485 574 476 574 466 c 256
 574 464 574 462 574 460 c 257
 580 448 581 438 581 430 c 256
 581 412 572 402 563 395 c 256
 548 386 541 383 528 379 c 256
 521 376 514 366 514 357 c 256
 514 355 515 354 515 352 c 257
 518 341 526 335 536 335 c 256
 539 335 541 335 544 336 c 256
 561 340 578 344 594 344 c 258
 600 344 l 257
 663 340 696 286 696 216 c 256
 696 98 589 32 451 32 c 256
 313 32 206 98 206 216 c 256
 206 286 238 340 302 344 c 257
 307 344 l 258
 324 344 341 340 358 336 c 257
 360 335 363 335 365 335 c 256
 376 335 383 341 386 352 c 256
 387 354 387 356 387 358 c 256
 387 369 379 378 362 384 c 256
 326 397 308 410 308 431 c 256
 308 445 322 456 338 456 c 256
 341 456 344 455 347 455 c 256
 378 448 389 417 431 417 c 256
 443 417 448 427 448 437 c 256
 448 448 442 459 431 459 c 256
 400 459 384 497 336 497 c 256
 306 497 284 481 274 459 c 257
 258 476 222 497 192 497 c 256
 83 497 27 373 27 233 c 256
 27 69 87 0 142 0 c 256
 168 0 192 17 192 44 c 256
 192 68 174 79 158 79 c 256
 143 79 127 73 127 52 c 257
 127 48 l 257
 94 65 71 136 71 233 c 256
 71 341 111 456 192 456 c 256
 221 456 254 442 271 409 c 256
 277 400 282 391 293 383 c 257
 291 383 l 258
 208 383 161 301 161 216 c 256
 161 74 287 -12 451 -12 c 256
 614 -12 740 74 740 216 c 256
  PathStart: -2
EndSplineSet
PickledDataWithLists: "(dp1
S'com.schriftgestaltung.Glyphs.lastChange'
p2
S'2017-02-17 11:28:50 +0000'
p3
sS'com.fontlab.hintData'
p4
(dp5
S'vhints'
p6
(lp7
(dp8
S'position'
p9
I60
sS'width'
p10
I100
sa(dp11
g9
I286
sg10
I147
sa(dp12
g9
I365
sg10
I100
sa(dp13
g9
I1573
sg10
I100
sa(dp14
g9
I1605
sg10
I147
sa(dp15
g9
I1878
sg10
I100
sasS'hhints'
p16
(lp17
(dp18
g9
I-26
sg10
I100
sa(dp19
g9
I0
sg10
I179
sa(dp20
g9
I779
sg10
I88
sa(dp21
g9
I942
sg10
I94
sa(dp22
g9
I1030
sg10
I93
sass."
EndChar

